<svg id="Layer_1" data-name="Layer 1" xmlns="http://www.w3.org/2000/svg" viewBox="0 0 312.85 200.47"><defs><style>.cls-1{fill:#3b3a36;}</style></defs><title>cv</title><rect class="cls-1" x="2.83" y="6.4" width="1" height="171.68"/><path class="cls-1" d="M5.24,14.86a1.92,1.92,0,1,1-1.91-1.92A1.92,1.92,0,0,1,5.24,14.86Z"/><path class="cls-1" d="M5.24,65.61A1.92,1.92,0,1,1,3.33,63.7,1.91,1.91,0,0,1,5.24,65.61Z"/><path class="cls-1" d="M5.24,116.37a1.92,1.92,0,1,1-1.91-1.92A1.92,1.92,0,0,1,5.24,116.37Z"/><path class="cls-1" d="M31.55,4.57a2.41,2.41,0,0,1,1,2.05,2.52,2.52,0,0,1-.52,1.6,2.49,2.49,0,0,1-1.43.88,2.88,2.88,0,0,1,1.75,1A2.78,2.78,0,0,1,33,11.93,2.66,2.66,0,0,1,31.9,14.2a5,5,0,0,1-3,.82H23.75V3.82h5A4.72,4.72,0,0,1,31.55,4.57ZM29.92,8a1.23,1.23,0,0,0,.47-1,1.19,1.19,0,0,0-.47-1,2.09,2.09,0,0,0-1.3-.33H25.9V8.4h2.72A2,2,0,0,0,29.92,8Zm.3,4.75a1.28,1.28,0,0,0,.57-1.12,1.24,1.24,0,0,0-.57-1.08,2.77,2.77,0,0,0-1.6-.37H25.9v3h2.72A2.69,2.69,0,0,0,30.22,12.78Z"/><path class="cls-1" d="M42.92,6.46V15h-2.1V13.44a3.05,3.05,0,0,1-3,1.66,3,3,0,0,1-2.27-.88,3.31,3.31,0,0,1-.84-2.4V6.46h2.1v4.76a1.93,1.93,0,0,0,.49,1.4,1.76,1.76,0,0,0,1.35.51,2,2,0,0,0,1.57-.7,2.64,2.64,0,0,0,.57-1.74V6.46Z"/><path class="cls-1" d="M48,17.69a3,3,0,0,1-1.77.53A3.29,3.29,0,0,1,45.14,18a3.55,3.55,0,0,1-1-.58L45,15.87a2.62,2.62,0,0,0,.56.33,1.42,1.42,0,0,0,.55.1,1.31,1.31,0,0,0,1.24-.86l.26-.56L44.1,6.46h2.16l2.44,6.23,2.22-6.23H53l-3.84,9.63A3.37,3.37,0,0,1,48,17.69Z"/><path class="cls-1" d="M63.19,15V14a2.73,2.73,0,0,1-1.15.85,4.29,4.29,0,0,1-1.62.29,3.43,3.43,0,0,1-1.57-.35,2.48,2.48,0,0,1-1.05-.95,2.53,2.53,0,0,1-.37-1.36,2.27,2.27,0,0,1,.85-1.88,3.85,3.85,0,0,1,2.4-.69h2.5V9.66a1.42,1.42,0,0,0-.5-1.16,2.17,2.17,0,0,0-1.44-.42,5,5,0,0,0-2.54.8l-.76-1.44a10.28,10.28,0,0,1,1.84-.81,6.88,6.88,0,0,1,1.92-.25,3.86,3.86,0,0,1,2.59.8,2.87,2.87,0,0,1,.93,2.24l0,5.6Zm-.73-1.93a1.51,1.51,0,0,0,.72-1v-.77H61a2.31,2.31,0,0,0-1.23.25.88.88,0,0,0-.39.81,1,1,0,0,0,.41.86,1.77,1.77,0,0,0,1.11.32A2.68,2.68,0,0,0,62.46,13.09Z"/><path class="cls-1" d="M69.45,3.13a1.28,1.28,0,0,1,.33.9,1.23,1.23,0,0,1-.33.88,1.21,1.21,0,0,1-1.7,0A1.23,1.23,0,0,1,67.42,4a1.28,1.28,0,0,1,.33-.9,1.21,1.21,0,0,1,1.7,0ZM67.58,6.46h2.08V15H67.58Z"/><path class="cls-1" d="M80.49,3.15V15H78.41V13.65a3.1,3.1,0,0,1-1.19,1.09,3.66,3.66,0,0,1-1.69.38,4.18,4.18,0,0,1-2.14-.55A3.79,3.79,0,0,1,72,13a5,5,0,0,1-.51-2.29A5,5,0,0,1,72,8.46a3.65,3.65,0,0,1,1.43-1.53,4,4,0,0,1,2.1-.55,3.6,3.6,0,0,1,1.71.39,3.21,3.21,0,0,1,1.22,1.1V3.15Zm-2.76,9.5a2.66,2.66,0,0,0,.68-1.88,2.65,2.65,0,0,0-.68-1.88A2.29,2.29,0,0,0,76,8.16a2.26,2.26,0,0,0-1.75.73,2.7,2.7,0,0,0-.69,1.88,2.71,2.71,0,0,0,.69,1.88,2.29,2.29,0,0,0,1.75.73A2.32,2.32,0,0,0,77.73,12.65Z"/><path class="cls-1" d="M24.73,28.25h2.39a1.85,1.85,0,0,0,.5-.06A.76.76,0,0,0,28,28a1.13,1.13,0,0,0,.3-.42,5,5,0,0,0,.27-.69H29l-.45,2.55H23V29c.91-.82,1.66-1.53,2.25-2.15a13.35,13.35,0,0,0,1.38-1.65,4.86,4.86,0,0,0,.7-1.35,4.12,4.12,0,0,0,.19-1.25,2.31,2.31,0,0,0-.44-1.48,1.48,1.48,0,0,0-1.19-.54,1.56,1.56,0,0,0-1.17.47,1.69,1.69,0,0,0-.45,1.22,1.49,1.49,0,0,0,.35,1,1.28,1.28,0,0,0,1,.38.74.74,0,0,1-.31.46,1.07,1.07,0,0,1-.63.18,1.6,1.6,0,0,1-.62-.13,1.62,1.62,0,0,1-.49-.38,1.59,1.59,0,0,1-.32-.57,2.09,2.09,0,0,1-.12-.72,2.23,2.23,0,0,1,.23-1,2.4,2.4,0,0,1,.63-.79,3.14,3.14,0,0,1,.94-.52,3.48,3.48,0,0,1,1.18-.19,3.32,3.32,0,0,1,1.16.19,2.8,2.8,0,0,1,.92.54,2.53,2.53,0,0,1,.59.82,2.59,2.59,0,0,1,.21,1,3.42,3.42,0,0,1-.33,1.46,6.13,6.13,0,0,1-.91,1.41,11.35,11.35,0,0,1-1.34,1.35c-.51.45-1.06.89-1.64,1.32Z"/><path class="cls-1" d="M34.05,20.06a2.8,2.8,0,0,1,1.38.37,3.67,3.67,0,0,1,1.13,1A5.15,5.15,0,0,1,37.32,23a6.06,6.06,0,0,1,.28,1.9,5.73,5.73,0,0,1-.28,1.82,5,5,0,0,1-.76,1.48,3.83,3.83,0,0,1-1.13,1,2.82,2.82,0,0,1-2.76,0,3.83,3.83,0,0,1-1.13-1,5,5,0,0,1-.76-1.48,5.73,5.73,0,0,1-.28-1.82,6.06,6.06,0,0,1,.28-1.9,5.15,5.15,0,0,1,.76-1.52,3.67,3.67,0,0,1,1.13-1A2.8,2.8,0,0,1,34.05,20.06Zm0,8.91a1.8,1.8,0,0,0,.84-.2,1.48,1.48,0,0,0,.62-.66,4.3,4.3,0,0,0,.4-1.24,11.93,11.93,0,0,0,.13-2,12.92,12.92,0,0,0-.13-2,5.27,5.27,0,0,0-.39-1.31,1.59,1.59,0,0,0-.63-.71,1.79,1.79,0,0,0-1.68,0,1.57,1.57,0,0,0-.62.71,4.54,4.54,0,0,0-.39,1.31,12.77,12.77,0,0,0-.14,2,11.79,11.79,0,0,0,.14,2,4,4,0,0,0,.39,1.24,1.43,1.43,0,0,0,.62.66A1.8,1.8,0,0,0,34.05,29Z"/><path class="cls-1" d="M42.62,20.06a2.8,2.8,0,0,1,1.38.37,3.67,3.67,0,0,1,1.13,1A5.15,5.15,0,0,1,45.89,23a6.06,6.06,0,0,1,.28,1.9,5.73,5.73,0,0,1-.28,1.82,5,5,0,0,1-.76,1.48,3.83,3.83,0,0,1-1.13,1,2.82,2.82,0,0,1-2.76,0,3.83,3.83,0,0,1-1.13-1,5,5,0,0,1-.76-1.48,5.73,5.73,0,0,1-.28-1.82,6.06,6.06,0,0,1,.28-1.9,5.15,5.15,0,0,1,.76-1.52,3.67,3.67,0,0,1,1.13-1A2.8,2.8,0,0,1,42.62,20.06Zm0,8.91a1.73,1.73,0,0,0,.83-.2,1.45,1.45,0,0,0,.63-.66,4,4,0,0,0,.39-1.24,10.8,10.8,0,0,0,.14-2,11.7,11.7,0,0,0-.14-2,4.54,4.54,0,0,0-.39-1.31,1.52,1.52,0,0,0-.62-.71,1.79,1.79,0,0,0-1.68,0,1.52,1.52,0,0,0-.62.71,4.54,4.54,0,0,0-.39,1.31,11.7,11.7,0,0,0-.14,2,10.8,10.8,0,0,0,.14,2,4,4,0,0,0,.39,1.24,1.38,1.38,0,0,0,.62.66A1.8,1.8,0,0,0,42.62,29Z"/><path class="cls-1" d="M51.91,21.37H49.68a7.56,7.56,0,0,0-.76,0,1.39,1.39,0,0,0-.47.13.76.76,0,0,0-.29.3,2.87,2.87,0,0,0-.24.52l-.18.47h-.45l.84-3.36h.48a.6.6,0,0,0,0,.18,1.41,1.41,0,0,0,0,.2.27.27,0,0,0,.18.27,2.3,2.3,0,0,0,.73.07H53v.24c-.27.6-.5,1.13-.7,1.59s-.39.88-.56,1.26l-.45,1.08-.41,1c-.14.34-.28.71-.43,1.1s-.32.83-.5,1.32-.26.65-.37.88a3.44,3.44,0,0,1-.3.53,1,1,0,0,1-.28.27.63.63,0,0,1-.3.07.46.46,0,0,1-.36-.16.49.49,0,0,1-.15-.33,1.62,1.62,0,0,1,0-.21,2.24,2.24,0,0,1,.09-.3c0-.12.11-.28.2-.49s.22-.45.37-.76.35-.7.59-1.15l.84-1.64Z"/><path class="cls-1" d="M57.3,26.45v-1H61v1Z"/><path class="cls-1" d="M67.72,28.25h2.39a2,2,0,0,0,.51-.06A.76.76,0,0,0,71,28a1.42,1.42,0,0,0,.3-.42,4,4,0,0,0,.26-.69H72l-.46,2.55H66V29c.91-.82,1.66-1.53,2.25-2.15a13.54,13.54,0,0,0,1.39-1.65,4.8,4.8,0,0,0,.69-1.35,4.13,4.13,0,0,0,.2-1.25,2.31,2.31,0,0,0-.44-1.48,1.49,1.49,0,0,0-1.2-.54,1.56,1.56,0,0,0-1.17.47,1.69,1.69,0,0,0-.45,1.22,1.45,1.45,0,0,0,.36,1,1.26,1.26,0,0,0,1,.38.7.7,0,0,1-.31.46,1,1,0,0,1-.62.18,1.56,1.56,0,0,1-.62-.13,1.51,1.51,0,0,1-.49-.38,1.78,1.78,0,0,1-.33-.57,2.36,2.36,0,0,1-.11-.72,2.23,2.23,0,0,1,.23-1,2.5,2.5,0,0,1,.62-.79,3.41,3.41,0,0,1,.94-.52,3.54,3.54,0,0,1,1.19-.19,3.32,3.32,0,0,1,1.16.19,2.75,2.75,0,0,1,.91.54,2.42,2.42,0,0,1,.6.82,2.59,2.59,0,0,1,.21,1,3.42,3.42,0,0,1-.33,1.46,6.48,6.48,0,0,1-.91,1.41,11.35,11.35,0,0,1-1.34,1.35c-.52.45-1.06.89-1.65,1.32Z"/><path class="cls-1" d="M77.05,20.06a2.8,2.8,0,0,1,1.38.37,3.67,3.67,0,0,1,1.13,1A5.15,5.15,0,0,1,80.32,23a6.06,6.06,0,0,1,.28,1.9,5.73,5.73,0,0,1-.28,1.82,5,5,0,0,1-.76,1.48,3.83,3.83,0,0,1-1.13,1,2.82,2.82,0,0,1-2.76,0,3.83,3.83,0,0,1-1.13-1,5,5,0,0,1-.76-1.48,5.73,5.73,0,0,1-.28-1.82,6.06,6.06,0,0,1,.28-1.9,5.15,5.15,0,0,1,.76-1.52,3.67,3.67,0,0,1,1.13-1A2.8,2.8,0,0,1,77.05,20.06Zm0,8.91a1.73,1.73,0,0,0,.83-.2,1.5,1.5,0,0,0,.63-.66,4,4,0,0,0,.39-1.24,11.79,11.79,0,0,0,.14-2,12.77,12.77,0,0,0-.14-2,4.54,4.54,0,0,0-.39-1.31,1.57,1.57,0,0,0-.62-.71,1.79,1.79,0,0,0-1.68,0,1.59,1.59,0,0,0-.63.71,5.27,5.27,0,0,0-.39,1.31,12.92,12.92,0,0,0-.13,2,11.93,11.93,0,0,0,.13,2,4.66,4.66,0,0,0,.39,1.24,1.45,1.45,0,0,0,.63.66A1.8,1.8,0,0,0,77.05,29Z"/><path class="cls-1" d="M84.64,27.48a4.91,4.91,0,0,0,0,.75.8.8,0,0,0,.17.44.66.66,0,0,0,.38.22,3.27,3.27,0,0,0,.65.08v.45H82.22V29a3.26,3.26,0,0,0,.64-.08.87.87,0,0,0,.39-.22.81.81,0,0,0,.18-.42,6.12,6.12,0,0,0,0-.69v-4.4c0-.47,0-.85,0-1.15a3.23,3.23,0,0,0,0-.6.42.42,0,0,0-.36-.33,5,5,0,0,0-.9-.06v-.45a7.08,7.08,0,0,0,1.24-.17,9,9,0,0,0,1.24-.34Z"/><path class="cls-1" d="M89,28.25h2.38a1.93,1.93,0,0,0,.51-.06.76.76,0,0,0,.38-.21,1.42,1.42,0,0,0,.3-.42,5,5,0,0,0,.27-.69h.44l-.46,2.55H87.28V29c.92-.82,1.67-1.53,2.25-2.15a13.54,13.54,0,0,0,1.39-1.65,4.86,4.86,0,0,0,.7-1.35,4.46,4.46,0,0,0,.19-1.25,2.31,2.31,0,0,0-.44-1.48,1.48,1.48,0,0,0-1.19-.54,1.56,1.56,0,0,0-1.17.47,1.69,1.69,0,0,0-.45,1.22,1.45,1.45,0,0,0,.35,1,1.28,1.28,0,0,0,1,.38.72.72,0,0,1-.32.46,1,1,0,0,1-.62.18,1.6,1.6,0,0,1-.62-.13,1.51,1.51,0,0,1-.49-.38,1.59,1.59,0,0,1-.32-.57,2.09,2.09,0,0,1-.12-.72,2.23,2.23,0,0,1,.23-1,2.5,2.5,0,0,1,.62-.79,3.33,3.33,0,0,1,1-.52,3.44,3.44,0,0,1,1.18-.19,3.32,3.32,0,0,1,1.16.19,2.75,2.75,0,0,1,.91.54,2.42,2.42,0,0,1,.6.82,2.59,2.59,0,0,1,.21,1,3.42,3.42,0,0,1-.33,1.46A6.13,6.13,0,0,1,92,25.52a11.35,11.35,0,0,1-1.34,1.35q-.77.68-1.65,1.32Z"/><path class="cls-1" d="M98.22,26.6h.44a2.92,2.92,0,0,0,.32,1,2.38,2.38,0,0,0,.59.74,2.48,2.48,0,0,0,.81.46,3,3,0,0,0,1,.16,2.17,2.17,0,0,0,1.41-.42,1.4,1.4,0,0,0,.51-1.14,1.42,1.42,0,0,0-.1-.55,1.5,1.5,0,0,0-.34-.49,3.21,3.21,0,0,0-.64-.46,10,10,0,0,0-1-.49,11.87,11.87,0,0,1-1.24-.62,3.74,3.74,0,0,1-.81-.63,1.86,1.86,0,0,1-.42-.69,2.37,2.37,0,0,1-.13-.83,2.61,2.61,0,0,1,.2-1,2.31,2.31,0,0,1,.56-.81,2.4,2.4,0,0,1,.85-.53,3.14,3.14,0,0,1,1.08-.19,2.84,2.84,0,0,1,1,.17,3.33,3.33,0,0,1,.93.54l.31-.54h.27l.14,2.39h-.45a3,3,0,0,0-.83-1.47,2,2,0,0,0-1.32-.48,1.83,1.83,0,0,0-1.16.36,1.21,1.21,0,0,0-.43,1,1.46,1.46,0,0,0,.09.52,1.41,1.41,0,0,0,.32.44,3,3,0,0,0,.56.42,7.51,7.51,0,0,0,.86.44,13.5,13.5,0,0,1,1.48.74,5.09,5.09,0,0,1,.94.68,2.15,2.15,0,0,1,.49.72,2.52,2.52,0,0,1,.14.85,2.54,2.54,0,0,1-.91,2,3.08,3.08,0,0,1-1,.55,4,4,0,0,1-1.32.2,3.61,3.61,0,0,1-1.23-.19A3.57,3.57,0,0,1,99,28.7l-.34.59H98.4Z"/><path class="cls-1" d="M109.45,25.35v-.49c0-1-.42-1.46-1.25-1.46a1.75,1.75,0,0,0-.35,0,.9.9,0,0,0-.24.12.84.84,0,0,0-.17.25,3,3,0,0,0-.15.38,1.39,1.39,0,0,1-.26.46.51.51,0,0,1-.37.12.54.54,0,0,1-.6-.61,1,1,0,0,1,.62-.89,3.82,3.82,0,0,1,1.74-.32,2.67,2.67,0,0,1,1.7.43,1.77,1.77,0,0,1,.5,1.44V27.5c0,.92.18,1.37.54,1.37a1.19,1.19,0,0,0,.33,0,.45.45,0,0,0,.26-.22l.17.28a1.13,1.13,0,0,1-.53.47,1.84,1.84,0,0,1-.8.18.94.94,0,0,1-.79-.33,1.55,1.55,0,0,1-.26-.95h-.06a2.33,2.33,0,0,1-.86.93,2.27,2.27,0,0,1-1.22.34,1.75,1.75,0,0,1-1.19-.38,1.32,1.32,0,0,1-.43-1,1.49,1.49,0,0,1,.1-.55,1.67,1.67,0,0,1,.33-.5,2.78,2.78,0,0,1,.6-.47,6.85,6.85,0,0,1,.91-.48Zm0,.52a11.13,11.13,0,0,0-1.16.52,3.45,3.45,0,0,0-.76.5,2,2,0,0,0-.42.5,1.2,1.2,0,0,0-.12.52.89.89,0,0,0,.26.65,1,1,0,0,0,.7.25,1.08,1.08,0,0,0,.58-.16,1.44,1.44,0,0,0,.47-.42,2,2,0,0,0,.33-.64,2.43,2.43,0,0,0,.12-.77Z"/><path class="cls-1" d="M114.42,27.55a7,7,0,0,0,0,.73,1,1,0,0,0,.15.44.63.63,0,0,0,.33.21,2,2,0,0,0,.55.07v.42h-3.31V29a1.84,1.84,0,0,0,.58-.08.72.72,0,0,0,.34-.2.91.91,0,0,0,.17-.41,4.12,4.12,0,0,0,0-.68V22.46c0-.43,0-.79,0-1.08a4.62,4.62,0,0,0,0-.6.5.5,0,0,0-.28-.37,2.37,2.37,0,0,0-.8-.1v-.4l2.27-.45Z"/><path class="cls-1" d="M118.44,28.25l.52.05.48,0,.47.06.51.07a2.44,2.44,0,0,1,1.38.67,1.83,1.83,0,0,1,.52,1.34,1.7,1.7,0,0,1-.8,1.53,4.1,4.1,0,0,1-2.3.53,5.83,5.83,0,0,1-1.23-.12,3.37,3.37,0,0,1-1-.34,1.91,1.91,0,0,1-.62-.53,1.23,1.23,0,0,1-.22-.69,1.45,1.45,0,0,1,.08-.47,1.54,1.54,0,0,1,.23-.37,1,1,0,0,1,.35-.26.86.86,0,0,1,.41-.1,1.16,1.16,0,0,1,.73.26.83.83,0,0,0-.53.35,1.1,1.1,0,0,0-.2.64.9.9,0,0,0,.52.82,3.14,3.14,0,0,0,1.48.28c1.37,0,2.06-.42,2.06-1.25A1,1,0,0,0,121,30a1.29,1.29,0,0,0-.77-.38l-.59-.08-.6-.08-.55-.06a3.09,3.09,0,0,1-.4-.05,1.84,1.84,0,0,1-1-.35,1,1,0,0,1-.35-.8,1,1,0,0,1,.35-.74,1.61,1.61,0,0,1,.87-.41V27a1.66,1.66,0,0,1-.49-.3,2.38,2.38,0,0,1-.39-.45,2.53,2.53,0,0,1-.26-.55,2,2,0,0,1-.09-.61,2,2,0,0,1,.66-1.5,2.34,2.34,0,0,1,.75-.45,2.87,2.87,0,0,1,1-.16,3.32,3.32,0,0,1,1,.16,2.22,2.22,0,0,1,.8.48,3.41,3.41,0,0,1,.72-.49,1.36,1.36,0,0,1,.59-.15,1.11,1.11,0,0,1,.69.2.64.64,0,0,1,.26.53A.42.42,0,0,1,123,24a.5.5,0,0,1-.34.12.55.55,0,0,1-.28-.06,1.37,1.37,0,0,1-.2-.13l-.18-.12a.48.48,0,0,0-.24-.06,1,1,0,0,0-.59.2,2,2,0,0,1,.29,1.12,2.08,2.08,0,0,1-.64,1.6,3.12,3.12,0,0,1-1.91.68,5.34,5.34,0,0,0-1,.15c-.19.07-.29.18-.29.35a.3.3,0,0,0,.22.28A2.07,2.07,0,0,0,118.44,28.25Zm.66-1.41a.88.88,0,0,0,.78-.45,2.47,2.47,0,0,0,.28-1.29,2.35,2.35,0,0,0-.28-1.26.89.89,0,0,0-.8-.45,1,1,0,0,0-.82.45,2.76,2.76,0,0,0,0,2.52A1,1,0,0,0,119.1,26.84Z"/><path class="cls-1" d="M124,29.42h-.27V27.36h.3c.32,1.13.88,1.69,1.71,1.69a1.19,1.19,0,0,0,.76-.23.89.89,0,0,0,.28-.72.85.85,0,0,0,0-.3.94.94,0,0,0-.21-.27,3.84,3.84,0,0,0-.42-.31c-.18-.13-.42-.28-.71-.46l-.71-.47a2.75,2.75,0,0,1-.5-.44,1.42,1.42,0,0,1-.31-.47,1.55,1.55,0,0,1-.1-.59,2,2,0,0,1,.14-.75,1.54,1.54,0,0,1,.38-.58,1.68,1.68,0,0,1,.56-.38,1.83,1.83,0,0,1,.71-.14,2.34,2.34,0,0,1,.67.11,2.24,2.24,0,0,1,.61.26l.24-.25h.23v1.73H127a2.88,2.88,0,0,0-.58-1,1,1,0,0,0-.77-.32,1,1,0,0,0-.65.22.79.79,0,0,0-.25.6.87.87,0,0,0,.07.35.82.82,0,0,0,.21.3,3.19,3.19,0,0,0,.37.29,6.27,6.27,0,0,0,.53.34c.34.22.64.41.88.58a3.52,3.52,0,0,1,.6.5,1.59,1.59,0,0,1,.33.51,1.64,1.64,0,0,1,.11.6,1.73,1.73,0,0,1-.55,1.34,2.13,2.13,0,0,1-1.45.48,2.47,2.47,0,0,1-1.61-.54Z"/><path class="cls-1" d="M132.62,29a3.37,3.37,0,0,0,.55,0c.09,0,.15-.06.15-.1a1.23,1.23,0,0,0-.2-.35,7.39,7.39,0,0,0-.47-.6l-1.27-1.53-.44.42v.7a4.94,4.94,0,0,0,0,.75,1,1,0,0,0,.16.45.53.53,0,0,0,.33.22,2.3,2.3,0,0,0,.58.07v.42h-3.4V29a2.24,2.24,0,0,0,.58-.07.69.69,0,0,0,.35-.21,1,1,0,0,0,.17-.42,4.3,4.3,0,0,0,.05-.7v-5c0-.61,0-1.07,0-1.38a1.31,1.31,0,0,0-.13-.64.45.45,0,0,0-.35-.19,6.13,6.13,0,0,0-.68,0v-.41l2.32-.46v6.59L132.05,25l.81-.8c.17-.17.26-.3.26-.39s-.08-.16-.25-.21a2.65,2.65,0,0,0-.72-.08v-.42h3.12v.42a2.21,2.21,0,0,0-.39,0,.85.85,0,0,0-.32.09,2.36,2.36,0,0,0-.32.2,4.32,4.32,0,0,0-.38.32l-1.73,1.53,2.37,2.69a2.56,2.56,0,0,0,.31.33,1,1,0,0,0,.28.2,1,1,0,0,0,.29.1,2.21,2.21,0,0,0,.39,0v.42h-3.15Z"/><path class="cls-1" d="M139.3,22.94a3.34,3.34,0,0,1,1.3.25,3.31,3.31,0,0,1,1.07.68,3.12,3.12,0,0,1,.73,1,3,3,0,0,1,.27,1.3,3.26,3.26,0,0,1-1,2.4,3.36,3.36,0,0,1-2.37.95A3.46,3.46,0,0,1,138,29.3a3.59,3.59,0,0,1-1.06-.69,3.43,3.43,0,0,1-.72-1.06,3.58,3.58,0,0,1-.26-1.36,3.28,3.28,0,0,1,.26-1.3,3.34,3.34,0,0,1,.72-1,3.53,3.53,0,0,1,1.06-.67A3.46,3.46,0,0,1,139.3,22.94Zm0,.58a1.73,1.73,0,0,0-.81.19,1.8,1.8,0,0,0-.62.55,2.79,2.79,0,0,0-.4.85,4.2,4.2,0,0,0-.13,1.1,4.44,4.44,0,0,0,.13,1.13,2.79,2.79,0,0,0,.4.85,1.8,1.8,0,0,0,.62.55,1.67,1.67,0,0,0,.81.19,1.75,1.75,0,0,0,.83-.19,1.86,1.86,0,0,0,.64-.55,2.69,2.69,0,0,0,.4-.87,3.87,3.87,0,0,0,.15-1.11,3.8,3.8,0,0,0-.15-1.1,2.72,2.72,0,0,0-.4-.84,1.86,1.86,0,0,0-.64-.55A1.76,1.76,0,0,0,139.3,23.52Z"/><path class="cls-1" d="M145.84,27.54a7.51,7.51,0,0,0,0,.77.81.81,0,0,0,.12.43.49.49,0,0,0,.3.2,3.11,3.11,0,0,0,.55.07v.41h-3.15V29a3,3,0,0,0,.54-.07.53.53,0,0,0,.31-.19.86.86,0,0,0,.13-.41,6.57,6.57,0,0,0,0-.72V26a11.33,11.33,0,0,0-.07-1.74.79.79,0,0,0-.09-.26.41.41,0,0,0-.16-.16,1,1,0,0,0-.28-.07l-.43,0V23.4l1.92-.46.14,1.19h.05a3.29,3.29,0,0,1,1.07-.87,2.87,2.87,0,0,1,1.33-.32,2.71,2.71,0,0,1,1,.18,1.63,1.63,0,0,1,.7.49,1.81,1.81,0,0,1,.28.72,6.23,6.23,0,0,1,.09,1.2v2a7.51,7.51,0,0,0,0,.77.91.91,0,0,0,.13.43.44.44,0,0,0,.29.2,3,3,0,0,0,.52.07v.41h-3.11V29a2.45,2.45,0,0,0,.54-.06.54.54,0,0,0,.3-.2,1,1,0,0,0,.13-.41,6.83,6.83,0,0,0,0-.72V26a7.44,7.44,0,0,0-.07-1.15,2.19,2.19,0,0,0-.24-.76.92.92,0,0,0-.42-.41,1.41,1.41,0,0,0-.64-.13,1.81,1.81,0,0,0-1,.28,2,2,0,0,0-.7.78,1.15,1.15,0,0,0-.1.23,1.26,1.26,0,0,0-.07.25,2.68,2.68,0,0,0,0,.33c0,.12,0,.28,0,.47Z"/><path class="cls-1" d="M152.55,29.42h-.26V27.36h.3c.31,1.13.88,1.69,1.7,1.69a1.19,1.19,0,0,0,.76-.23.89.89,0,0,0,.29-.72.67.67,0,0,0-.06-.3.75.75,0,0,0-.2-.27,3.84,3.84,0,0,0-.42-.31c-.18-.13-.42-.28-.72-.46l-.71-.47a3.65,3.65,0,0,1-.5-.44,1.42,1.42,0,0,1-.31-.47,1.78,1.78,0,0,1-.1-.59,2,2,0,0,1,.14-.75,1.67,1.67,0,0,1,.38-.58,1.79,1.79,0,0,1,.56-.38,1.87,1.87,0,0,1,.71-.14,2.29,2.29,0,0,1,.67.11,2.18,2.18,0,0,1,.62.26l.24-.25h.22v1.73h-.31a2.88,2.88,0,0,0-.57-1,1.06,1.06,0,0,0-.77-.32,1,1,0,0,0-.66.22.78.78,0,0,0-.24.6.88.88,0,0,0,.06.35,1.17,1.17,0,0,0,.21.3,3.19,3.19,0,0,0,.37.29c.15.1.32.22.53.34l.89.58a3.42,3.42,0,0,1,.59.5,1.82,1.82,0,0,1,.34.51,1.64,1.64,0,0,1,.1.6,1.69,1.69,0,0,1-.55,1.34,2.13,2.13,0,0,1-1.45.48,2.49,2.49,0,0,1-1.61-.54Z"/><path class="cls-1" d="M162.52,25c0-.33,0-.58,0-.77a.91.91,0,0,0-.13-.43.55.55,0,0,0-.3-.21l-.54-.09v-.42h2.17v3.69c0,.45,0,.82,0,1.11a6.41,6.41,0,0,0,.05.65.73.73,0,0,0,.08.25.37.37,0,0,0,.16.14.72.72,0,0,0,.28.07l.45,0v.42l-2,.14-.13-1.44h0a3,3,0,0,1-1.05,1.09,2.41,2.41,0,0,1-1.24.34,2.55,2.55,0,0,1-1-.19,1.51,1.51,0,0,1-1-1.25,6.57,6.57,0,0,1-.09-1.21V25c0-.33,0-.58,0-.77a1.05,1.05,0,0,0-.12-.43.54.54,0,0,0-.31-.21l-.54-.09v-.42h2.17v3.28a4.22,4.22,0,0,0,.31,1.89,1,1,0,0,0,1,.59q1.07,0,1.65-1.38c0-.09.07-.18.1-.26a2,2,0,0,0,.05-.26,3,3,0,0,0,0-.33c0-.12,0-.26,0-.43Z"/><path class="cls-1" d="M167.51,27.55a6.62,6.62,0,0,0,0,.73.88.88,0,0,0,.15.44.6.6,0,0,0,.32.21,2.07,2.07,0,0,0,.56.07v.42h-3.31V29a1.84,1.84,0,0,0,.58-.08.72.72,0,0,0,.34-.2.91.91,0,0,0,.17-.41,5.63,5.63,0,0,0,0-.68V22.46c0-.43,0-.79,0-1.08a4.62,4.62,0,0,0,0-.6.5.5,0,0,0-.28-.37,2.37,2.37,0,0,0-.8-.1v-.4l2.26-.45Z"/><path class="cls-1" d="M175.17,28.31a3.16,3.16,0,0,1-2.53,1.23,3.37,3.37,0,0,1-1.29-.23,3.07,3.07,0,0,1-1-.66,3.15,3.15,0,0,1-.64-1,3.69,3.69,0,0,1-.23-1.32,3.76,3.76,0,0,1,.24-1.35,3.11,3.11,0,0,1,.68-1.07,3.07,3.07,0,0,1,1.05-.7,3.53,3.53,0,0,1,1.32-.25,2.44,2.44,0,0,1,1.8.63,2.41,2.41,0,0,1,.64,1.81c0,.11,0,.18-.07.2a.63.63,0,0,1-.3,0H170.9a1.2,1.2,0,0,0,0,.23,3,3,0,0,0,0,.31,4,4,0,0,0,.15,1.13,2.53,2.53,0,0,0,.43.87,2,2,0,0,0,.67.56,1.92,1.92,0,0,0,.87.2,2.13,2.13,0,0,0,.94-.22,3.29,3.29,0,0,0,.89-.73Zm-2-3.24.38,0a.57.57,0,0,0,.22,0,.21.21,0,0,0,.1-.11.72.72,0,0,0,0-.17,1.16,1.16,0,0,0-.35-.88,1.37,1.37,0,0,0-1-.33c-.86,0-1.4.51-1.61,1.55Z"/><path class="cls-1" d="M178.37,27.54a7.51,7.51,0,0,0,0,.77.92.92,0,0,0,.12.43.49.49,0,0,0,.3.2,3.24,3.24,0,0,0,.55.07v.41h-3.14V29a3,3,0,0,0,.53-.07.53.53,0,0,0,.31-.19.86.86,0,0,0,.13-.41,6.57,6.57,0,0,0,0-.72V26a11.33,11.33,0,0,0-.07-1.74.79.79,0,0,0-.09-.26.35.35,0,0,0-.16-.16.88.88,0,0,0-.28-.07l-.43,0V23.4l1.92-.46.15,1.19h0a3.29,3.29,0,0,1,1.07-.87,2.87,2.87,0,0,1,1.33-.32,2.71,2.71,0,0,1,1,.18,1.63,1.63,0,0,1,.7.49,2,2,0,0,1,.29.72,7.35,7.35,0,0,1,.08,1.2v2a7.51,7.51,0,0,0,0,.77.91.91,0,0,0,.13.43.44.44,0,0,0,.29.2,3,3,0,0,0,.52.07v.41h-3.11V29a2.37,2.37,0,0,0,.54-.06.54.54,0,0,0,.3-.2.86.86,0,0,0,.13-.41,6.83,6.83,0,0,0,0-.72V26a7.44,7.44,0,0,0-.07-1.15,2.19,2.19,0,0,0-.24-.76.92.92,0,0,0-.42-.41,1.41,1.41,0,0,0-.64-.13,1.81,1.81,0,0,0-1,.28,2,2,0,0,0-.7.78,2.29,2.29,0,0,0-.1.23,1.26,1.26,0,0,0-.07.25,2.68,2.68,0,0,0,0,.33c0,.12,0,.28,0,.47Z"/><path class="cls-1" d="M184.53,23.82v-.44a4.81,4.81,0,0,0,1-.75,2.52,2.52,0,0,0,.55-.89h.35v1.52H188v.56h-1.6v3.65a4.64,4.64,0,0,0,0,.7,1.31,1.31,0,0,0,.14.47.49.49,0,0,0,.25.24.87.87,0,0,0,.39.08,1,1,0,0,0,.51-.13,1.57,1.57,0,0,0,.42-.43l.3.23a1.29,1.29,0,0,1-.58.68,2,2,0,0,1-1,.23,1.75,1.75,0,0,1-1.21-.37,1.44,1.44,0,0,1-.41-1.09V23.82Z"/><path class="cls-1" d="M30.46,107.65a3.69,3.69,0,0,0-1.64-.39,3.77,3.77,0,0,0-1.9.5,3.58,3.58,0,0,0-1.36,1.37,3.9,3.9,0,0,0,0,3.82,3.68,3.68,0,0,0,1.36,1.38,3.77,3.77,0,0,0,1.9.5,4.07,4.07,0,0,0,1.61-.35,4.55,4.55,0,0,0,1.43-1l1.27,1.41a6.67,6.67,0,0,1-2.05,1.42,5.89,5.89,0,0,1-5.33-.25A5.64,5.64,0,0,1,23.64,114a5.71,5.71,0,0,1-.77-2.92,5.48,5.48,0,0,1,.79-2.91,5.65,5.65,0,0,1,2.13-2.07,6.2,6.2,0,0,1,5.35-.27,5.81,5.81,0,0,1,2,1.33l-1.25,1.57A4.06,4.06,0,0,0,30.46,107.65Z"/><path class="cls-1" d="M38.06,108.5a3.51,3.51,0,0,1,1.74-.45v2a2.85,2.85,0,0,0-2.12.62,2.36,2.36,0,0,0-.79,1.88v4.13H34.81v-8.56h2.08v1.64A3.2,3.2,0,0,1,38.06,108.5Z"/><path class="cls-1" d="M47.9,109.23a4.78,4.78,0,0,1,1,3.28c0,.28,0,.49,0,.62H42.6a2.39,2.39,0,0,0,2.45,2,3.32,3.32,0,0,0,1.25-.25,3.15,3.15,0,0,0,1.05-.71l1.12,1.17a4.24,4.24,0,0,1-1.56,1.08,5.15,5.15,0,0,1-2,.39,4.7,4.7,0,0,1-2.31-.55A3.72,3.72,0,0,1,41,114.69a4.5,4.5,0,0,1-.55-2.26,4.68,4.68,0,0,1,.55-2.27,3.89,3.89,0,0,1,1.55-1.54,4.52,4.52,0,0,1,2.25-.56A3.87,3.87,0,0,1,47.9,109.23ZM47,111.74a2.07,2.07,0,0,0-.62-1.5,2.22,2.22,0,0,0-1.57-.56,2.2,2.2,0,0,0-1.53.55,2.46,2.46,0,0,0-.76,1.51Z"/><path class="cls-1" d="M55.78,116.69v-1a2.84,2.84,0,0,1-1.15.85,4.28,4.28,0,0,1-1.61.28,3.44,3.44,0,0,1-1.58-.34A2.51,2.51,0,0,1,50,114.13a2.29,2.29,0,0,1,.85-1.88,3.79,3.79,0,0,1,2.4-.7h2.5v-.22a1.45,1.45,0,0,0-.5-1.17,2.17,2.17,0,0,0-1.44-.42,5,5,0,0,0-2.54.8l-.75-1.44a9.19,9.19,0,0,1,1.83-.8,6.55,6.55,0,0,1,1.93-.25,3.76,3.76,0,0,1,2.58.8,2.86,2.86,0,0,1,.94,2.24v5.6Zm-.73-1.93a1.5,1.5,0,0,0,.72-1.05v-.77H53.61a2.43,2.43,0,0,0-1.23.25A.9.9,0,0,0,52,114a1,1,0,0,0,.41.86,1.71,1.71,0,0,0,1.11.32A2.75,2.75,0,0,0,55.05,114.76Z"/><path class="cls-1" d="M64,109.87a4.06,4.06,0,0,0-1.22-.21,1.58,1.58,0,0,0-.84.19.61.61,0,0,0-.31.57A.67.67,0,0,0,62,111a6.38,6.38,0,0,0,1.24.46,12.37,12.37,0,0,1,1.47.53,2.81,2.81,0,0,1,1,.79,2.09,2.09,0,0,1,.42,1.36,2.18,2.18,0,0,1-1,1.92,4.08,4.08,0,0,1-2.41.68,6.4,6.4,0,0,1-1.94-.31,4.68,4.68,0,0,1-1.6-.89l.72-1.46a4.31,4.31,0,0,0,1.38.78,4.76,4.76,0,0,0,1.52.28,1.87,1.87,0,0,0,.92-.2.66.66,0,0,0,.34-.6.73.73,0,0,0-.4-.68,7.73,7.73,0,0,0-1.29-.49,9.92,9.92,0,0,1-1.41-.51,2.51,2.51,0,0,1-.95-.75,2.08,2.08,0,0,1-.4-1.32,2.25,2.25,0,0,1,.92-1.93,3.9,3.9,0,0,1,2.32-.66,6,6,0,0,1,1.67.24,5,5,0,0,1,1.46.67l-.75,1.51A5.94,5.94,0,0,0,64,109.87Z"/><path class="cls-1" d="M69.75,104.8a1.21,1.21,0,0,1,.34.89,1.22,1.22,0,0,1-.34.89,1.2,1.2,0,0,1-1.69,0,1.22,1.22,0,0,1-.34-.89,1.21,1.21,0,0,1,.34-.89,1.2,1.2,0,0,1,1.69,0Zm-1.87,3.33H70v8.56H67.88Z"/><path class="cls-1" d="M80.36,108.13v7.74a4,4,0,0,1-.55,2.12,3.61,3.61,0,0,1-1.57,1.39,5.32,5.32,0,0,1-2.36.49,6.29,6.29,0,0,1-3.62-1.14l.84-1.5a4.39,4.39,0,0,0,2.67.9,2.7,2.7,0,0,0,1.83-.59,2.06,2.06,0,0,0,.68-1.62v-1a2.84,2.84,0,0,1-1.12,1,3.52,3.52,0,0,1-1.6.35,3.71,3.71,0,0,1-2-.53,3.5,3.5,0,0,1-1.35-1.45,4.66,4.66,0,0,1-.48-2.15,4.51,4.51,0,0,1,.48-2.12,3.45,3.45,0,0,1,1.35-1.43,3.7,3.7,0,0,1,2-.52,3.39,3.39,0,0,1,1.59.36,2.85,2.85,0,0,1,1.13,1v-1.28Zm-2.71,5.81a2.79,2.79,0,0,0,0-3.53,2.31,2.31,0,0,0-3.28,0,2.71,2.71,0,0,0,0,3.52,2.32,2.32,0,0,0,3.28,0Z"/><path class="cls-1" d="M90.28,108.93a3.35,3.35,0,0,1,.85,2.41v5.35H89V112a1.91,1.91,0,0,0-.51-1.41,1.86,1.86,0,0,0-1.39-.53,2.13,2.13,0,0,0-1.64.71,2.57,2.57,0,0,0-.6,1.76v4.21H82.81v-8.56h2.08v1.6A3.23,3.23,0,0,1,88,108.05,3.07,3.07,0,0,1,90.28,108.93Z"/><path class="cls-1" d="M24.73,129.91h2.39a2.41,2.41,0,0,0,.5,0,1,1,0,0,0,.38-.21,1.27,1.27,0,0,0,.3-.43,5,5,0,0,0,.27-.69H29l-.45,2.56H23v-.4c.91-.81,1.66-1.53,2.25-2.14a13.35,13.35,0,0,0,1.38-1.65,5.15,5.15,0,0,0,.7-1.35,4.12,4.12,0,0,0,.19-1.25,2.29,2.29,0,0,0-.44-1.48,1.45,1.45,0,0,0-1.19-.54,1.52,1.52,0,0,0-1.17.47,1.66,1.66,0,0,0-.45,1.21,1.49,1.49,0,0,0,.35,1,1.25,1.25,0,0,0,1,.39.77.77,0,0,1-.31.46,1.14,1.14,0,0,1-.63.17,1.44,1.44,0,0,1-.62-.13,1.55,1.55,0,0,1-.81-.94,2.15,2.15,0,0,1-.12-.73,2.19,2.19,0,0,1,.23-1,2.3,2.3,0,0,1,.63-.79,2.94,2.94,0,0,1,.94-.52,3.48,3.48,0,0,1,1.18-.19,3.32,3.32,0,0,1,1.16.19,2.8,2.8,0,0,1,.92.54,2.42,2.42,0,0,1,.59.82,2.56,2.56,0,0,1,.21,1,3.48,3.48,0,0,1-.33,1.46,6.3,6.3,0,0,1-.91,1.4,12.2,12.2,0,0,1-1.34,1.36c-.51.44-1.06.88-1.64,1.31Z"/><path class="cls-1" d="M34.05,121.73a2.7,2.7,0,0,1,1.38.37,3.76,3.76,0,0,1,1.13,1,5.28,5.28,0,0,1,.76,1.52,6.15,6.15,0,0,1,.28,1.9,5.64,5.64,0,0,1-.28,1.82,5,5,0,0,1-.76,1.48,3.69,3.69,0,0,1-1.13,1,2.76,2.76,0,0,1-2.76,0,3.69,3.69,0,0,1-1.13-1,5,5,0,0,1-.76-1.48,5.64,5.64,0,0,1-.28-1.82,6.15,6.15,0,0,1,.28-1.9,5.28,5.28,0,0,1,.76-1.52,3.76,3.76,0,0,1,1.13-1A2.7,2.7,0,0,1,34.05,121.73Zm0,8.9a1.79,1.79,0,0,0,.84-.19,1.59,1.59,0,0,0,.62-.66,4.37,4.37,0,0,0,.4-1.25,11.85,11.85,0,0,0,.13-2,12.78,12.78,0,0,0-.13-2,5.23,5.23,0,0,0-.39-1.32,1.64,1.64,0,0,0-.63-.71,1.78,1.78,0,0,0-1.68,0,1.63,1.63,0,0,0-.62.71,4.52,4.52,0,0,0-.39,1.32,12.64,12.64,0,0,0-.14,2,11.71,11.71,0,0,0,.14,2,4.1,4.1,0,0,0,.39,1.25,1.53,1.53,0,0,0,.62.66A1.79,1.79,0,0,0,34.05,130.63Z"/><path class="cls-1" d="M41.65,129.14a4.94,4.94,0,0,0,0,.75,1,1,0,0,0,.17.45.75.75,0,0,0,.38.22,3.5,3.5,0,0,0,.66.07v.46H39.22v-.46a2.73,2.73,0,0,0,.65-.08.74.74,0,0,0,.38-.21.81.81,0,0,0,.18-.42,4.41,4.41,0,0,0,0-.69v-5.56a3.11,3.11,0,0,0,0-.6.41.41,0,0,0-.36-.32,5,5,0,0,0-.9-.06v-.46a7.13,7.13,0,0,0,1.25-.16,11.22,11.22,0,0,0,1.24-.34Z"/><path class="cls-1" d="M46.06,125.3l0,0a1.48,1.48,0,0,1,.53-.22,2.72,2.72,0,0,1,.69-.09,2.38,2.38,0,0,1,1,.21,2.34,2.34,0,0,1,.78.58,2.66,2.66,0,0,1,.52.88,3.07,3.07,0,0,1,.2,1.1,3.34,3.34,0,0,1-.27,1.34,3.38,3.38,0,0,1-.75,1.08,3.49,3.49,0,0,1-1.11.72,3.55,3.55,0,0,1-1.39.27,3.14,3.14,0,0,1-.94-.13,2.46,2.46,0,0,1-.73-.34,1.57,1.57,0,0,1-.48-.52,1.32,1.32,0,0,1-.18-.67.76.76,0,0,1,.15-.5.52.52,0,0,1,.43-.18.5.5,0,0,1,.38.13.86.86,0,0,1,.19.34,4.34,4.34,0,0,1,.14.43,1.55,1.55,0,0,0,.17.44,1,1,0,0,0,.32.34,1.2,1.2,0,0,0,.59.13,1.7,1.7,0,0,0,.84-.22,1.9,1.9,0,0,0,.62-.64,3.26,3.26,0,0,0,.39-1,5.69,5.69,0,0,0,.14-1.3A3.16,3.16,0,0,0,48,126a1,1,0,0,0-1-.48,1.23,1.23,0,0,0-.82.27,2,2,0,0,0-.52.87.81.81,0,0,1-.13.28.21.21,0,0,1-.16.06c-.17,0-.26-.08-.26-.24a.31.31,0,0,1,0-.1l1.28-5a3.27,3.27,0,0,0,.6.16,6.27,6.27,0,0,0,.81,0,4.07,4.07,0,0,0,1.59-.22h.08a1.74,1.74,0,0,1-.63,1,2,2,0,0,1-1.25.37h-1Z"/><path class="cls-1" d="M54.87,128.11v-1h3.71v1Z"/><path class="cls-1" d="M65.3,129.91h2.39a2.41,2.41,0,0,0,.5,0,1,1,0,0,0,.39-.21,1.63,1.63,0,0,0,.3-.43,6.93,6.93,0,0,0,.26-.69h.44l-.45,2.56H63.55v-.4c.91-.81,1.66-1.53,2.25-2.14a12.52,12.52,0,0,0,1.38-1.65,5.15,5.15,0,0,0,.7-1.35,4.12,4.12,0,0,0,.19-1.25,2.23,2.23,0,0,0-.44-1.48,1.45,1.45,0,0,0-1.19-.54,1.52,1.52,0,0,0-1.17.47,1.66,1.66,0,0,0-.45,1.21,1.49,1.49,0,0,0,.35,1,1.25,1.25,0,0,0,1,.39.73.73,0,0,1-.31.46,1.14,1.14,0,0,1-.63.17,1.36,1.36,0,0,1-.61-.13,1.52,1.52,0,0,1-.5-.37,1.76,1.76,0,0,1-.32-.57,2.15,2.15,0,0,1-.11-.73,2.18,2.18,0,0,1,.22-1,2.42,2.42,0,0,1,.63-.79,3,3,0,0,1,.94-.52,3.48,3.48,0,0,1,1.18-.19,3.38,3.38,0,0,1,1.17.19,2.85,2.85,0,0,1,.91.54,2.42,2.42,0,0,1,.59.82,2.56,2.56,0,0,1,.21,1,3.48,3.48,0,0,1-.33,1.46,6.61,6.61,0,0,1-.9,1.4,13.28,13.28,0,0,1-1.35,1.36c-.51.44-1.06.88-1.64,1.31Z"/><path class="cls-1" d="M74.62,121.73a2.7,2.7,0,0,1,1.38.37,3.65,3.65,0,0,1,1.13,1,5,5,0,0,1,.76,1.52,6.15,6.15,0,0,1,.29,1.9,5.65,5.65,0,0,1-.29,1.82,4.81,4.81,0,0,1-.76,1.48,3.58,3.58,0,0,1-1.13,1,2.7,2.7,0,0,1-1.38.37,2.75,2.75,0,0,1-1.38-.37,3.66,3.66,0,0,1-1.12-1,5.06,5.06,0,0,1-.77-1.48,5.93,5.93,0,0,1-.28-1.82,6.46,6.46,0,0,1,.28-1.9,5.3,5.3,0,0,1,.77-1.52,3.73,3.73,0,0,1,1.12-1A2.75,2.75,0,0,1,74.62,121.73Zm0,8.9a1.76,1.76,0,0,0,.84-.19,1.59,1.59,0,0,0,.62-.66,4.08,4.08,0,0,0,.4-1.25,11.71,11.71,0,0,0,.14-2,12.64,12.64,0,0,0-.14-2,4.52,4.52,0,0,0-.39-1.32,1.54,1.54,0,0,0-1.47-.92,1.51,1.51,0,0,0-1.46.92,4.52,4.52,0,0,0-.39,1.32,12.64,12.64,0,0,0-.14,2,11.71,11.71,0,0,0,.14,2,4.1,4.1,0,0,0,.39,1.25,1.59,1.59,0,0,0,.62.66A1.79,1.79,0,0,0,74.62,130.63Z"/><path class="cls-1" d="M82.22,129.14a4.94,4.94,0,0,0,0,.75.93.93,0,0,0,.18.45.68.68,0,0,0,.37.22,3.6,3.6,0,0,0,.66.07v.46H79.8v-.46a2.71,2.71,0,0,0,.64-.08.74.74,0,0,0,.38-.21.81.81,0,0,0,.18-.42,4.41,4.41,0,0,0,0-.69v-5.56a4.86,4.86,0,0,0,0-.6.41.41,0,0,0-.36-.32,5,5,0,0,0-.9-.06v-.46a7.15,7.15,0,0,0,1.24-.16,11.22,11.22,0,0,0,1.24-.34Z"/><path class="cls-1" d="M89.26,123H87l-.75,0a1.31,1.31,0,0,0-.47.14.76.76,0,0,0-.3.29,4.13,4.13,0,0,0-.23.53l-.18.47h-.46l.84-3.36H86a1.39,1.39,0,0,0,0,.17,1.48,1.48,0,0,0,0,.2.26.26,0,0,0,.18.27,2.21,2.21,0,0,0,.73.08h3.51v.24c-.26.6-.49,1.13-.7,1.59s-.39.88-.55,1.26L88.64,126l-.41,1c-.14.35-.29.71-.44,1.1s-.31.84-.49,1.33-.26.65-.37.87a3.39,3.39,0,0,1-.31.53.7.7,0,0,1-.28.27.6.6,0,0,1-.29.08.51.51,0,0,1-.37-.16.49.49,0,0,1-.15-.33,1.49,1.49,0,0,1,0-.21,1.7,1.7,0,0,1,.08-.3c.05-.13.12-.29.21-.49s.21-.46.37-.77l.58-1.15.84-1.63Z"/><path class="cls-1" d="M94.42,128.27h.45a2.77,2.77,0,0,0,.32,1,2.46,2.46,0,0,0,.58.73,2.63,2.63,0,0,0,.82.46,3,3,0,0,0,1,.16,2.14,2.14,0,0,0,1.41-.42,1.39,1.39,0,0,0,.51-1.13,1.47,1.47,0,0,0-.1-.56,1.37,1.37,0,0,0-.34-.48,3.11,3.11,0,0,0-.64-.46,9.78,9.78,0,0,0-1-.5,11.2,11.2,0,0,1-1.25-.62,3.9,3.9,0,0,1-.8-.62,2.07,2.07,0,0,1-.43-.7,2.64,2.64,0,0,1-.12-.83,2.44,2.44,0,0,1,.2-1,2.38,2.38,0,0,1,.55-.81,2.59,2.59,0,0,1,.86-.53,3.06,3.06,0,0,1,1.08-.18,2.84,2.84,0,0,1,1,.16,3.86,3.86,0,0,1,.92.54l.32-.54H100l.13,2.39h-.44a3.06,3.06,0,0,0-.83-1.46,2,2,0,0,0-1.32-.48,1.75,1.75,0,0,0-1.16.36,1.19,1.19,0,0,0-.43,1,1.42,1.42,0,0,0,.09.52,1.45,1.45,0,0,0,.31.45,3.51,3.51,0,0,0,.57.42,9.57,9.57,0,0,0,.86.44c.59.26,1.09.51,1.48.73a4.67,4.67,0,0,1,.93.69,1.88,1.88,0,0,1,.5.72,2.47,2.47,0,0,1,.14.84,2.57,2.57,0,0,1-.24,1.11,2.54,2.54,0,0,1-.67.86,3.1,3.1,0,0,1-1,.56,4.25,4.25,0,0,1-1.32.2,3.6,3.6,0,0,1-1.23-.2,3.53,3.53,0,0,1-1.11-.64l-.34.59H94.6Z"/><path class="cls-1" d="M105.64,130.67a3,3,0,0,0,.55,0q.15,0,.15-.09a.93.93,0,0,0-.19-.35c-.12-.17-.28-.37-.47-.6l-1.27-1.54-.45.42v.71a4.91,4.91,0,0,0,.05.75,1,1,0,0,0,.15.44.58.58,0,0,0,.34.22,2.7,2.7,0,0,0,.58.08v.42h-3.41v-.42a2.6,2.6,0,0,0,.58-.08.65.65,0,0,0,.35-.21,1,1,0,0,0,.18-.42,4.47,4.47,0,0,0,0-.7v-5c0-.6,0-1.06,0-1.38a1.49,1.49,0,0,0-.13-.63.47.47,0,0,0-.36-.2,5.94,5.94,0,0,0-.67,0v-.41l2.31-.45v6.59l1.12-1.1c.36-.36.63-.62.8-.8s.27-.3.27-.39-.09-.15-.25-.21a2.71,2.71,0,0,0-.72-.07v-.42h3.12v.42a2.36,2.36,0,0,0-.4,0,1.19,1.19,0,0,0-.32.1,1.49,1.49,0,0,0-.32.2l-.38.31-1.73,1.54,2.38,2.69.3.33a2.12,2.12,0,0,0,.28.2,1.32,1.32,0,0,0,.3.1,2.21,2.21,0,0,0,.39,0v.42h-3.16Z"/><path class="cls-1" d="M111.6,129.18a5.11,5.11,0,0,0,0,.75,1,1,0,0,0,.16.44.58.58,0,0,0,.34.22,2.5,2.5,0,0,0,.57.08v.42h-3.44v-.42a2.9,2.9,0,0,0,.59-.08.66.66,0,0,0,.35-.22.9.9,0,0,0,.17-.42,4.41,4.41,0,0,0,0-.69v-1.53c0-.47,0-.85,0-1.15a3.32,3.32,0,0,0-.06-.62.5.5,0,0,0-.28-.37,2.11,2.11,0,0,0-.82-.11v-.42l2.36-.45Zm-1.38-7a.74.74,0,1,1,1.27.53.75.75,0,0,1-1.06,0A.74.74,0,0,1,110.22,122.17Z"/><path class="cls-1" d="M115.46,129.22a4.9,4.9,0,0,0,0,.73.88.88,0,0,0,.15.43.57.57,0,0,0,.32.21,2.49,2.49,0,0,0,.56.08v.42h-3.31v-.42a2.5,2.5,0,0,0,.57-.08.68.68,0,0,0,.34-.21.77.77,0,0,0,.17-.4,4.27,4.27,0,0,0,0-.68v-5.17c0-.44,0-.8,0-1.09a3.8,3.8,0,0,0-.06-.59.49.49,0,0,0-.28-.38,2.4,2.4,0,0,0-.8-.09v-.41l2.27-.44Z"/><path class="cls-1" d="M117.33,125.48V125a5.18,5.18,0,0,0,1-.74,2.62,2.62,0,0,0,.55-.89h.35v1.51h1.61v.56h-1.61v3.65a4.78,4.78,0,0,0,0,.71,1.32,1.32,0,0,0,.14.46.55.55,0,0,0,.25.25,1.1,1.1,0,0,0,.4.07,1,1,0,0,0,.51-.13,1.37,1.37,0,0,0,.41-.42l.3.23a1.27,1.27,0,0,1-.58.67,2,2,0,0,1-1,.24,1.75,1.75,0,0,1-1.21-.38,1.41,1.41,0,0,1-.41-1.09v-4.26Z"/><path class="cls-1" d="M127.65,130a3.14,3.14,0,0,1-2.53,1.24,3.28,3.28,0,0,1-1.28-.24,2.61,2.61,0,0,1-1-.66,3,3,0,0,1-.65-1A3.64,3.64,0,0,1,122,128a3.78,3.78,0,0,1,.24-1.36,3.18,3.18,0,0,1,.67-1.07,3.3,3.3,0,0,1,1-.69,3.34,3.34,0,0,1,1.32-.25,2.44,2.44,0,0,1,1.8.63,2.4,2.4,0,0,1,.64,1.8c0,.12,0,.18-.07.21a.88.88,0,0,1-.3,0h-4a1.33,1.33,0,0,0,0,.24c0,.09,0,.19,0,.3a4,4,0,0,0,.15,1.14,2.72,2.72,0,0,0,.43.87,2,2,0,0,0,.68.55,1.8,1.8,0,0,0,.87.2,2,2,0,0,0,.93-.22,3.15,3.15,0,0,0,.89-.73Zm-2-3.24h.39a.81.81,0,0,0,.21,0,.19.19,0,0,0,.1-.1.82.82,0,0,0,0-.18,1.17,1.17,0,0,0-.35-.88,1.37,1.37,0,0,0-1-.33c-.86,0-1.4.52-1.61,1.55Z"/><path class="cls-1" d="M128.74,125.48V125a4.89,4.89,0,0,0,1-.74,2.62,2.62,0,0,0,.55-.89h.35v1.51h1.61v.56h-1.61v3.65a4.78,4.78,0,0,0,0,.71,1.32,1.32,0,0,0,.14.46.55.55,0,0,0,.25.25,1.15,1.15,0,0,0,.4.07.92.92,0,0,0,.51-.13,1.37,1.37,0,0,0,.41-.42l.3.23a1.23,1.23,0,0,1-.58.67,2,2,0,0,1-1,.24,1.73,1.73,0,0,1-1.2-.38,1.38,1.38,0,0,1-.42-1.09v-4.26Z"/><path class="cls-1" d="M139.06,130a3.14,3.14,0,0,1-2.53,1.24,3.28,3.28,0,0,1-1.28-.24,2.61,2.61,0,0,1-1-.66,3,3,0,0,1-.65-1,3.64,3.64,0,0,1-.22-1.31,3.78,3.78,0,0,1,.24-1.36,3.18,3.18,0,0,1,.67-1.07,3.3,3.3,0,0,1,1-.69,3.34,3.34,0,0,1,1.32-.25,2.44,2.44,0,0,1,1.8.63,2.4,2.4,0,0,1,.64,1.8c0,.12,0,.18-.06.21a1,1,0,0,1-.31,0h-4a1.33,1.33,0,0,0,0,.24c0,.09,0,.19,0,.3a4,4,0,0,0,.15,1.14,2.72,2.72,0,0,0,.43.87,2,2,0,0,0,.68.55,1.8,1.8,0,0,0,.87.2,2,2,0,0,0,.93-.22,3.15,3.15,0,0,0,.89-.73Zm-2-3.24h.39a.81.81,0,0,0,.21,0,.19.19,0,0,0,.1-.1.47.47,0,0,0,0-.18,1.17,1.17,0,0,0-.35-.88,1.37,1.37,0,0,0-1-.33c-.86,0-1.4.52-1.6,1.55Z"/><path class="cls-1" d="M143.85,130.67a3.07,3.07,0,0,0,.55,0q.15,0,.15-.09a1.12,1.12,0,0,0-.19-.35c-.13-.17-.28-.37-.47-.6l-1.28-1.54-.44.42v.71a5.11,5.11,0,0,0,0,.75,1,1,0,0,0,.16.44.56.56,0,0,0,.33.22,2.8,2.8,0,0,0,.59.08v.42h-3.41v-.42a2.7,2.7,0,0,0,.58-.08.69.69,0,0,0,.35-.21A1,1,0,0,0,141,130a4.3,4.3,0,0,0,.05-.7v-5c0-.6,0-1.06,0-1.38a1.38,1.38,0,0,0-.12-.63.48.48,0,0,0-.36-.2,6.06,6.06,0,0,0-.67,0v-.41l2.31-.45v6.59l1.12-1.1.8-.8q.27-.25.27-.39c0-.08-.09-.15-.26-.21a2.71,2.71,0,0,0-.72-.07v-.42h3.12v.42a2.3,2.3,0,0,0-.39,0,1.09,1.09,0,0,0-.32.1,1.28,1.28,0,0,0-.32.2l-.38.31-1.73,1.54,2.37,2.69.31.33a1.11,1.11,0,0,0,.58.3,2.13,2.13,0,0,0,.39,0v.42h-3.16Z"/><path class="cls-1" d="M149.66,129.2c0,.33,0,.59,0,.78a.91.91,0,0,0,.13.43.49.49,0,0,0,.3.2,4.27,4.27,0,0,0,.54.07v.41h-3.14v-.41a4.84,4.84,0,0,0,.54-.07.52.52,0,0,0,.3-.19.9.9,0,0,0,.14-.41,6.83,6.83,0,0,0,0-.72v-1.6a11.42,11.42,0,0,0-.07-1.74,2.56,2.56,0,0,0-.09-.26.36.36,0,0,0-.17-.15.67.67,0,0,0-.27-.07,2.69,2.69,0,0,0-.43,0v-.39l1.92-.45.14,1.19h0a3.22,3.22,0,0,1,1.07-.88,2.83,2.83,0,0,1,1.33-.31,2.75,2.75,0,0,1,1,.18,1.57,1.57,0,0,1,.69.49,1.59,1.59,0,0,1,.29.71,6.56,6.56,0,0,1,.08,1.21v2a7.36,7.36,0,0,0,0,.78,1.05,1.05,0,0,0,.12.43.47.47,0,0,0,.29.2,4.62,4.62,0,0,0,.53.07v.41h-3.11v-.41a2.27,2.27,0,0,0,.53-.07.49.49,0,0,0,.3-.19.91.91,0,0,0,.13-.42,6.37,6.37,0,0,0,0-.71V127.7a7.39,7.39,0,0,0-.08-1.15,2,2,0,0,0-.23-.75,1,1,0,0,0-.43-.42,1.48,1.48,0,0,0-.63-.12,1.88,1.88,0,0,0-1.69,1l-.11.23a.83.83,0,0,0-.06.25,3,3,0,0,0,0,.33c0,.13,0,.28,0,.47Z"/><path class="cls-1" d="M158.07,129.18a7,7,0,0,0,0,.75,1,1,0,0,0,.16.44.65.65,0,0,0,.34.22,2.6,2.6,0,0,0,.58.08v.42h-3.45v-.42a2.8,2.8,0,0,0,.59-.08.73.73,0,0,0,.36-.22.9.9,0,0,0,.16-.42,4.25,4.25,0,0,0,.05-.69v-1.53c0-.47,0-.85,0-1.15a4.12,4.12,0,0,0-.07-.62.49.49,0,0,0-.27-.37,2.14,2.14,0,0,0-.82-.11v-.42l2.35-.45Zm-1.38-7a.71.71,0,0,1,.22-.53.76.76,0,0,1,1.05,0,.75.75,0,0,1,0,1.06.74.74,0,0,1-1.05,0A.71.71,0,0,1,156.69,122.17Z"/><path class="cls-1" d="M163.6,130.67a3,3,0,0,0,.55,0q.15,0,.15-.09a.93.93,0,0,0-.19-.35c-.12-.17-.28-.37-.47-.6l-1.27-1.54-.45.42v.71a7,7,0,0,0,0,.75,1,1,0,0,0,.16.44.58.58,0,0,0,.34.22,2.6,2.6,0,0,0,.58.08v.42h-3.41v-.42a2.7,2.7,0,0,0,.58-.08.65.65,0,0,0,.35-.21,1,1,0,0,0,.17-.42,3.4,3.4,0,0,0,.05-.7v-5c0-.6,0-1.06,0-1.38a1.38,1.38,0,0,0-.12-.63.47.47,0,0,0-.36-.2,5.94,5.94,0,0,0-.67,0v-.41l2.31-.45v6.59l1.12-1.1.8-.8q.27-.25.27-.39c0-.08-.09-.15-.25-.21a2.75,2.75,0,0,0-.73-.07v-.42h3.12v.42a2.3,2.3,0,0,0-.39,0,1.19,1.19,0,0,0-.32.1,1.28,1.28,0,0,0-.32.2l-.38.31-1.73,1.54,2.38,2.69.3.33a1.62,1.62,0,0,0,.28.2,1.32,1.32,0,0,0,.3.1,2.21,2.21,0,0,0,.39,0v.42H163.6Z"/><path class="cls-1" d="M172.64,130a3.14,3.14,0,0,1-2.53,1.24,3.33,3.33,0,0,1-1.29-.24,2.78,2.78,0,0,1-1-.66,3,3,0,0,1-.64-1A3.64,3.64,0,0,1,167,128a3.78,3.78,0,0,1,.24-1.36,3.21,3.21,0,0,1,.68-1.07,3.26,3.26,0,0,1,1-.69,3.42,3.42,0,0,1,1.33-.25,2.21,2.21,0,0,1,2.44,2.43c0,.12,0,.18-.07.21a1,1,0,0,1-.31,0h-3.94a1.33,1.33,0,0,0,0,.24,2.81,2.81,0,0,0,0,.3,4,4,0,0,0,.15,1.14,2.53,2.53,0,0,0,.43.87,2,2,0,0,0,.67.55,1.8,1.8,0,0,0,.87.2,2,2,0,0,0,.94-.22,3.29,3.29,0,0,0,.89-.73Zm-2-3.24H171a.8.8,0,0,0,.22,0,.15.15,0,0,0,.09-.1.45.45,0,0,0,0-.18,1.15,1.15,0,0,0-.36-.88,1.33,1.33,0,0,0-1-.33c-.87,0-1.4.52-1.61,1.55Z"/><path class="cls-1" d="M175.92,129.18c0,.33,0,.59,0,.78a1.11,1.11,0,0,0,.12.44.48.48,0,0,0,.3.19,2.84,2.84,0,0,0,.54.08v.42h-3.19v-.42a2.47,2.47,0,0,0,.55-.07.56.56,0,0,0,.31-.2.82.82,0,0,0,.14-.41,6.91,6.91,0,0,0,0-.73v-1.4c0-.55,0-1,0-1.27a1.7,1.7,0,0,0-.12-.67.4.4,0,0,0-.32-.26,3,3,0,0,0-.6,0v-.42l2.1-.45.17,1.49H176a3,3,0,0,1,.9-1.17,2.35,2.35,0,0,1,.57-.33,1.67,1.67,0,0,1,.62-.12.91.91,0,0,1,.6.18.63.63,0,0,1,.23.5.59.59,0,0,1-.19.45.73.73,0,0,1-.51.16.82.82,0,0,1-.33-.05l-.23-.1-.19-.1a.46.46,0,0,0-.2-.05.88.88,0,0,0-.65.42,3,3,0,0,0-.5,1,4.15,4.15,0,0,0-.15.78,6.81,6.81,0,0,0-.05.92Z"/><path class="cls-1" d="M5.24,167.12a1.92,1.92,0,1,1-1.91-1.91A1.91,1.91,0,0,1,5.24,167.12Z"/><path class="cls-1" d="M28.41,166.27a3.59,3.59,0,0,1-2.63.95,4.29,4.29,0,0,1-3.45-1.68l1-1.6a4.59,4.59,0,0,0,1.19.92,2.59,2.59,0,0,0,1.19.33,1.4,1.4,0,0,0,1.1-.43,1.71,1.71,0,0,0,.39-1.21v-5.72H23.35v-1.91h6v7.68A3.61,3.61,0,0,1,28.41,166.27Z"/><path class="cls-1" d="M37.9,159a4,4,0,0,1,1.59,1.53,4.83,4.83,0,0,1,0,4.55,3.93,3.93,0,0,1-1.59,1.54,4.87,4.87,0,0,1-2.34.54,5,5,0,0,1-2.37-.54,3.93,3.93,0,0,1-1.59-1.54,4.83,4.83,0,0,1,0-4.55A4,4,0,0,1,33.19,159a5,5,0,0,1,2.37-.54A4.87,4.87,0,0,1,37.9,159Zm-4.1,2a2.6,2.6,0,0,0-.67,1.87,2.63,2.63,0,0,0,.67,1.87,2.47,2.47,0,0,0,3.49,0,2.63,2.63,0,0,0,.67-1.87,2.6,2.6,0,0,0-.67-1.87,2.45,2.45,0,0,0-3.49,0Z"/><path class="cls-1" d="M46.92,167.12v-1a2.73,2.73,0,0,1-1.15.85,4.29,4.29,0,0,1-1.62.29,3.52,3.52,0,0,1-1.57-.34,2.45,2.45,0,0,1-1-1,2.53,2.53,0,0,1-.37-1.36,2.27,2.27,0,0,1,.85-1.88,3.81,3.81,0,0,1,2.4-.69H46.9v-.23a1.45,1.45,0,0,0-.49-1.17,2.23,2.23,0,0,0-1.44-.41,5,5,0,0,0-2.55.8l-.75-1.44a9.91,9.91,0,0,1,1.83-.81,7,7,0,0,1,1.93-.25,3.86,3.86,0,0,1,2.59.8,2.87,2.87,0,0,1,.93,2.24l0,5.6Zm-.74-1.93a1.45,1.45,0,0,0,.72-1v-.77H44.74a2.29,2.29,0,0,0-1.22.25.87.87,0,0,0-.39.8,1,1,0,0,0,.41.87,1.77,1.77,0,0,0,1.11.32A2.62,2.62,0,0,0,46.18,165.19Z"/><path class="cls-1" d="M58.78,159.37a3.37,3.37,0,0,1,.84,2.41v5.34H57.53v-4.73A2,2,0,0,0,57,161a1.88,1.88,0,0,0-1.4-.52,2.11,2.11,0,0,0-1.64.71,2.56,2.56,0,0,0-.6,1.76v4.2H51.3v-8.56h2.08v1.6a3.25,3.25,0,0,1,3.08-1.68A3.07,3.07,0,0,1,58.78,159.37Z"/><path class="cls-1" d="M69.43,159.37a3.33,3.33,0,0,1,.85,2.41v5.34h-2.1v-4.73a2,2,0,0,0-.51-1.42,1.84,1.84,0,0,0-1.39-.52,2.11,2.11,0,0,0-1.64.71,2.56,2.56,0,0,0-.6,1.76v4.2H62v-8.56H64v1.6a3.24,3.24,0,0,1,3.07-1.68A3.06,3.06,0,0,1,69.43,159.37Z"/><path class="cls-1" d="M79.26,159.67a4.78,4.78,0,0,1,1,3.28c0,.27,0,.48,0,.62H74a2.39,2.39,0,0,0,2.45,2,3.14,3.14,0,0,0,1.25-.25,3,3,0,0,0,1-.71l1.12,1.17a4.26,4.26,0,0,1-1.56,1.09,5.15,5.15,0,0,1-2,.38,4.8,4.8,0,0,1-2.31-.54,3.72,3.72,0,0,1-1.54-1.53,4.53,4.53,0,0,1-.55-2.26,4.72,4.72,0,0,1,.55-2.28,4,4,0,0,1,1.55-1.54,4.52,4.52,0,0,1,2.25-.55A3.87,3.87,0,0,1,79.26,159.67Zm-.87,2.51a2.11,2.11,0,0,0-.62-1.51,2.46,2.46,0,0,0-3.1,0,2.46,2.46,0,0,0-.76,1.51Z"/><path class="cls-1" d="M85.87,160.31a4.06,4.06,0,0,0-1.22-.21,1.69,1.69,0,0,0-.84.18.62.62,0,0,0-.31.57.68.68,0,0,0,.39.62,6.5,6.5,0,0,0,1.24.45,11.2,11.2,0,0,1,1.47.54,2.78,2.78,0,0,1,1,.78,2.13,2.13,0,0,1,.42,1.37,2.21,2.21,0,0,1-1,1.92,4.08,4.08,0,0,1-2.41.67,6.11,6.11,0,0,1-1.94-.31,4.52,4.52,0,0,1-1.6-.89l.72-1.45a4.11,4.11,0,0,0,1.38.77,4.5,4.5,0,0,0,1.52.28,1.77,1.77,0,0,0,.92-.2.64.64,0,0,0,.34-.6.72.72,0,0,0-.4-.67,7.92,7.92,0,0,0-1.29-.5,10.05,10.05,0,0,1-1.41-.5,2.44,2.44,0,0,1-1-.75,2.12,2.12,0,0,1-.4-1.32,2.24,2.24,0,0,1,.92-1.93,3.9,3.9,0,0,1,2.32-.66,6,6,0,0,1,1.67.24,5.14,5.14,0,0,1,1.46.67l-.75,1.5A6.68,6.68,0,0,0,85.87,160.31Z"/><path class="cls-1" d="M102,155.25v11.87H99.9v-1.37a3.06,3.06,0,0,1-1.2,1.09,3.59,3.59,0,0,1-1.68.38,4,4,0,0,1-2.14-.55,3.83,3.83,0,0,1-1.43-1.55,5,5,0,0,1-.51-2.3,4.89,4.89,0,0,1,.5-2.27A3.72,3.72,0,0,1,94.86,159a4,4,0,0,1,2.11-.55,3.6,3.6,0,0,1,1.71.39A3.21,3.21,0,0,1,99.9,160v-4.72Zm-2.76,9.5a2.68,2.68,0,0,0,.68-1.88,2.65,2.65,0,0,0-.68-1.88,2.29,2.29,0,0,0-1.76-.73,2.25,2.25,0,0,0-1.74.73,2.7,2.7,0,0,0-.69,1.88,2.73,2.73,0,0,0,.69,1.88,2.28,2.28,0,0,0,1.74.72A2.32,2.32,0,0,0,99.22,164.75Z"/><path class="cls-1" d="M111.3,159.67a4.83,4.83,0,0,1,1,3.28c0,.27,0,.48,0,.62H106a2.46,2.46,0,0,0,.86,1.43,2.43,2.43,0,0,0,1.59.52,3.18,3.18,0,0,0,1.26-.25,3,3,0,0,0,1-.71l1.12,1.17a4.26,4.26,0,0,1-1.56,1.09,5.15,5.15,0,0,1-2,.38,4.8,4.8,0,0,1-2.31-.54,3.72,3.72,0,0,1-1.54-1.53,4.53,4.53,0,0,1-.55-2.26,4.61,4.61,0,0,1,.56-2.28,3.87,3.87,0,0,1,1.54-1.54,4.52,4.52,0,0,1,2.25-.55A3.91,3.91,0,0,1,111.3,159.67Zm-.88,2.51a2.11,2.11,0,0,0-.62-1.51,2.46,2.46,0,0,0-3.1,0,2.46,2.46,0,0,0-.76,1.51Z"/><path class="cls-1" d="M117.9,160.31a4.06,4.06,0,0,0-1.22-.21,1.69,1.69,0,0,0-.84.18.62.62,0,0,0-.31.57.68.68,0,0,0,.39.62,6.5,6.5,0,0,0,1.24.45,10.69,10.69,0,0,1,1.47.54,2.7,2.7,0,0,1,1,.78,2.14,2.14,0,0,1,.43,1.37,2.21,2.21,0,0,1-1,1.92,4.11,4.11,0,0,1-2.42.67,6.11,6.11,0,0,1-1.94-.31,4.52,4.52,0,0,1-1.6-.89l.72-1.45a4.21,4.21,0,0,0,1.38.77,4.5,4.5,0,0,0,1.52.28,1.77,1.77,0,0,0,.92-.2.64.64,0,0,0,.34-.6.72.72,0,0,0-.4-.67,7.56,7.56,0,0,0-1.29-.5,10.05,10.05,0,0,1-1.41-.5,2.41,2.41,0,0,1-.94-.75,2.06,2.06,0,0,1-.4-1.32,2.22,2.22,0,0,1,.92-1.93,3.85,3.85,0,0,1,2.31-.66,6,6,0,0,1,1.67.24,5,5,0,0,1,1.46.67l-.75,1.5A6.18,6.18,0,0,0,117.9,160.31Z"/><path class="cls-1" d="M123.7,155.23a1.25,1.25,0,0,1,.34.9,1.2,1.2,0,0,1-.34.88,1.2,1.2,0,0,1-1.69,0,1.2,1.2,0,0,1-.34-.88,1.25,1.25,0,0,1,.34-.9,1.2,1.2,0,0,1,1.69,0Zm-1.87,3.33h2.08v8.56h-2.08Z"/><path class="cls-1" d="M134.31,158.56v7.75a4,4,0,0,1-.55,2.12,3.67,3.67,0,0,1-1.57,1.39,5.46,5.46,0,0,1-2.36.49,6.29,6.29,0,0,1-3.62-1.14l.84-1.5a4.44,4.44,0,0,0,2.67.89,2.65,2.65,0,0,0,1.83-.59,2,2,0,0,0,.68-1.62v-1a2.91,2.91,0,0,1-1.12,1,3.52,3.52,0,0,1-1.6.34,3.7,3.7,0,0,1-2-.52,3.57,3.57,0,0,1-1.35-1.45,4.7,4.7,0,0,1-.48-2.16,4.54,4.54,0,0,1,.48-2.12,3.51,3.51,0,0,1,1.35-1.43,3.79,3.79,0,0,1,2-.51,3.51,3.51,0,0,1,1.59.35,3,3,0,0,1,1.13,1v-1.28Zm-2.71,5.82a2.49,2.49,0,0,0,.63-1.77,2.52,2.52,0,0,0-.63-1.77,2.15,2.15,0,0,0-1.64-.68,2.12,2.12,0,0,0-1.64.69,2.58,2.58,0,0,0-.65,1.76,2.55,2.55,0,0,0,.65,1.77,2.32,2.32,0,0,0,3.28,0Z"/><path class="cls-1" d="M144.23,159.37a3.33,3.33,0,0,1,.85,2.41v5.34H143v-4.73a2,2,0,0,0-.51-1.42,1.84,1.84,0,0,0-1.39-.52,2.11,2.11,0,0,0-1.64.71,2.56,2.56,0,0,0-.6,1.76v4.2h-2.08v-8.56h2.08v1.6a3.24,3.24,0,0,1,3.07-1.68A3.06,3.06,0,0,1,144.23,159.37Z"/><path class="cls-1" d="M159.7,167.12l-1-2.36h-5.47l-1,2.36H150l4.91-11.2h2.23l4.85,11.2Zm-5.69-4.2h3.93L156,158.21Z"/><path class="cls-1" d="M170.45,159.05a3.78,3.78,0,0,1,1.42,1.54,5,5,0,0,1,.5,2.29,4.92,4.92,0,0,1-.49,2.26,3.64,3.64,0,0,1-1.41,1.52,4.06,4.06,0,0,1-2.11.54,3.7,3.7,0,0,1-1.7-.37,3.19,3.19,0,0,1-1.21-1.1v4.5h-2.08V158.56h2.08V160a3,3,0,0,1,1.19-1.09,3.51,3.51,0,0,1,1.69-.38A4,4,0,0,1,170.45,159.05Zm-.86,5.63a2.92,2.92,0,0,0,0-3.72,2.45,2.45,0,0,0-3.47,0,2.93,2.93,0,0,0,0,3.73,2.28,2.28,0,0,0,1.74.72A2.23,2.23,0,0,0,169.59,164.68Z"/><path class="cls-1" d="M179.53,158a5.38,5.38,0,0,0-1.59-.29,2.21,2.21,0,0,0-1.21.29.9.9,0,0,0-.45.8,1,1,0,0,0,.31.77,2.59,2.59,0,0,0,.78.52c.32.13.75.27,1.29.43a14.19,14.19,0,0,1,1.87.68,3.36,3.36,0,0,1,1.24,1,2.74,2.74,0,0,1,.51,1.73,3,3,0,0,1-.55,1.78,3.5,3.5,0,0,1-1.52,1.16,5.74,5.74,0,0,1-2.22.4,6.89,6.89,0,0,1-2.56-.49,7.3,7.3,0,0,1-2.18-1.3l.9-1.83a6.43,6.43,0,0,0,1.9,1.24,5,5,0,0,0,2,.44,2.49,2.49,0,0,0,1.41-.34,1.07,1.07,0,0,0,.51-.93,1.09,1.09,0,0,0-.31-.8,2.49,2.49,0,0,0-.79-.5c-.32-.13-.76-.27-1.31-.43a17.19,17.19,0,0,1-1.86-.66,3.11,3.11,0,0,1-1.23-1,2.67,2.67,0,0,1-.51-1.7,2.86,2.86,0,0,1,.52-1.71,3.25,3.25,0,0,1,1.47-1.12,5.57,5.57,0,0,1,2.2-.4,7.23,7.23,0,0,1,2.15.32,7.34,7.34,0,0,1,1.9.86l-.87,1.87A7.82,7.82,0,0,0,179.53,158Z"/><path class="cls-1" d="M191.56,154.08h1.76L188.23,169h-1.78Z"/><path class="cls-1" d="M196.18,155.92h4.5v11.2h-2.15v-9.31h-2.35Z"/><path class="cls-1" d="M211.14,159.37a3.33,3.33,0,0,1,.85,2.41v5.34h-2.1v-4.73a2,2,0,0,0-.51-1.42,1.84,1.84,0,0,0-1.39-.52,2.15,2.15,0,0,0-1.65.71,2.56,2.56,0,0,0-.61,1.76v4.2h-2.08V155.25h2.08v4.94a3.27,3.27,0,0,1,3.09-1.71A3.06,3.06,0,0,1,211.14,159.37Z"/><path class="cls-1" d="M219.38,167.12v-1a2.73,2.73,0,0,1-1.15.85,4.29,4.29,0,0,1-1.62.29,3.56,3.56,0,0,1-1.57-.34,2.45,2.45,0,0,1-1-1,2.53,2.53,0,0,1-.37-1.36,2.27,2.27,0,0,1,.85-1.88,3.83,3.83,0,0,1,2.4-.69h2.5v-.23a1.45,1.45,0,0,0-.5-1.17,2.23,2.23,0,0,0-1.44-.41,5,5,0,0,0-2.54.8l-.76-1.44a10.54,10.54,0,0,1,1.83-.81,7,7,0,0,1,1.93-.25,3.86,3.86,0,0,1,2.59.8,2.87,2.87,0,0,1,.93,2.24l0,5.6Zm-.73-1.93a1.51,1.51,0,0,0,.72-1v-.77h-2.16a2.31,2.31,0,0,0-1.23.25.87.87,0,0,0-.39.8,1,1,0,0,0,.41.87,1.77,1.77,0,0,0,1.11.32A2.68,2.68,0,0,0,218.65,165.19Z"/><path class="cls-1" d="M231.24,159.37a3.37,3.37,0,0,1,.85,2.41v5.34H230v-4.73a2,2,0,0,0-.51-1.42,1.86,1.86,0,0,0-1.39-.52,2.1,2.1,0,0,0-1.64.71,2.56,2.56,0,0,0-.6,1.76v4.2h-2.08v-8.56h2.08v1.6a3.23,3.23,0,0,1,3.07-1.68A3.07,3.07,0,0,1,231.24,159.37Z"/><path class="cls-1" d="M242.68,155.25v11.87H240.6v-1.37a3.1,3.1,0,0,1-1.19,1.09,3.66,3.66,0,0,1-1.69.38,4.06,4.06,0,0,1-2.14-.55,3.83,3.83,0,0,1-1.43-1.55,5,5,0,0,1-.51-2.3,4.89,4.89,0,0,1,.5-2.27,3.68,3.68,0,0,1,1.43-1.52,4,4,0,0,1,2.1-.55,3.6,3.6,0,0,1,1.71.39,3.21,3.21,0,0,1,1.22,1.1v-4.72Zm-2.76,9.5a2.68,2.68,0,0,0,.68-1.88,2.65,2.65,0,0,0-.68-1.88,2.29,2.29,0,0,0-1.75-.73,2.26,2.26,0,0,0-1.75.73,2.7,2.7,0,0,0-.69,1.88,2.73,2.73,0,0,0,.69,1.88,2.28,2.28,0,0,0,1.75.72A2.31,2.31,0,0,0,239.92,164.75Z"/><path class="cls-1" d="M252.51,159.05a3.71,3.71,0,0,1,1.42,1.54,5,5,0,0,1,.51,2.29,4.92,4.92,0,0,1-.5,2.26,3.64,3.64,0,0,1-1.41,1.52,4.06,4.06,0,0,1-2.11.54,3.7,3.7,0,0,1-1.7-.37,3.19,3.19,0,0,1-1.21-1.1v4.5h-2.08V158.56h2.08V160a3,3,0,0,1,1.19-1.09,3.54,3.54,0,0,1,1.69-.38A4,4,0,0,1,252.51,159.05Zm-.86,5.63a2.88,2.88,0,0,0,0-3.72,2.24,2.24,0,0,0-1.73-.72,2.28,2.28,0,0,0-1.74.72,2.93,2.93,0,0,0,0,3.73,2.28,2.28,0,0,0,1.74.72A2.22,2.22,0,0,0,251.65,164.68Z"/><path class="cls-1" d="M256.33,155.25h2.08v11.87h-2.08Z"/><path class="cls-1" d="M266.13,167.12v-1a2.73,2.73,0,0,1-1.15.85,4.29,4.29,0,0,1-1.62.29,3.56,3.56,0,0,1-1.57-.34,2.57,2.57,0,0,1-1.05-1,2.62,2.62,0,0,1-.37-1.36,2.27,2.27,0,0,1,.85-1.88,3.85,3.85,0,0,1,2.4-.69h2.5v-.23a1.45,1.45,0,0,0-.5-1.17,2.23,2.23,0,0,0-1.44-.41,5,5,0,0,0-2.54.8l-.76-1.44a10.28,10.28,0,0,1,1.84-.81,6.88,6.88,0,0,1,1.92-.25,3.84,3.84,0,0,1,2.59.8,2.87,2.87,0,0,1,.93,2.24l0,5.6Zm-.73-1.93a1.51,1.51,0,0,0,.72-1v-.77H264a2.31,2.31,0,0,0-1.23.25.87.87,0,0,0-.39.8,1,1,0,0,0,.41.87,1.77,1.77,0,0,0,1.11.32A2.68,2.68,0,0,0,265.4,165.19Z"/><path class="cls-1" d="M275.52,166.59a4,4,0,0,1-2.14.63,2.57,2.57,0,0,1-1.81-.65,2.46,2.46,0,0,1-.7-1.91v-4.23h-1.2l0-1.51h1.22v-2.36h2.06v2.36h2.45v1.51h-2.45v3.86a1.22,1.22,0,0,0,.23.84.84.84,0,0,0,.67.25,3.1,3.1,0,0,0,1.22-.35Z"/><path class="cls-1" d="M283.72,159.67a4.78,4.78,0,0,1,1,3.28c0,.27,0,.48,0,.62h-6.32a2.39,2.39,0,0,0,2.45,2,3.14,3.14,0,0,0,1.25-.25,3,3,0,0,0,1.05-.71l1.12,1.17a4.26,4.26,0,0,1-1.56,1.09,5.15,5.15,0,0,1-2,.38,4.8,4.8,0,0,1-2.31-.54,3.72,3.72,0,0,1-1.54-1.53,4.53,4.53,0,0,1-.55-2.26,4.72,4.72,0,0,1,.55-2.28,4,4,0,0,1,1.55-1.54,4.52,4.52,0,0,1,2.25-.55A3.87,3.87,0,0,1,283.72,159.67Zm-.87,2.51a2.11,2.11,0,0,0-.62-1.51,2.46,2.46,0,0,0-3.1,0,2.46,2.46,0,0,0-.76,1.51Z"/><path class="cls-1" d="M24.73,180.35h2.39a1.85,1.85,0,0,0,.5-.06.76.76,0,0,0,.38-.21,1.13,1.13,0,0,0,.3-.42,5,5,0,0,0,.27-.69H29l-.45,2.55H23v-.39c.91-.82,1.66-1.53,2.25-2.15a14.14,14.14,0,0,0,1.38-1.64,5,5,0,0,0,.7-1.36,4.08,4.08,0,0,0,.19-1.25,2.26,2.26,0,0,0-.44-1.47,1.42,1.42,0,0,0-1.19-.54,1.55,1.55,0,0,0-1.17.46,1.69,1.69,0,0,0-.45,1.21,1.5,1.5,0,0,0,.35,1,1.28,1.28,0,0,0,1,.38.74.74,0,0,1-.31.46,1.07,1.07,0,0,1-.63.18,1.48,1.48,0,0,1-1.11-.51,1.59,1.59,0,0,1-.32-.57,2.09,2.09,0,0,1-.12-.72,2.26,2.26,0,0,1,.23-1,2.5,2.5,0,0,1,.63-.79,2.94,2.94,0,0,1,.94-.52,3.74,3.74,0,0,1,1.18-.19,3.57,3.57,0,0,1,1.16.19,2.8,2.8,0,0,1,.92.54,2.57,2.57,0,0,1,.59.83,2.52,2.52,0,0,1,.21,1,3.41,3.41,0,0,1-.33,1.45,6.13,6.13,0,0,1-.91,1.41A11.35,11.35,0,0,1,26.36,179c-.51.45-1.06.88-1.64,1.32Z"/><path class="cls-1" d="M34.05,172.16a2.71,2.71,0,0,1,1.38.38,3.6,3.6,0,0,1,1.13,1,5.47,5.47,0,0,1,.76,1.53A6.08,6.08,0,0,1,37.6,177a5.75,5.75,0,0,1-.28,1.83,5,5,0,0,1-.76,1.48,3.83,3.83,0,0,1-1.13,1,2.83,2.83,0,0,1-2.76,0,3.83,3.83,0,0,1-1.13-1,5,5,0,0,1-.76-1.48A5.75,5.75,0,0,1,30.5,177a6.08,6.08,0,0,1,.28-1.89,5.47,5.47,0,0,1,.76-1.53,3.6,3.6,0,0,1,1.13-1A2.71,2.71,0,0,1,34.05,172.16Zm0,8.91a1.92,1.92,0,0,0,.84-.19,1.59,1.59,0,0,0,.62-.66,4.48,4.48,0,0,0,.4-1.25,11.85,11.85,0,0,0,.13-2,12.83,12.83,0,0,0-.13-2,5.27,5.27,0,0,0-.39-1.31,1.64,1.64,0,0,0-.63-.71,1.79,1.79,0,0,0-1.68,0,1.63,1.63,0,0,0-.62.71A4.54,4.54,0,0,0,32.2,175a12.68,12.68,0,0,0-.14,2,11.71,11.71,0,0,0,.14,2,4.19,4.19,0,0,0,.39,1.25,1.53,1.53,0,0,0,.62.66A1.92,1.92,0,0,0,34.05,181.07Z"/><path class="cls-1" d="M41.65,179.58a5.11,5.11,0,0,0,0,.75.94.94,0,0,0,.17.44.7.7,0,0,0,.38.23,3.5,3.5,0,0,0,.66.07v.45H39.22v-.45a3.37,3.37,0,0,0,.65-.08.75.75,0,0,0,.38-.22.81.81,0,0,0,.18-.42,4.41,4.41,0,0,0,0-.69v-5.55a2.94,2.94,0,0,0,0-.6.42.42,0,0,0-.36-.33,5,5,0,0,0-.9-.06v-.45a8.23,8.23,0,0,0,1.25-.16,11.22,11.22,0,0,0,1.24-.35Z"/><path class="cls-1" d="M48.69,173.47H46.46c-.31,0-.56,0-.76,0a1.14,1.14,0,0,0-.46.13.86.86,0,0,0-.3.3,3.16,3.16,0,0,0-.23.53l-.18.46h-.46l.84-3.36h.48a.66.66,0,0,0,0,.18,1.54,1.54,0,0,0,0,.19.27.27,0,0,0,.18.28,2.37,2.37,0,0,0,.74.07h3.51v.24l-.7,1.59c-.2.46-.39.88-.55,1.26s-.32.74-.45,1.08l-.42,1c-.14.34-.28.71-.43,1.1s-.31.83-.5,1.32-.25.65-.36.88a3.39,3.39,0,0,1-.31.53.88.88,0,0,1-.28.27.59.59,0,0,1-.29.07.47.47,0,0,1-.37-.16.49.49,0,0,1-.15-.33,1.83,1.83,0,0,1,0-.21,2,2,0,0,1,.08-.3c0-.12.11-.29.21-.49s.21-.45.37-.76.35-.7.58-1.15l.84-1.64Z"/><path class="cls-1" d="M54.08,178.55v-1h3.71v1Z"/><path class="cls-1" d="M64.75,179.64c0,.33,0,.58,0,.77a.87.87,0,0,0,.13.43.45.45,0,0,0,.3.2,2.29,2.29,0,0,0,.54.07v.41H62.6v-.41a2.27,2.27,0,0,0,.53-.07.47.47,0,0,0,.31-.19.82.82,0,0,0,.14-.41,6.57,6.57,0,0,0,0-.72v-1.59a12.82,12.82,0,0,0-.07-1.74,1.91,1.91,0,0,0-.09-.26.38.38,0,0,0-.17-.16.88.88,0,0,0-.27-.07l-.43,0v-.38L64.5,175l.14,1.19h0a3.22,3.22,0,0,1,1.07-.88,3,3,0,0,1,1.33-.31,2.75,2.75,0,0,1,1,.18,1.59,1.59,0,0,1,.69.5,1.71,1.71,0,0,1,.29.71,6.37,6.37,0,0,1,.08,1.2v2a7.64,7.64,0,0,0,0,.77,1,1,0,0,0,.13.43.41.41,0,0,0,.29.2,2.35,2.35,0,0,0,.53.07v.41H67v-.41a1.88,1.88,0,0,0,.53-.06.54.54,0,0,0,.3-.2.83.83,0,0,0,.13-.41,6.83,6.83,0,0,0,0-.72v-1.58A7.44,7.44,0,0,0,68,177a2.21,2.21,0,0,0-.23-.76.94.94,0,0,0-.43-.41,1.36,1.36,0,0,0-.63-.13,1.9,1.9,0,0,0-1,.28,2,2,0,0,0-.71.78l-.1.22a1,1,0,0,0-.06.26,2.48,2.48,0,0,0,0,.33c0,.12,0,.28,0,.47Z"/><path class="cls-1" d="M76,177.08c0-.32,0-.58,0-.77a.91.91,0,0,0-.13-.43.55.55,0,0,0-.3-.21l-.55-.09v-.42h2.18v3.69c0,.45,0,.82,0,1.11a5.81,5.81,0,0,0,.06.65.53.53,0,0,0,.08.25.32.32,0,0,0,.16.14.67.67,0,0,0,.28.07,3,3,0,0,0,.45,0v.42l-2,.14-.13-1.43h0A3,3,0,0,1,75,181.3a2.44,2.44,0,0,1-1.24.34,2.55,2.55,0,0,1-1-.19,1.57,1.57,0,0,1-.71-.52,1.64,1.64,0,0,1-.3-.73,6.57,6.57,0,0,1-.09-1.21v-1.91c0-.32,0-.58,0-.77a.91.91,0,0,0-.13-.43.55.55,0,0,0-.3-.21l-.54-.09v-.42h2.17v3.28a4.48,4.48,0,0,0,.3,1.9,1,1,0,0,0,1,.58c.71,0,1.25-.46,1.65-1.38a1.61,1.61,0,0,0,.09-.26,1.07,1.07,0,0,0,.06-.27,2.53,2.53,0,0,0,0-.32c0-.12,0-.26,0-.43Z"/><path class="cls-1" d="M82.6,178.7h.45a2.71,2.71,0,0,0,.32,1,2.51,2.51,0,0,0,.58.74,2.63,2.63,0,0,0,.82.46,3,3,0,0,0,1,.16,2.19,2.19,0,0,0,1.41-.42,1.4,1.4,0,0,0,.51-1.14,1.42,1.42,0,0,0-.1-.55,1.5,1.5,0,0,0-.34-.49,3.54,3.54,0,0,0-.64-.46,10,10,0,0,0-1-.49,13.09,13.09,0,0,1-1.25-.63,3.31,3.31,0,0,1-.8-.62,2,2,0,0,1-.43-.69,2.64,2.64,0,0,1-.12-.83,2.44,2.44,0,0,1,.2-1,2.28,2.28,0,0,1,.55-.81,2.44,2.44,0,0,1,.86-.53,3,3,0,0,1,2.06,0,3.29,3.29,0,0,1,.92.54l.32-.54h.27l.13,2.39h-.44a3,3,0,0,0-.83-1.46,1.91,1.91,0,0,0-1.32-.49,1.75,1.75,0,0,0-1.16.36,1.22,1.22,0,0,0-.43,1,1.46,1.46,0,0,0,.09.52,1.42,1.42,0,0,0,.31.44,3.51,3.51,0,0,0,.57.42,7.51,7.51,0,0,0,.86.44,14.48,14.48,0,0,1,1.48.74,5.1,5.1,0,0,1,.93.68,2,2,0,0,1,.5.72,2.52,2.52,0,0,1,.14.85,2.54,2.54,0,0,1-.91,2,3.08,3.08,0,0,1-1,.55,4,4,0,0,1-1.32.2,3.61,3.61,0,0,1-1.23-.19,3.57,3.57,0,0,1-1.11-.65l-.34.59h-.28Z"/><path class="cls-1" d="M93.82,181.1a3.28,3.28,0,0,0,.55,0c.1,0,.15-.06.15-.1a1.11,1.11,0,0,0-.19-.35l-.47-.6-1.27-1.53-.45.42v.7a4.72,4.72,0,0,0,0,.75,1,1,0,0,0,.15.45.58.58,0,0,0,.34.22,2.78,2.78,0,0,0,.58.07v.42H89.85v-.42a2.69,2.69,0,0,0,.58-.07.61.61,0,0,0,.35-.22.91.91,0,0,0,.18-.42,4.25,4.25,0,0,0,0-.69v-5c0-.61,0-1.07,0-1.38a1.59,1.59,0,0,0-.13-.64.46.46,0,0,0-.36-.19,5.94,5.94,0,0,0-.67,0V172l2.31-.46v6.59l1.12-1.09.8-.8q.27-.25.27-.39c0-.09-.09-.16-.25-.21a2.65,2.65,0,0,0-.72-.08v-.42h3.12v.42a2.25,2.25,0,0,0-.4,0,.9.9,0,0,0-.32.09,3.19,3.19,0,0,0-.32.2,4.32,4.32,0,0,0-.38.32l-1.73,1.54,2.38,2.68a2.57,2.57,0,0,0,.3.33,1.47,1.47,0,0,0,.28.2,1,1,0,0,0,.3.1,2.21,2.21,0,0,0,.39,0v.42H93.82Z"/><path class="cls-1" d="M99.78,179.61a4.94,4.94,0,0,0,0,.75,1,1,0,0,0,.16.45.58.58,0,0,0,.34.22,2.59,2.59,0,0,0,.57.07v.42H97.45v-.42A2.33,2.33,0,0,0,98,181a.65.65,0,0,0,.35-.21.9.9,0,0,0,.17-.42,4.41,4.41,0,0,0,0-.69v-1.54c0-.46,0-.84,0-1.14a3.22,3.22,0,0,0-.06-.62.54.54,0,0,0-.28-.38,2.16,2.16,0,0,0-.82-.1v-.42l2.36-.46Zm-1.38-7a.72.72,0,0,1,.21-.53.75.75,0,0,1,1.06,0,.76.76,0,0,1,0,1,.75.75,0,0,1-1.06,0A.72.72,0,0,1,98.4,172.61Z"/><path class="cls-1" d="M103.64,179.65a4.73,4.73,0,0,0,0,.73.81.81,0,0,0,.15.43.53.53,0,0,0,.32.22,2.57,2.57,0,0,0,.56.07v.42H101.4v-.42A2,2,0,0,0,102,181a.62.62,0,0,0,.34-.21.71.71,0,0,0,.17-.4,4.2,4.2,0,0,0,0-.68v-5.17c0-.43,0-.79,0-1.08a4,4,0,0,0-.06-.6.49.49,0,0,0-.28-.37,2.4,2.4,0,0,0-.8-.09V172l2.27-.45Z"/><path class="cls-1" d="M105.51,175.92v-.45a4.25,4.25,0,0,0,1-.74,2.52,2.52,0,0,0,.55-.89h.35v1.51H109v.57h-1.61v3.65a4.64,4.64,0,0,0,0,.7,1.31,1.31,0,0,0,.14.47.58.58,0,0,0,.25.24.93.93,0,0,0,.4.07,1,1,0,0,0,.51-.12,1.55,1.55,0,0,0,.41-.43l.3.23a1.29,1.29,0,0,1-.58.68,2.15,2.15,0,0,1-1,.23,1.66,1.66,0,0,1-1.2-.38,1.37,1.37,0,0,1-.42-1.08v-4.26Z"/><path class="cls-1" d="M115.83,180.41a3.16,3.16,0,0,1-2.53,1.23,3.47,3.47,0,0,1-1.28-.23,2.87,2.87,0,0,1-1-.66,3,3,0,0,1-.65-1,4,4,0,0,1,0-2.67,3.09,3.09,0,0,1,.67-1.07,3.14,3.14,0,0,1,1.05-.69,3.34,3.34,0,0,1,1.32-.26,2.44,2.44,0,0,1,1.8.63,2.41,2.41,0,0,1,.64,1.81c0,.11,0,.18-.07.2a.63.63,0,0,1-.3,0h-4a1.2,1.2,0,0,0,0,.23c0,.1,0,.2,0,.31a4,4,0,0,0,.15,1.13,2.72,2.72,0,0,0,.43.87,2,2,0,0,0,.68.56,1.92,1.92,0,0,0,.87.2,2,2,0,0,0,.93-.22,3.15,3.15,0,0,0,.89-.73Zm-2-3.24.39,0a.56.56,0,0,0,.21,0,.24.24,0,0,0,.1-.1.9.9,0,0,0,0-.18,1.16,1.16,0,0,0-.35-.88,1.37,1.37,0,0,0-1-.33c-.86,0-1.4.51-1.61,1.55Z"/><path class="cls-1" d="M116.92,175.92v-.45a4.25,4.25,0,0,0,1-.74,2.52,2.52,0,0,0,.55-.89h.35v1.51h1.61v.57h-1.61v3.65a4.64,4.64,0,0,0,0,.7,1.55,1.55,0,0,0,.14.47.58.58,0,0,0,.25.24,1,1,0,0,0,.4.07,1,1,0,0,0,.51-.12,1.42,1.42,0,0,0,.41-.43l.3.23a1.25,1.25,0,0,1-.58.68,2.15,2.15,0,0,1-1,.23,1.68,1.68,0,0,1-1.2-.38,1.37,1.37,0,0,1-.42-1.08v-4.26Z"/><path class="cls-1" d="M127.24,180.41a3.16,3.16,0,0,1-2.53,1.23,3.47,3.47,0,0,1-1.28-.23,2.87,2.87,0,0,1-1-.66,2.81,2.81,0,0,1-.64-1,3.5,3.5,0,0,1-.23-1.31,3.74,3.74,0,0,1,.24-1.36,3.09,3.09,0,0,1,.67-1.07,3.25,3.25,0,0,1,1-.69,3.39,3.39,0,0,1,1.33-.26,2.21,2.21,0,0,1,2.43,2.44c0,.11,0,.18-.06.2a.7.7,0,0,1-.31,0h-4a1.29,1.29,0,0,0,0,.23,3,3,0,0,0,0,.31,4,4,0,0,0,.15,1.13,2.72,2.72,0,0,0,.43.87,2,2,0,0,0,.68.56,1.92,1.92,0,0,0,.87.2,2,2,0,0,0,.93-.22,3.15,3.15,0,0,0,.89-.73Zm-2-3.24.39,0a.52.52,0,0,0,.21,0,.24.24,0,0,0,.1-.1.5.5,0,0,0,0-.18,1.16,1.16,0,0,0-.35-.88,1.37,1.37,0,0,0-1-.33c-.86,0-1.4.51-1.6,1.55Z"/><path class="cls-1" d="M132,181.1a3.28,3.28,0,0,0,.55,0c.1,0,.15-.06.15-.1a1.39,1.39,0,0,0-.19-.35l-.47-.6-1.27-1.53-.45.42v.7a4.94,4.94,0,0,0,0,.75,1,1,0,0,0,.16.45.59.59,0,0,0,.33.22,2.89,2.89,0,0,0,.59.07v.42h-3.41v-.42a2.78,2.78,0,0,0,.58-.07.64.64,0,0,0,.35-.22.9.9,0,0,0,.17-.42,4.07,4.07,0,0,0,.05-.69v-5c0-.61,0-1.07,0-1.38a1.46,1.46,0,0,0-.12-.64.46.46,0,0,0-.36-.19,5.94,5.94,0,0,0-.67,0V172l2.31-.46v6.59l1.12-1.09.8-.8q.27-.25.27-.39c0-.09-.09-.16-.26-.21a2.59,2.59,0,0,0-.72-.08v-.42h3.12v.42a2.21,2.21,0,0,0-.39,0,.85.85,0,0,0-.32.09,2.36,2.36,0,0,0-.32.2,4.32,4.32,0,0,0-.38.32l-1.73,1.54,2.38,2.68a2.57,2.57,0,0,0,.3.33,1,1,0,0,0,.28.2,1,1,0,0,0,.3.1,2.13,2.13,0,0,0,.39,0v.42H132Z"/><path class="cls-1" d="M137.84,179.64c0,.33,0,.58,0,.77a.87.87,0,0,0,.13.43.45.45,0,0,0,.3.2,2.31,2.31,0,0,0,.55.07v.41h-3.15v-.41a2.37,2.37,0,0,0,.54-.07.48.48,0,0,0,.3-.19.82.82,0,0,0,.14-.41,6.57,6.57,0,0,0,0-.72v-1.59a11.24,11.24,0,0,0-.07-1.74,1.91,1.91,0,0,0-.09-.26.41.41,0,0,0-.16-.16,1,1,0,0,0-.28-.07l-.43,0v-.38l1.92-.46.14,1.19h.05a3.22,3.22,0,0,1,1.07-.88,3,3,0,0,1,1.33-.31,2.75,2.75,0,0,1,1,.18,1.48,1.48,0,0,1,1,1.21,6.37,6.37,0,0,1,.08,1.2v2a7.15,7.15,0,0,0,0,.77,1,1,0,0,0,.12.43.43.43,0,0,0,.3.2,2.17,2.17,0,0,0,.52.07v.41h-3.11v-.41a1.88,1.88,0,0,0,.53-.06.5.5,0,0,0,.3-.2.82.82,0,0,0,.14-.41,6.83,6.83,0,0,0,0-.72v-1.58A7.29,7.29,0,0,0,141,177a2,2,0,0,0-.23-.76.94.94,0,0,0-.43-.41,1.34,1.34,0,0,0-.63-.13,1.87,1.87,0,0,0-1.69,1.06L138,177a1,1,0,0,0-.06.26,2.48,2.48,0,0,0,0,.33c0,.12,0,.28,0,.47Z"/><path class="cls-1" d="M146.25,179.61a6.73,6.73,0,0,0,0,.75,1,1,0,0,0,.17.45.59.59,0,0,0,.33.22,2.78,2.78,0,0,0,.58.07v.42h-3.45v-.42a2.27,2.27,0,0,0,.59-.08.72.72,0,0,0,.36-.21.9.9,0,0,0,.16-.42,4.25,4.25,0,0,0,.05-.69v-1.54c0-.46,0-.84,0-1.14a3,3,0,0,0-.07-.62.52.52,0,0,0-.27-.38,2.19,2.19,0,0,0-.82-.1v-.42l2.35-.46Zm-1.38-7a.75.75,0,1,1,.22.52A.69.69,0,0,1,144.87,172.61Z"/><path class="cls-1" d="M151.78,181.1a3.28,3.28,0,0,0,.55,0c.1,0,.15-.06.15-.1a1.11,1.11,0,0,0-.19-.35l-.47-.6-1.27-1.53-.45.42v.7a4.72,4.72,0,0,0,.05.75.92.92,0,0,0,.15.45.58.58,0,0,0,.34.22,2.69,2.69,0,0,0,.58.07v.42h-3.41v-.42a2.78,2.78,0,0,0,.58-.07.61.61,0,0,0,.35-.22,1,1,0,0,0,.18-.42,4.25,4.25,0,0,0,0-.69v-5c0-.61,0-1.07,0-1.38a1.46,1.46,0,0,0-.12-.64.46.46,0,0,0-.36-.19,5.94,5.94,0,0,0-.67,0V172l2.31-.46v6.59l1.12-1.09.8-.8q.27-.25.27-.39c0-.09-.09-.16-.25-.21a2.65,2.65,0,0,0-.72-.08v-.42h3.12v.42a2.25,2.25,0,0,0-.4,0,.9.9,0,0,0-.32.09,2.36,2.36,0,0,0-.32.2,4.32,4.32,0,0,0-.38.32l-1.73,1.54,2.38,2.68a2.57,2.57,0,0,0,.3.33,1.47,1.47,0,0,0,.28.2,1,1,0,0,0,.3.1,2.21,2.21,0,0,0,.39,0v.42h-3.16Z"/><path class="cls-1" d="M160.82,180.41a3.16,3.16,0,0,1-2.53,1.23,3.57,3.57,0,0,1-1.29-.23,3.07,3.07,0,0,1-1-.66,3,3,0,0,1-.64-1,3.91,3.91,0,0,1,0-2.67,3.11,3.11,0,0,1,.68-1.07,3,3,0,0,1,1.05-.69,3.34,3.34,0,0,1,1.32-.26,2.44,2.44,0,0,1,1.8.63,2.41,2.41,0,0,1,.64,1.81c0,.11,0,.18-.07.2a.63.63,0,0,1-.3,0h-3.95a1.2,1.2,0,0,0,0,.23c0,.1,0,.2,0,.31a4,4,0,0,0,.15,1.13,2.53,2.53,0,0,0,.43.87,2,2,0,0,0,.67.56,1.92,1.92,0,0,0,.87.2,2,2,0,0,0,.94-.22,3.29,3.29,0,0,0,.89-.73Zm-2-3.24.38,0a.57.57,0,0,0,.22,0,.24.24,0,0,0,.1-.1.9.9,0,0,0,0-.18,1.16,1.16,0,0,0-.35-.88,1.37,1.37,0,0,0-1-.33c-.86,0-1.4.51-1.61,1.55Z"/><path class="cls-1" d="M164.1,179.61c0,.33,0,.59,0,.78a.92.92,0,0,0,.13.44.44.44,0,0,0,.29.2,3,3,0,0,0,.54.07v.42h-3.19v-.42a3.4,3.4,0,0,0,.55-.06.58.58,0,0,0,.31-.2.9.9,0,0,0,.14-.42,6.7,6.7,0,0,0,0-.72v-1.4c0-.55,0-1,0-1.28a1.78,1.78,0,0,0-.12-.67.44.44,0,0,0-.32-.26,3.12,3.12,0,0,0-.6,0v-.42l2.1-.46.17,1.49h.05a2.73,2.73,0,0,1,.39-.66,3.07,3.07,0,0,1,.51-.51,2.4,2.4,0,0,1,.58-.33,1.62,1.62,0,0,1,.61-.12.86.86,0,0,1,.6.19.61.61,0,0,1,.23.5.58.58,0,0,1-.18.45.75.75,0,0,1-.52.16.93.93,0,0,1-.32-.05l-.24-.1-.19-.1a.35.35,0,0,0-.2-.05.91.91,0,0,0-.65.41,3.2,3.2,0,0,0-.5,1.05,5.29,5.29,0,0,0-.15.79,6.81,6.81,0,0,0-.05.92Z"/><path class="cls-1" d="M30.46,56.57a3.68,3.68,0,0,0-1.64-.38,3.76,3.76,0,0,0-1.9.49,3.58,3.58,0,0,0-1.36,1.37,3.92,3.92,0,0,0,0,3.83,3.58,3.58,0,0,0,1.36,1.37,3.68,3.68,0,0,0,1.9.51,3.92,3.92,0,0,0,1.61-.36,4.53,4.53,0,0,0,1.43-1l1.27,1.41a6.81,6.81,0,0,1-2.05,1.41,5.73,5.73,0,0,1-2.37.52,5.89,5.89,0,0,1-3-.77,5.62,5.62,0,0,1-2.11-2.08A5.78,5.78,0,0,1,22.87,60a5.53,5.53,0,0,1,.79-2.91A5.62,5.62,0,0,1,25.79,55a6.2,6.2,0,0,1,5.35-.27,5.78,5.78,0,0,1,2,1.32l-1.25,1.57A4.19,4.19,0,0,0,30.46,56.57Z"/><path class="cls-1" d="M38.06,57.43A3.42,3.42,0,0,1,39.8,57v2a2.81,2.81,0,0,0-2.12.61,2.38,2.38,0,0,0-.79,1.88v4.13H34.81V57.05h2.08V58.7A3.07,3.07,0,0,1,38.06,57.43Z"/><path class="cls-1" d="M47.9,58.15a4.8,4.8,0,0,1,1,3.28c0,.28,0,.49,0,.63H42.6a2.39,2.39,0,0,0,2.45,2,3.14,3.14,0,0,0,1.25-.25,3,3,0,0,0,1.05-.71l1.12,1.17a4.26,4.26,0,0,1-1.56,1.09,5.33,5.33,0,0,1-2,.38,4.8,4.8,0,0,1-2.31-.54A3.84,3.84,0,0,1,41,63.62a4.54,4.54,0,0,1-.55-2.27A4.68,4.68,0,0,1,41,59.08a4,4,0,0,1,1.55-1.54A4.52,4.52,0,0,1,44.82,57,3.9,3.9,0,0,1,47.9,58.15ZM47,60.67a2.11,2.11,0,0,0-.62-1.51,2.22,2.22,0,0,0-1.57-.56,2.24,2.24,0,0,0-1.53.55,2.49,2.49,0,0,0-.76,1.52Z"/><path class="cls-1" d="M55.78,65.61v-1a2.75,2.75,0,0,1-1.15.85,4.28,4.28,0,0,1-1.61.29,3.44,3.44,0,0,1-1.58-.35,2.55,2.55,0,0,1-1-1A2.62,2.62,0,0,1,50,63.05a2.29,2.29,0,0,1,.85-1.88,3.91,3.91,0,0,1,2.4-.7h2.5v-.22a1.45,1.45,0,0,0-.5-1.17,2.23,2.23,0,0,0-1.44-.41,4.86,4.86,0,0,0-2.54.8L50.54,58a8.73,8.73,0,0,1,1.83-.81A6.55,6.55,0,0,1,54.3,57a3.81,3.81,0,0,1,2.58.8A2.86,2.86,0,0,1,57.82,60v5.6Zm-.73-1.93a1.5,1.5,0,0,0,.72-1v-.76H53.61a2.45,2.45,0,0,0-1.23.24.9.9,0,0,0-.39.81,1.06,1.06,0,0,0,.41.87,1.77,1.77,0,0,0,1.11.32A2.68,2.68,0,0,0,55.05,63.68Z"/><path class="cls-1" d="M64,58.8a4.06,4.06,0,0,0-1.22-.21,1.69,1.69,0,0,0-.84.18.61.61,0,0,0-.31.57A.68.68,0,0,0,62,60a6.5,6.5,0,0,0,1.24.45,10.69,10.69,0,0,1,1.47.54,2.67,2.67,0,0,1,1,.78,2.11,2.11,0,0,1,.42,1.37,2.21,2.21,0,0,1-1,1.92,4.08,4.08,0,0,1-2.41.67,6.11,6.11,0,0,1-1.94-.31,4.52,4.52,0,0,1-1.6-.89L59.91,63a4.13,4.13,0,0,0,1.38.78,4.5,4.5,0,0,0,1.52.28,1.87,1.87,0,0,0,.92-.2.64.64,0,0,0,.34-.6.72.72,0,0,0-.4-.67,6.8,6.8,0,0,0-1.29-.5,11.52,11.52,0,0,1-1.41-.5,2.73,2.73,0,0,1-.95-.75,2.12,2.12,0,0,1-.4-1.32,2.23,2.23,0,0,1,.92-1.93A3.9,3.9,0,0,1,62.86,57a6,6,0,0,1,1.67.23,5,5,0,0,1,1.46.68l-.75,1.5A5.9,5.9,0,0,0,64,58.8Z"/><path class="cls-1" d="M69.75,53.72a1.25,1.25,0,0,1,.34.9,1.21,1.21,0,0,1-.34.88,1.2,1.2,0,0,1-1.69,0,1.21,1.21,0,0,1-.34-.88,1.25,1.25,0,0,1,.34-.9,1.2,1.2,0,0,1,1.69,0Zm-1.87,3.33H70v8.56H67.88Z"/><path class="cls-1" d="M80.36,57.05V64.8a4,4,0,0,1-.55,2.12,3.67,3.67,0,0,1-1.57,1.39,5.46,5.46,0,0,1-2.36.49,6.29,6.29,0,0,1-3.62-1.14l.84-1.51a4.39,4.39,0,0,0,2.67.9,2.7,2.7,0,0,0,1.83-.59,2,2,0,0,0,.68-1.62v-1a2.91,2.91,0,0,1-1.12,1,3.66,3.66,0,0,1-1.6.34,3.7,3.7,0,0,1-2-.52,3.53,3.53,0,0,1-1.35-1.46,4.63,4.63,0,0,1-.48-2.15,4.51,4.51,0,0,1,.48-2.12,3.51,3.51,0,0,1,1.35-1.43,3.79,3.79,0,0,1,2-.51,3.39,3.39,0,0,1,1.59.35,2.85,2.85,0,0,1,1.13,1V57.05Zm-2.71,5.82a2.52,2.52,0,0,0,.63-1.77,2.49,2.49,0,0,0-.63-1.77A2.15,2.15,0,0,0,76,58.65a2.12,2.12,0,0,0-1.64.69,2.72,2.72,0,0,0,0,3.53,2.32,2.32,0,0,0,3.28,0Z"/><path class="cls-1" d="M90.28,57.86a3.31,3.31,0,0,1,.85,2.41v5.34H89V60.88a2,2,0,0,0-.51-1.42,1.86,1.86,0,0,0-1.39-.52,2.09,2.09,0,0,0-1.64.7,2.59,2.59,0,0,0-.6,1.76v4.21H82.81V57.05h2.08v1.6A3.23,3.23,0,0,1,88,57,3.07,3.07,0,0,1,90.28,57.86Z"/><path class="cls-1" d="M24.73,78.84h2.39a1.85,1.85,0,0,0,.5-.06,1,1,0,0,0,.38-.21,1.18,1.18,0,0,0,.3-.43,4.52,4.52,0,0,0,.27-.69H29L28.56,80H23v-.4c.91-.81,1.66-1.52,2.25-2.14a13.35,13.35,0,0,0,1.38-1.65,5,5,0,0,0,.7-1.35,4.12,4.12,0,0,0,.19-1.25,2.29,2.29,0,0,0-.44-1.48,1.45,1.45,0,0,0-1.19-.54,1.56,1.56,0,0,0-1.17.47,1.68,1.68,0,0,0-.45,1.21,1.48,1.48,0,0,0,.35,1,1.25,1.25,0,0,0,1,.39.77.77,0,0,1-.31.46,1.06,1.06,0,0,1-.63.17,1.43,1.43,0,0,1-1.11-.5,1.59,1.59,0,0,1-.32-.57,2.11,2.11,0,0,1-.12-.73,2.19,2.19,0,0,1,.23-1,2.4,2.4,0,0,1,.63-.79,2.94,2.94,0,0,1,.94-.52,3.48,3.48,0,0,1,1.18-.19,3.32,3.32,0,0,1,1.16.19,2.8,2.8,0,0,1,.92.54,2.53,2.53,0,0,1,.59.82,2.59,2.59,0,0,1,.21,1,3.45,3.45,0,0,1-.33,1.46,6.08,6.08,0,0,1-.91,1.4,11.4,11.4,0,0,1-1.34,1.36c-.51.44-1.06.88-1.64,1.31Z"/><path class="cls-1" d="M34.05,70.65a2.7,2.7,0,0,1,1.38.37,3.76,3.76,0,0,1,1.13,1,5.21,5.21,0,0,1,.76,1.53,6,6,0,0,1,.28,1.89,5.75,5.75,0,0,1-.28,1.83,5.17,5.17,0,0,1-.76,1.48,3.66,3.66,0,0,1-1.13,1,2.76,2.76,0,0,1-2.76,0,3.66,3.66,0,0,1-1.13-1,5.17,5.17,0,0,1-.76-1.48,5.75,5.75,0,0,1-.28-1.83,6,6,0,0,1,.28-1.89A5.21,5.21,0,0,1,31.54,72a3.76,3.76,0,0,1,1.13-1A2.7,2.7,0,0,1,34.05,70.65Zm0,8.9a1.79,1.79,0,0,0,.84-.19,1.59,1.59,0,0,0,.62-.66,4.37,4.37,0,0,0,.4-1.25,11.8,11.8,0,0,0,.13-2,12.83,12.83,0,0,0-.13-2,5.5,5.5,0,0,0-.39-1.32,1.61,1.61,0,0,0-.63-.7,1.78,1.78,0,0,0-1.68,0,1.6,1.6,0,0,0-.62.7,4.72,4.72,0,0,0-.39,1.32,12.68,12.68,0,0,0-.14,2,11.66,11.66,0,0,0,.14,2,4.1,4.1,0,0,0,.39,1.25,1.53,1.53,0,0,0,.62.66A1.79,1.79,0,0,0,34.05,79.55Z"/><path class="cls-1" d="M41.65,78.07a5.11,5.11,0,0,0,0,.75,1,1,0,0,0,.17.44.69.69,0,0,0,.38.22,2.83,2.83,0,0,0,.66.07V80H39.22v-.46a2.8,2.8,0,0,0,.65-.07.83.83,0,0,0,.38-.22.81.81,0,0,0,.18-.42,4.41,4.41,0,0,0,0-.69V72.59a3.11,3.11,0,0,0,0-.6.42.42,0,0,0-.36-.32,5,5,0,0,0-.9-.06v-.46A6.3,6.3,0,0,0,40.41,71a9.38,9.38,0,0,0,1.24-.34Z"/><path class="cls-1" d="M48.84,77.44a2.54,2.54,0,0,0-.41-1.54,1.32,1.32,0,0,0-1.13-.55,1.59,1.59,0,0,1-.4.16,1.55,1.55,0,0,1-.4.06.7.7,0,0,1-.4-.11.38.38,0,0,1-.16-.3.27.27,0,0,1,.15-.25.69.69,0,0,1,.38-.08l.36,0,.37.1a1.18,1.18,0,0,0,1-.58,2.67,2.67,0,0,0,.39-1.53q0-1.68-1.41-1.68a1.62,1.62,0,0,0-1,.28,1,1,0,0,0-.36.8.92.92,0,0,0,.24.66.85.85,0,0,0,.62.25.58.58,0,0,1-.29.33,1.2,1.2,0,0,1-.55.12,1.24,1.24,0,0,1-.48-.09,1.36,1.36,0,0,1-.39-.27,1.53,1.53,0,0,1-.26-.4,1.4,1.4,0,0,1-.09-.51,1.34,1.34,0,0,1,.18-.69,1.7,1.7,0,0,1,.53-.54,2.74,2.74,0,0,1,.81-.34,4.21,4.21,0,0,1,1-.12,3.9,3.9,0,0,1,1.17.16,2.69,2.69,0,0,1,.9.43,1.84,1.84,0,0,1,.78,1.55,2.14,2.14,0,0,1-.14.76,2.56,2.56,0,0,1-.39.66,2.5,2.5,0,0,1-.57.5,2.9,2.9,0,0,1-.7.3v.07a3,3,0,0,1,.83.35,2.51,2.51,0,0,1,.66.54,2.28,2.28,0,0,1,.43.7,2.36,2.36,0,0,1-.08,1.89,2.63,2.63,0,0,1-.66.83,3.2,3.2,0,0,1-1,.54,4,4,0,0,1-1.28.2A3.81,3.81,0,0,1,46,80a2.92,2.92,0,0,1-.9-.45,1.91,1.91,0,0,1-.6-.67,1.7,1.7,0,0,1-.11-1.44,1.59,1.59,0,0,1,.29-.49,1.35,1.35,0,0,1,1-.44,1.21,1.21,0,0,1,.6.15.61.61,0,0,1,.32.38.94.94,0,0,0-.74.33,1.25,1.25,0,0,0-.29.85,1.29,1.29,0,0,0,.43,1,1.64,1.64,0,0,0,1.14.39A1.5,1.5,0,0,0,48.4,79,2.48,2.48,0,0,0,48.84,77.44Z"/><path class="cls-1" d="M55.45,77V76h3.71v1Z"/><path class="cls-1" d="M65.88,78.84h2.38a1.93,1.93,0,0,0,.51-.06,1,1,0,0,0,.38-.21,1.48,1.48,0,0,0,.3-.43,4.52,4.52,0,0,0,.27-.69h.44L69.7,80H64.12v-.4c.92-.81,1.67-1.52,2.25-2.14a13.54,13.54,0,0,0,1.39-1.65,5,5,0,0,0,.7-1.35,4.46,4.46,0,0,0,.19-1.25,2.29,2.29,0,0,0-.44-1.48A1.45,1.45,0,0,0,67,71.2a1.56,1.56,0,0,0-1.17.47,1.68,1.68,0,0,0-.45,1.21,1.43,1.43,0,0,0,.35,1,1.25,1.25,0,0,0,1,.39.74.74,0,0,1-.32.46,1,1,0,0,1-.62.17,1.44,1.44,0,0,1-.62-.13,1.35,1.35,0,0,1-.49-.37,1.59,1.59,0,0,1-.32-.57,2.11,2.11,0,0,1-.12-.73,2.19,2.19,0,0,1,.23-1,2.5,2.5,0,0,1,.62-.79,3.1,3.1,0,0,1,1-.52,3.44,3.44,0,0,1,1.18-.19,3.32,3.32,0,0,1,1.16.19,2.75,2.75,0,0,1,.91.54,2.42,2.42,0,0,1,.6.82,2.59,2.59,0,0,1,.21,1,3.45,3.45,0,0,1-.33,1.46,6.08,6.08,0,0,1-.91,1.4,11.4,11.4,0,0,1-1.34,1.36c-.51.44-1.06.88-1.65,1.31Z"/><path class="cls-1" d="M75.2,70.65a2.7,2.7,0,0,1,1.38.37,3.76,3.76,0,0,1,1.13,1,5.21,5.21,0,0,1,.76,1.53,6,6,0,0,1,.28,1.89,5.75,5.75,0,0,1-.28,1.83,5.17,5.17,0,0,1-.76,1.48,3.66,3.66,0,0,1-1.13,1,2.76,2.76,0,0,1-2.76,0,3.66,3.66,0,0,1-1.13-1,5.17,5.17,0,0,1-.76-1.48,5.75,5.75,0,0,1-.28-1.83,6,6,0,0,1,.28-1.89A5.21,5.21,0,0,1,72.69,72a3.76,3.76,0,0,1,1.13-1A2.7,2.7,0,0,1,75.2,70.65Zm0,8.9a1.72,1.72,0,0,0,.83-.19,1.55,1.55,0,0,0,.63-.66,4.1,4.1,0,0,0,.39-1.25,10.69,10.69,0,0,0,.14-2,11.62,11.62,0,0,0-.14-2,4.72,4.72,0,0,0-.39-1.32,1.54,1.54,0,0,0-.62-.7,1.79,1.79,0,0,0-1.68,0,1.54,1.54,0,0,0-.62.7,4.72,4.72,0,0,0-.39,1.32,11.62,11.62,0,0,0-.14,2,10.69,10.69,0,0,0,.14,2,4.1,4.1,0,0,0,.39,1.25,1.48,1.48,0,0,0,.62.66A1.79,1.79,0,0,0,75.2,79.55Z"/><path class="cls-1" d="M82.8,78.07a5.11,5.11,0,0,0,0,.75.88.88,0,0,0,.17.44.69.69,0,0,0,.38.22,2.73,2.73,0,0,0,.65.07V80H80.37v-.46a2.64,2.64,0,0,0,.64-.07.71.71,0,0,0,.57-.64,4.41,4.41,0,0,0,0-.69v-4.4c0-.47,0-.85,0-1.16a2.63,2.63,0,0,0,0-.6.42.42,0,0,0-.36-.32,5,5,0,0,0-.9-.06v-.46A6.2,6.2,0,0,0,81.55,71a9.53,9.53,0,0,0,1.25-.34Z"/><path class="cls-1" d="M87.21,74.23l0,0a1.5,1.5,0,0,1,.52-.22,2.86,2.86,0,0,1,.7-.09,2.37,2.37,0,0,1,1.77.79,2.85,2.85,0,0,1,.52.88,3.1,3.1,0,0,1,.19,1.1,3.31,3.31,0,0,1-.27,1.34,3.35,3.35,0,0,1-.74,1.08,3.56,3.56,0,0,1-1.12.73,3.68,3.68,0,0,1-1.38.26,3.51,3.51,0,0,1-.94-.12,2.54,2.54,0,0,1-.74-.35,1.7,1.7,0,0,1-.48-.52,1.36,1.36,0,0,1-.17-.67.76.76,0,0,1,.15-.5.52.52,0,0,1,.43-.18.52.52,0,0,1,.37.13.88.88,0,0,1,.2.34,3.88,3.88,0,0,1,.13.44,1.63,1.63,0,0,0,.18.43.87.87,0,0,0,.32.34,1.08,1.08,0,0,0,.58.13,1.55,1.55,0,0,0,.84-.22,1.84,1.84,0,0,0,.63-.64,3.2,3.2,0,0,0,.39-1,5.76,5.76,0,0,0,.14-1.3,3,3,0,0,0-.29-1.5,1,1,0,0,0-.94-.48,1.23,1.23,0,0,0-.82.27,1.9,1.9,0,0,0-.52.87.83.83,0,0,1-.13.27.23.23,0,0,1-.16.06c-.18,0-.26-.08-.26-.24a.22.22,0,0,1,0-.09l1.28-5a2.63,2.63,0,0,0,.6.16,4.7,4.7,0,0,0,.81.06,4,4,0,0,0,1.59-.23h.07a1.67,1.67,0,0,1-.63,1.06,2,2,0,0,1-1.24.37h-1Z"/><path class="cls-1" d="M103.39,80H95.64v-.46a2.92,2.92,0,0,0,.67-.07.88.88,0,0,0,.41-.2.78.78,0,0,0,.19-.41,4.12,4.12,0,0,0,0-.68v-5.6a3.9,3.9,0,0,0,0-.67.77.77,0,0,0-.16-.41.71.71,0,0,0-.37-.21,4.29,4.29,0,0,0-.62-.07v-.46H99.4v.46a2.43,2.43,0,0,0-.61.07.64.64,0,0,0-.36.21.88.88,0,0,0-.17.44,4.81,4.81,0,0,0,0,.73v5.17a2.65,2.65,0,0,0,.1.82.89.89,0,0,0,.35.49,1.43,1.43,0,0,0,.65.24,5.94,5.94,0,0,0,1,.07,7.29,7.29,0,0,0,1.15-.08,2.1,2.1,0,0,0,.79-.27,1.43,1.43,0,0,0,.5-.56,3.67,3.67,0,0,0,.32-.91h.46Z"/><path class="cls-1" d="M113.44,78.89A3.16,3.16,0,0,1,111,80.13a2.91,2.91,0,0,1-1.55-.41,2.73,2.73,0,0,1-1-1.13,2.53,2.53,0,0,1-.95,1.13,2.57,2.57,0,0,1-1.43.4,1.84,1.84,0,0,1-1.22-.38,1.28,1.28,0,0,1-.44-1,1.55,1.55,0,0,1,.47-1.14,4,4,0,0,1,1.47-.86l1.73-.64v-.61a1.65,1.65,0,0,0-.31-1.11,1.18,1.18,0,0,0-1-.35.8.8,0,0,0-.56.16,1.71,1.71,0,0,0-.33.62,1.39,1.39,0,0,1-.26.46.52.52,0,0,1-.35.11.54.54,0,0,1-.62-.6,1,1,0,0,1,.62-.89,3.93,3.93,0,0,1,1.75-.32,3.42,3.42,0,0,1,1.29.2,1.31,1.31,0,0,1,.7.63,2.55,2.55,0,0,1,.93-.61,3,3,0,0,1,1.18-.22,2.39,2.39,0,0,1,1.77.64,2.42,2.42,0,0,1,.63,1.77.22.22,0,0,1-.08.2.49.49,0,0,1-.29.07h-3.71a1.92,1.92,0,0,0,0,.52,3.52,3.52,0,0,0,.51,2,1.61,1.61,0,0,0,1.41.75,2.45,2.45,0,0,0,1.79-1ZM108,76.58a7.38,7.38,0,0,0-1.88.93,1.26,1.26,0,0,0-.58,1,.86.86,0,0,0,.27.65,1,1,0,0,0,.69.25,1.26,1.26,0,0,0,.57-.14,1.37,1.37,0,0,0,.48-.38,1.73,1.73,0,0,0,.33-.56,1.85,1.85,0,0,0,.12-.67Zm3.45-.93h.39a.78.78,0,0,0,.21,0,.18.18,0,0,0,.1-.09.5.5,0,0,0,0-.18,1.16,1.16,0,0,0-.35-.89,1.32,1.32,0,0,0-.93-.33,1.19,1.19,0,0,0-.92.37,2.35,2.35,0,0,0-.48,1.17Z"/><path class="cls-1" d="M116.71,78.1c0,.33,0,.59,0,.78a1,1,0,0,0,.13.44.47.47,0,0,0,.29.2,4.27,4.27,0,0,0,.54.07V80H114.5v-.42a2.39,2.39,0,0,0,.55-.07.52.52,0,0,0,.31-.19.8.8,0,0,0,.14-.42,6.83,6.83,0,0,0,0-.72V76.78c0-.54,0-1,0-1.27a1.74,1.74,0,0,0-.12-.67.41.41,0,0,0-.31-.26,3.25,3.25,0,0,0-.6,0v-.42l2.1-.46.16,1.49h.05a3.59,3.59,0,0,1,.39-.66,3.07,3.07,0,0,1,.51-.51,2.61,2.61,0,0,1,.58-.33,1.62,1.62,0,0,1,.61-.12.89.89,0,0,1,.61.19.64.64,0,0,1,.22.5.54.54,0,0,1-.18.44.74.74,0,0,1-.52.17,1,1,0,0,1-.32,0l-.24-.1-.19-.11a.42.42,0,0,0-.2,0,.84.84,0,0,0-.64.41,3,3,0,0,0-.51,1,6.57,6.57,0,0,0-.15.79,8.92,8.92,0,0,0-.05.91Z"/><path class="cls-1" d="M122.27,78.14a6.62,6.62,0,0,0,0,.73.94.94,0,0,0,.15.43.59.59,0,0,0,.33.22,2.39,2.39,0,0,0,.55.07V80H120v-.42a2.19,2.19,0,0,0,.58-.08.66.66,0,0,0,.34-.21.82.82,0,0,0,.17-.4,4.2,4.2,0,0,0,0-.68V73.05c0-.43,0-.79,0-1.08a4.27,4.27,0,0,0,0-.6.5.5,0,0,0-.28-.37,2.14,2.14,0,0,0-.8-.1v-.41l2.26-.44Z"/><path class="cls-1" d="M126.4,78.1a6.88,6.88,0,0,0,0,.75,1,1,0,0,0,.17.45.65.65,0,0,0,.33.22,2.78,2.78,0,0,0,.58.07V80h-3.44v-.42a2.19,2.19,0,0,0,.58-.08.68.68,0,0,0,.36-.21.9.9,0,0,0,.17-.42,6.12,6.12,0,0,0,0-.69V76.65c0-.46,0-.85,0-1.14a2.9,2.9,0,0,0-.07-.62.51.51,0,0,0-.27-.38,2.19,2.19,0,0,0-.82-.1V74l2.35-.46Zm-1.38-7a.73.73,0,0,1,.22-.52.69.69,0,0,1,.53-.22.71.71,0,0,1,.53.22.76.76,0,0,1,0,1.05.71.71,0,0,1-.53.22.69.69,0,0,1-.53-.22A.73.73,0,0,1,125,71.09Z"/><path class="cls-1" d="M130.35,78.13a7.64,7.64,0,0,0,0,.77.81.81,0,0,0,.12.43.49.49,0,0,0,.3.2,3,3,0,0,0,.55.07V80H128.2V79.6a3,3,0,0,0,.54-.07.52.52,0,0,0,.3-.19.86.86,0,0,0,.14-.41,6.7,6.7,0,0,0,0-.72v-1.6a11.42,11.42,0,0,0-.07-1.74,1,1,0,0,0-.09-.25.41.41,0,0,0-.16-.16.72.72,0,0,0-.28-.07l-.43,0V74l1.92-.46.14,1.19h0a3.22,3.22,0,0,1,1.07-.88,2.86,2.86,0,0,1,1.33-.31,2.75,2.75,0,0,1,1,.18,1.67,1.67,0,0,1,.7.49,1.81,1.81,0,0,1,.28.72,6.23,6.23,0,0,1,.09,1.2v2a7.64,7.64,0,0,0,0,.77,1.05,1.05,0,0,0,.12.43.49.49,0,0,0,.3.2,2.85,2.85,0,0,0,.52.07V80h-3.11V79.6a3.12,3.12,0,0,0,.53-.06.52.52,0,0,0,.3-.2.9.9,0,0,0,.14-.42,6.62,6.62,0,0,0,0-.71V76.63a7.53,7.53,0,0,0-.08-1.16,2,2,0,0,0-.23-.75,1.06,1.06,0,0,0-.42-.42,1.56,1.56,0,0,0-.64-.12,1.81,1.81,0,0,0-1,.28,1.93,1.93,0,0,0-.7.77l-.11.23a1.43,1.43,0,0,0-.06.26,2.48,2.48,0,0,0,0,.33c0,.12,0,.28,0,.47Z"/><path class="cls-1" d="M138.65,78.84l.53,0,.48.05.47.06.5.07a2.37,2.37,0,0,1,1.39.67,1.82,1.82,0,0,1,.52,1.34,1.7,1.7,0,0,1-.8,1.53,4.18,4.18,0,0,1-2.3.53,5.83,5.83,0,0,1-1.23-.12,3.27,3.27,0,0,1-1-.34,1.94,1.94,0,0,1-.62-.54,1.11,1.11,0,0,1-.22-.68,1.45,1.45,0,0,1,.08-.47,1.6,1.6,0,0,1,.23-.38,1.12,1.12,0,0,1,.35-.25.86.86,0,0,1,.41-.1,1.22,1.22,0,0,1,.73.25.88.88,0,0,0-.53.36,1.08,1.08,0,0,0-.2.64.88.88,0,0,0,.52.81,3,3,0,0,0,1.48.29c1.37,0,2.05-.42,2.05-1.26a1,1,0,0,0-.32-.79,1.29,1.29,0,0,0-.77-.38l-.59-.08-.6-.08L138.7,80l-.4,0a2,2,0,0,1-1-.36,1,1,0,0,1-.34-.79,1,1,0,0,1,.34-.74,1.6,1.6,0,0,1,.88-.41v0a1.5,1.5,0,0,1-.49-.31,2.12,2.12,0,0,1-.65-1,2.1,2.1,0,0,1-.09-.61,2,2,0,0,1,.17-.84,1.87,1.87,0,0,1,.49-.66,2.34,2.34,0,0,1,.75-.45,2.87,2.87,0,0,1,.95-.16,3.21,3.21,0,0,1,1,.16,2.18,2.18,0,0,1,.81.48,3.41,3.41,0,0,1,.72-.49,1.36,1.36,0,0,1,.59-.15,1.15,1.15,0,0,1,.69.2.64.64,0,0,1,.26.53.42.42,0,0,1-.14.33.5.5,0,0,1-.34.12.55.55,0,0,1-.28-.06l-.2-.13-.19-.13a.41.41,0,0,0-.23,0,1,1,0,0,0-.59.2,2,2,0,0,1,.28,1.11,2.08,2.08,0,0,1-.63,1.61,3.15,3.15,0,0,1-1.91.67,5.13,5.13,0,0,0-1,.16.36.36,0,0,0-.29.35.3.3,0,0,0,.22.28A2.06,2.06,0,0,0,138.65,78.84Zm.67-1.41a.87.87,0,0,0,.78-.46,3,3,0,0,0,0-2.55.89.89,0,0,0-.8-.45,1,1,0,0,0-.82.46,2.24,2.24,0,0,0-.31,1.25,2.27,2.27,0,0,0,.32,1.27A.94.94,0,0,0,139.32,77.43Z"/></svg>
