<svg id="Layer_1" data-name="Layer 1" xmlns="http://www.w3.org/2000/svg" viewBox="0 0 313.54 149.7"><defs><style>.cls-1{fill:#3b3a36;}</style></defs><title>cv</title><rect class="cls-1" x="2.83" y="6.4" width="1" height="121.09"/><path class="cls-1" d="M5.23,14.85a1.91,1.91,0,1,1-1.91-1.91A1.9,1.9,0,0,1,5.23,14.85Z"/><path class="cls-1" d="M5.23,65.6a1.91,1.91,0,1,1-1.91-1.91A1.91,1.91,0,0,1,5.23,65.6Z"/><path class="cls-1" d="M5.23,116.36a1.91,1.91,0,1,1-1.91-1.91A1.9,1.9,0,0,1,5.23,116.36Z"/><path class="cls-1" d="M23.75,3.82h7.73l0,1.87H25.89v3H31v1.87H25.89V15H23.75Z"/><path class="cls-1" d="M38.05,15V14a2.8,2.8,0,0,1-1.15.84,4.11,4.11,0,0,1-1.62.29,3.42,3.42,0,0,1-1.57-.34,2.51,2.51,0,0,1-1.42-2.31,2.29,2.29,0,0,1,.85-1.88,3.79,3.79,0,0,1,2.4-.7H38V9.66a1.45,1.45,0,0,0-.5-1.17,2.17,2.17,0,0,0-1.44-.42,5,5,0,0,0-2.54.8L32.8,7.43a10.28,10.28,0,0,1,1.84-.81,6.9,6.9,0,0,1,1.92-.24,3.79,3.79,0,0,1,2.59.8,2.86,2.86,0,0,1,.93,2.24l0,5.6Zm-.73-1.93A1.5,1.5,0,0,0,38,12v-.77H35.88a2.41,2.41,0,0,0-1.23.25.9.9,0,0,0-.39.81,1,1,0,0,0,.41.86,1.71,1.71,0,0,0,1.11.32A2.75,2.75,0,0,0,37.32,13.09Z"/><path class="cls-1" d="M42.52,3.14H44.6V15H42.52Z"/><path class="cls-1" d="M53.06,15l-2.32-3.75-1.31,1.38V15H47.35V3.14h2.08V10L53,6.47h2.4l-3.17,3.3L55.54,15Z"/><path class="cls-1" d="M62.62,6.94A3.82,3.82,0,0,1,64.2,8.47a4.41,4.41,0,0,1,.57,2.26A4.52,4.52,0,0,1,64.2,13a3.82,3.82,0,0,1-1.58,1.53,4.82,4.82,0,0,1-2.34.55,4.88,4.88,0,0,1-2.37-.55A3.91,3.91,0,0,1,56.32,13a4.52,4.52,0,0,1-.57-2.29,4.41,4.41,0,0,1,.57-2.26,3.91,3.91,0,0,1,1.59-1.53,4.88,4.88,0,0,1,2.37-.55A4.82,4.82,0,0,1,62.62,6.94Zm-4.1,2a2.62,2.62,0,0,0-.68,1.87,2.62,2.62,0,0,0,.68,1.87,2.28,2.28,0,0,0,1.76.72A2.23,2.23,0,0,0,62,12.63a2.62,2.62,0,0,0,.68-1.87A2.62,2.62,0,0,0,62,8.89a2.23,2.23,0,0,0-1.72-.72A2.28,2.28,0,0,0,58.52,8.89Z"/><path class="cls-1" d="M74.05,7.26a3.35,3.35,0,0,1,.85,2.41V15H72.8V10.28a2,2,0,0,0-.51-1.42,1.88,1.88,0,0,0-1.39-.52,2.15,2.15,0,0,0-1.64.71,2.57,2.57,0,0,0-.6,1.76V15H66.58V6.46h2.08v1.6a3.24,3.24,0,0,1,3.07-1.68A3.05,3.05,0,0,1,74.05,7.26Z"/><path class="cls-1" d="M83.88,7.56a4.78,4.78,0,0,1,1,3.28c0,.28,0,.49,0,.63H78.58A2.39,2.39,0,0,0,81,13.42a3.32,3.32,0,0,0,1.25-.25,3.15,3.15,0,0,0,1-.71l1.12,1.16a4.15,4.15,0,0,1-1.56,1.09,5.15,5.15,0,0,1-2,.39,4.7,4.7,0,0,1-2.31-.55A3.72,3.72,0,0,1,77,13a4.5,4.5,0,0,1-.55-2.26A4.68,4.68,0,0,1,77,8.49,3.89,3.89,0,0,1,78.55,7a4.52,4.52,0,0,1,2.25-.56A3.87,3.87,0,0,1,83.88,7.56ZM83,10.07a2.07,2.07,0,0,0-.62-1.5A2.22,2.22,0,0,0,80.82,8a2.2,2.2,0,0,0-1.53.55,2.46,2.46,0,0,0-.76,1.51Z"/><path class="cls-1" d="M90,6.83a3.51,3.51,0,0,1,1.74-.45v2A2.81,2.81,0,0,0,89.58,9a2.36,2.36,0,0,0-.79,1.88V15H86.71V6.46h2.08V8.1A3.2,3.2,0,0,1,90,6.83Z"/><path class="cls-1" d="M101,6.46V14.2a4,4,0,0,1-.55,2.12,3.61,3.61,0,0,1-1.57,1.39,5.32,5.32,0,0,1-2.36.49,6.29,6.29,0,0,1-3.62-1.14l.84-1.5a4.39,4.39,0,0,0,2.67.9,2.65,2.65,0,0,0,1.83-.6,2,2,0,0,0,.68-1.61v-1a2.84,2.84,0,0,1-1.12,1,3.52,3.52,0,0,1-1.6.34,3.7,3.7,0,0,1-2-.52,3.5,3.5,0,0,1-1.35-1.45,4.66,4.66,0,0,1-.48-2.15,4.51,4.51,0,0,1,.48-2.12A3.54,3.54,0,0,1,94.2,6.9a3.79,3.79,0,0,1,2-.51,3.51,3.51,0,0,1,1.59.35,3,3,0,0,1,1.13,1V6.46Zm-2.71,5.81a2.49,2.49,0,0,0,.63-1.77,2.48,2.48,0,0,0-.63-1.76,2.11,2.11,0,0,0-1.64-.68A2.15,2.15,0,0,0,95,8.74a2.58,2.58,0,0,0-.65,1.76A2.55,2.55,0,0,0,95,12.27a2.32,2.32,0,0,0,3.28,0Z"/><path class="cls-1" d="M108.48,15V14a2.73,2.73,0,0,1-1.15.84,4.09,4.09,0,0,1-1.61.29,3.44,3.44,0,0,1-1.58-.34,2.51,2.51,0,0,1-1.42-2.31,2.29,2.29,0,0,1,.85-1.88,3.79,3.79,0,0,1,2.4-.7h2.5V9.66a1.45,1.45,0,0,0-.5-1.17,2.17,2.17,0,0,0-1.44-.42,5,5,0,0,0-2.54.8l-.75-1.44a9.91,9.91,0,0,1,1.83-.81A6.92,6.92,0,0,1,107,6.38a3.76,3.76,0,0,1,2.58.8,2.86,2.86,0,0,1,.94,2.24V15Zm-.73-1.93a1.5,1.5,0,0,0,.72-1.05v-.77h-2.16a2.43,2.43,0,0,0-1.23.25.9.9,0,0,0-.39.81,1,1,0,0,0,.41.86,1.71,1.71,0,0,0,1.11.32A2.75,2.75,0,0,0,107.75,13.09Zm.34-10.41A1.7,1.7,0,0,1,108.63,4a1.73,1.73,0,0,1-.54,1.27A1.81,1.81,0,0,1,105,4a1.7,1.7,0,0,1,.54-1.27,1.79,1.79,0,0,1,2.54,0Zm-1.83.73a.73.73,0,0,0,0,1.08.82.82,0,0,0,1.12,0,.73.73,0,0,0,0-1.08.8.8,0,0,0-1.12,0Z"/><path class="cls-1" d="M116.12,6.83a3.51,3.51,0,0,1,1.74-.45v2a2.81,2.81,0,0,0-2.12.62,2.36,2.36,0,0,0-.79,1.88V15h-2.08V6.46H115V8.1A3.2,3.2,0,0,1,116.12,6.83Z"/><path class="cls-1" d="M127.57,3.14V15h-2.08V13.64a3.06,3.06,0,0,1-1.19,1.1,3.66,3.66,0,0,1-1.69.37,4,4,0,0,1-2.13-.55A3.79,3.79,0,0,1,119,13a5,5,0,0,1-.51-2.3A4.83,4.83,0,0,1,119,8.45a3.62,3.62,0,0,1,1.42-1.53,4.05,4.05,0,0,1,2.1-.54,3.63,3.63,0,0,1,1.72.38,3.27,3.27,0,0,1,1.21,1.1V3.14Zm-2.76,9.5a2.6,2.6,0,0,0,.68-1.88,2.62,2.62,0,0,0-.68-1.88,2.31,2.31,0,0,0-1.75-.73,2.27,2.27,0,0,0-1.74.73,2.71,2.71,0,0,0-.69,1.88,2.7,2.7,0,0,0,.69,1.88,2.24,2.24,0,0,0,1.74.73A2.27,2.27,0,0,0,124.81,12.64Z"/><path class="cls-1" d="M136.89,7.56a4.78,4.78,0,0,1,1,3.28c0,.28,0,.49,0,.63h-6.32A2.37,2.37,0,0,0,134,13.42a3.36,3.36,0,0,0,1.25-.25,3.15,3.15,0,0,0,1.05-.71l1.12,1.16a4.31,4.31,0,0,1-1.56,1.09,5.15,5.15,0,0,1-2,.39,4.67,4.67,0,0,1-2.31-.55A3.81,3.81,0,0,1,130,13a4.61,4.61,0,0,1-.54-2.26A4.57,4.57,0,0,1,130,8.49,3.83,3.83,0,0,1,131.56,7a4.52,4.52,0,0,1,2.25-.56A3.89,3.89,0,0,1,136.89,7.56ZM136,10.07a2.07,2.07,0,0,0-.62-1.5A2.22,2.22,0,0,0,133.83,8a2.2,2.2,0,0,0-1.53.55,2.46,2.46,0,0,0-.76,1.51Z"/><path class="cls-1" d="M147.19,7.26A3.39,3.39,0,0,1,148,9.67V15h-2.1V10.28a2,2,0,0,0-.51-1.42A1.89,1.89,0,0,0,144,8.34a2.13,2.13,0,0,0-1.64.71,2.57,2.57,0,0,0-.6,1.76V15h-2.08V6.46h2.08v1.6a3.23,3.23,0,0,1,3.07-1.68A3.07,3.07,0,0,1,147.19,7.26Z"/><path class="cls-1" d="M154.16,8.2A4.12,4.12,0,0,0,152.93,8a1.58,1.58,0,0,0-.84.19.6.6,0,0,0-.31.56.67.67,0,0,0,.39.62,6.65,6.65,0,0,0,1.24.46,12.37,12.37,0,0,1,1.47.53,2.72,2.72,0,0,1,1,.79,2,2,0,0,1,.43,1.36,2.18,2.18,0,0,1-1,1.92,4.12,4.12,0,0,1-2.42.68,6.06,6.06,0,0,1-1.93-.32,4.42,4.42,0,0,1-1.6-.88l.72-1.46a4.26,4.26,0,0,0,1.37.78,4.81,4.81,0,0,0,1.52.28,1.85,1.85,0,0,0,.92-.2.67.67,0,0,0,.35-.6.75.75,0,0,0-.4-.68,7.92,7.92,0,0,0-1.3-.49,9.92,9.92,0,0,1-1.41-.51,2.41,2.41,0,0,1-.94-.75,2,2,0,0,1-.4-1.32A2.23,2.23,0,0,1,150.75,7a3.85,3.85,0,0,1,2.31-.66,5.92,5.92,0,0,1,1.67.24,5.2,5.2,0,0,1,1.47.67l-.76,1.51A5.87,5.87,0,0,0,154.16,8.2Z"/><path class="cls-1" d="M169.68,9.45h1.88V13.7a7.41,7.41,0,0,1-2.08,1.07,7.38,7.38,0,0,1-2.36.41,6,6,0,0,1-3-.77A5.7,5.7,0,0,1,162,12.32a5.63,5.63,0,0,1-.79-2.92,5.45,5.45,0,0,1,.8-2.9,5.82,5.82,0,0,1,2.19-2.07,6.31,6.31,0,0,1,3.06-.76,7,7,0,0,1,2.37.43,6.42,6.42,0,0,1,2,1.19l-1.22,1.58a4.66,4.66,0,0,0-1.48-.94,4.4,4.4,0,0,0-1.69-.34,3.83,3.83,0,0,0-1.94.51,3.64,3.64,0,0,0-1.4,1.38,3.78,3.78,0,0,0-.51,1.92,3.74,3.74,0,0,0,.52,1.94,3.84,3.84,0,0,0,3.35,1.9,4.49,4.49,0,0,0,1.21-.18,5.81,5.81,0,0,0,1.2-.52Z"/><path class="cls-1" d="M176.47,17.68a2.9,2.9,0,0,1-1.76.54,3.12,3.12,0,0,1-1.13-.19,3.32,3.32,0,0,1-1-.58l.89-1.59a2.66,2.66,0,0,0,.57.33,1.41,1.41,0,0,0,.54.11,1.32,1.32,0,0,0,1.25-.87l.25-.56-3.53-8.41h2.16l2.43,6.22,2.22-6.22h2.1l-3.84,9.63A3.39,3.39,0,0,1,176.47,17.68Z"/><path class="cls-1" d="M196.24,7.26a3.38,3.38,0,0,1,.83,2.41V15H195V10.28a2,2,0,0,0-.51-1.43,1.79,1.79,0,0,0-1.36-.52,2.06,2.06,0,0,0-1.58.72,2.59,2.59,0,0,0-.58,1.74V15h-2.1V10.28a2,2,0,0,0-.5-1.43A1.77,1.77,0,0,0,187,8.33a2.06,2.06,0,0,0-1.59.72,2.59,2.59,0,0,0-.58,1.74V15h-2.08V6.46h2.08V8a3.14,3.14,0,0,1,3-1.66,3.25,3.25,0,0,1,1.88.53,2.83,2.83,0,0,1,1.06,1.51,3.17,3.17,0,0,1,3.19-2A3,3,0,0,1,196.24,7.26Z"/><path class="cls-1" d="M206.87,7.26a3.38,3.38,0,0,1,.84,2.41V15h-2.09V10.28a2,2,0,0,0-.51-1.42,1.92,1.92,0,0,0-1.4-.52,2.15,2.15,0,0,0-1.64.71,2.62,2.62,0,0,0-.6,1.76V15h-2.08V6.46h2.08v1.6a3.26,3.26,0,0,1,3.08-1.68A3.07,3.07,0,0,1,206.87,7.26Z"/><path class="cls-1" d="M215.11,15V14a2.83,2.83,0,0,1-1.16.84,4.06,4.06,0,0,1-1.61.29,3.47,3.47,0,0,1-1.58-.34,2.48,2.48,0,0,1-1.41-2.31,2.28,2.28,0,0,1,.84-1.88,3.79,3.79,0,0,1,2.4-.7h2.5V9.66a1.42,1.42,0,0,0-.5-1.17,2.17,2.17,0,0,0-1.44-.42,5,5,0,0,0-2.54.8l-.75-1.44a9.91,9.91,0,0,1,1.83-.81,6.92,6.92,0,0,1,1.93-.24,3.76,3.76,0,0,1,2.58.8,2.83,2.83,0,0,1,.94,2.24V15Zm-.74-1.93a1.45,1.45,0,0,0,.72-1.05v-.77h-2.16a2.39,2.39,0,0,0-1.22.25.88.88,0,0,0-.4.81,1,1,0,0,0,.41.86,1.71,1.71,0,0,0,1.11.32A2.75,2.75,0,0,0,214.37,13.09Z"/><path class="cls-1" d="M223.27,8.2A4.06,4.06,0,0,0,222.05,8a1.58,1.58,0,0,0-.84.19.6.6,0,0,0-.31.56.67.67,0,0,0,.39.62,6.65,6.65,0,0,0,1.24.46,12.37,12.37,0,0,1,1.47.53,2.72,2.72,0,0,1,1,.79,2,2,0,0,1,.43,1.36,2.18,2.18,0,0,1-1,1.92,4.12,4.12,0,0,1-2.42.68,6.12,6.12,0,0,1-1.94-.32,4.5,4.5,0,0,1-1.6-.88l.72-1.46a4.42,4.42,0,0,0,1.38.78,4.76,4.76,0,0,0,1.52.28,1.87,1.87,0,0,0,.92-.2.66.66,0,0,0,.34-.6A.73.73,0,0,0,223,12a7.39,7.39,0,0,0-1.29-.49,9.92,9.92,0,0,1-1.41-.51,2.41,2.41,0,0,1-.94-.75A2,2,0,0,1,219,9,2.23,2.23,0,0,1,219.87,7a3.85,3.85,0,0,1,2.31-.66,6,6,0,0,1,1.67.24,5,5,0,0,1,1.46.67l-.75,1.51A5.73,5.73,0,0,0,223.27,8.2Z"/><path class="cls-1" d="M229.07,3.13a1.21,1.21,0,0,1,.34.89,1.18,1.18,0,0,1-.34.88,1.17,1.17,0,0,1-1.69,0A1.18,1.18,0,0,1,227,4a1.21,1.21,0,0,1,.34-.89,1.2,1.2,0,0,1,1.69,0ZM227.2,6.46h2.08V15H227.2Z"/><path class="cls-1" d="M239.76,6.46V15h-2.09V13.43a3.08,3.08,0,0,1-3,1.67,3,3,0,0,1-2.27-.88,3.34,3.34,0,0,1-.83-2.4V6.46h2.09v4.75a1.94,1.94,0,0,0,.49,1.41,1.79,1.79,0,0,0,1.35.51,2,2,0,0,0,1.57-.71,2.63,2.63,0,0,0,.58-1.74V6.46Z"/><path class="cls-1" d="M255.86,7.26a3.42,3.42,0,0,1,.83,2.41V15h-2.1V10.28a2,2,0,0,0-.5-1.43,1.81,1.81,0,0,0-1.37-.52,2,2,0,0,0-1.57.72,2.6,2.6,0,0,0-.59,1.74V15h-2.09V10.28a2,2,0,0,0-.5-1.43,1.77,1.77,0,0,0-1.36-.52,2.06,2.06,0,0,0-1.59.72,2.6,2.6,0,0,0-.59,1.74V15h-2.08V6.46h2.08V8a3.15,3.15,0,0,1,3-1.66,3.23,3.23,0,0,1,1.88.53,2.84,2.84,0,0,1,1.07,1.51,3.16,3.16,0,0,1,3.18-2A3,3,0,0,1,255.86,7.26Z"/><path class="cls-1" d="M269,6.94a3.94,3.94,0,0,1,1.58,1.53,4.41,4.41,0,0,1,.57,2.26A4.52,4.52,0,0,1,270.6,13,3.94,3.94,0,0,1,269,14.55a4.83,4.83,0,0,1-2.35.55,4.93,4.93,0,0,1-2.37-.55A3.91,3.91,0,0,1,262.71,13a4.52,4.52,0,0,1-.57-2.29,4.41,4.41,0,0,1,.57-2.26,3.91,3.91,0,0,1,1.59-1.53,4.93,4.93,0,0,1,2.37-.55A4.83,4.83,0,0,1,269,6.94Zm-4.11,2a2.66,2.66,0,0,0-.67,1.87,2.66,2.66,0,0,0,.67,1.87,2.31,2.31,0,0,0,1.76.72,2.26,2.26,0,0,0,1.73-.72,2.62,2.62,0,0,0,.67-1.87,2.62,2.62,0,0,0-.67-1.87,2.26,2.26,0,0,0-1.73-.72A2.31,2.31,0,0,0,264.91,8.89Z"/><path class="cls-1" d="M280.8,6.46V14.2a4,4,0,0,1-.55,2.12,3.61,3.61,0,0,1-1.57,1.39,5.32,5.32,0,0,1-2.36.49,6.23,6.23,0,0,1-3.61-1.14l.83-1.5a4.39,4.39,0,0,0,2.67.9,2.65,2.65,0,0,0,1.83-.6,2,2,0,0,0,.68-1.61v-1a2.84,2.84,0,0,1-1.12,1,3.52,3.52,0,0,1-1.6.34,3.7,3.7,0,0,1-2-.52,3.5,3.5,0,0,1-1.35-1.45,4.66,4.66,0,0,1-.48-2.15,4.51,4.51,0,0,1,.48-2.12A3.54,3.54,0,0,1,274,6.9a3.79,3.79,0,0,1,2-.51,3.51,3.51,0,0,1,1.59.35,3,3,0,0,1,1.13,1V6.46Zm-2.71,5.81a2.49,2.49,0,0,0,.63-1.77,2.48,2.48,0,0,0-.63-1.76,2.11,2.11,0,0,0-1.64-.68,2.15,2.15,0,0,0-1.64.68,2.58,2.58,0,0,0-.65,1.76,2.55,2.55,0,0,0,.65,1.77,2.32,2.32,0,0,0,3.28,0Z"/><path class="cls-1" d="M287.25,3.82h2.14V8.6H295V3.82h2.14V15H295V10.47h-5.59V15h-2.14Z"/><path class="cls-1" d="M299.89,3.82h7.73l0,1.87H302v3h5.07v1.87H302V15h-2.14Z"/><path class="cls-1" d="M24.72,28.24h2.39a2.59,2.59,0,0,0,.51,0A1,1,0,0,0,28,28a1.63,1.63,0,0,0,.3-.43,4,4,0,0,0,.26-.69H29l-.46,2.56H23V29c.92-.82,1.67-1.53,2.25-2.14a13.54,13.54,0,0,0,1.39-1.65,5.08,5.08,0,0,0,.69-1.35,4.15,4.15,0,0,0,.2-1.26,2.28,2.28,0,0,0-.44-1.47,1.45,1.45,0,0,0-1.19-.54,1.54,1.54,0,0,0-1.18.47,1.66,1.66,0,0,0-.45,1.21,1.45,1.45,0,0,0,.36,1,1.22,1.22,0,0,0,1,.38.72.72,0,0,1-.31.47,1.1,1.1,0,0,1-.62.17,1.41,1.41,0,0,1-.62-.13,1.48,1.48,0,0,1-.49-.37,1.78,1.78,0,0,1-.33-.57,2.43,2.43,0,0,1-.11-.73,2.26,2.26,0,0,1,.23-1,2.46,2.46,0,0,1,.62-.78,3,3,0,0,1,.94-.52,3.54,3.54,0,0,1,1.19-.2,3.32,3.32,0,0,1,1.16.2,2.45,2.45,0,0,1,.91.54,2.32,2.32,0,0,1,.6.82,2.52,2.52,0,0,1,.21,1,3.48,3.48,0,0,1-.33,1.46,6.68,6.68,0,0,1-.91,1.4,12.2,12.2,0,0,1-1.34,1.36c-.52.44-1.06.88-1.65,1.31Z"/><path class="cls-1" d="M34.05,20.06a2.7,2.7,0,0,1,1.38.37,3.76,3.76,0,0,1,1.13,1A5.28,5.28,0,0,1,37.32,23a6.15,6.15,0,0,1,.28,1.9,5.69,5.69,0,0,1-.28,1.82,5,5,0,0,1-.76,1.48,3.69,3.69,0,0,1-1.13,1,2.76,2.76,0,0,1-2.76,0,3.69,3.69,0,0,1-1.13-1,5,5,0,0,1-.76-1.48,5.69,5.69,0,0,1-.28-1.82,6.15,6.15,0,0,1,.28-1.9,5.28,5.28,0,0,1,.76-1.52,3.76,3.76,0,0,1,1.13-1A2.7,2.7,0,0,1,34.05,20.06Zm0,8.9a1.72,1.72,0,0,0,.83-.19,1.61,1.61,0,0,0,.63-.66,4.1,4.1,0,0,0,.39-1.25,11.71,11.71,0,0,0,.14-2,12.86,12.86,0,0,0-.14-2,4.54,4.54,0,0,0-.39-1.31,1.63,1.63,0,0,0-.62-.71,1.79,1.79,0,0,0-1.68,0,1.64,1.64,0,0,0-.63.71,4.91,4.91,0,0,0-.38,1.31,11.78,11.78,0,0,0-.14,2,10.73,10.73,0,0,0,.14,2,4.42,4.42,0,0,0,.38,1.25,1.55,1.55,0,0,0,.63.66A1.79,1.79,0,0,0,34.05,29Z"/><path class="cls-1" d="M42.62,20.06a2.75,2.75,0,0,1,1.38.37,3.73,3.73,0,0,1,1.12,1A5.3,5.3,0,0,1,45.89,23a6.46,6.46,0,0,1,.28,1.9,6,6,0,0,1-.28,1.82,5.06,5.06,0,0,1-.77,1.48,3.66,3.66,0,0,1-1.12,1,2.85,2.85,0,0,1-1.38.37,2.8,2.8,0,0,1-1.38-.37,3.58,3.58,0,0,1-1.13-1,4.81,4.81,0,0,1-.76-1.48,5.69,5.69,0,0,1-.29-1.82,6.15,6.15,0,0,1,.29-1.9,5,5,0,0,1,.76-1.52,3.65,3.65,0,0,1,1.13-1A2.7,2.7,0,0,1,42.62,20.06Zm0,8.9a1.72,1.72,0,0,0,.83-.19,1.59,1.59,0,0,0,.62-.66,3.83,3.83,0,0,0,.4-1.25,11.71,11.71,0,0,0,.14-2,12.86,12.86,0,0,0-.14-2,4.54,4.54,0,0,0-.39-1.31,1.51,1.51,0,0,0-1.46-.92,1.54,1.54,0,0,0-1.47.92,4.54,4.54,0,0,0-.39,1.31,12.86,12.86,0,0,0-.14,2,11.71,11.71,0,0,0,.14,2,4.1,4.1,0,0,0,.39,1.25,1.55,1.55,0,0,0,.63.66A1.74,1.74,0,0,0,42.62,29Z"/><path class="cls-1" d="M53.93,26.31a3.29,3.29,0,0,1-.24,1.26,3.25,3.25,0,0,1-.68,1,3,3,0,0,1-1,.69,3,3,0,0,1-1.24.26,2.73,2.73,0,0,1-1.26-.31,3,3,0,0,1-1-.86,4.21,4.21,0,0,1-.64-1.31,6,6,0,0,1-.23-1.69,6.93,6.93,0,0,1,.3-2.06,5.9,5.9,0,0,1,.82-1.69A4.08,4.08,0,0,1,50,20.48a2.81,2.81,0,0,1,1.48-.42,3.59,3.59,0,0,1,.81.09,2.84,2.84,0,0,1,.66.26,1.52,1.52,0,0,1,.44.39.79.79,0,0,1,.16.48.65.65,0,0,1-.17.46.68.68,0,0,1-.48.16.55.55,0,0,1-.49-.2,5,5,0,0,1-.29-.45,2,2,0,0,0-.33-.45.9.9,0,0,0-.66-.2,1.18,1.18,0,0,0-.77.28,2.56,2.56,0,0,0-.61.8,4.44,4.44,0,0,0-.41,1.2,7.08,7.08,0,0,0-.14,1.5l0,0a2.6,2.6,0,0,1,.84-.82,2.11,2.11,0,0,1,1.06-.26,2.77,2.77,0,0,1,2,.86,3.08,3.08,0,0,1,.6.95A3.22,3.22,0,0,1,53.93,26.31ZM49.13,26c0,2,.56,3,1.67,3A1.36,1.36,0,0,0,52,28.35a3.8,3.8,0,0,0,.4-2,3.62,3.62,0,0,0-.38-1.83,1.26,1.26,0,0,0-1.13-.62,1.44,1.44,0,0,0-1,.36,3.81,3.81,0,0,0-.82,1.16Z"/><path class="cls-1" d="M59,26.44v-1h3.71v1Z"/><path class="cls-1" d="M69.41,28.24H71.8a2.41,2.41,0,0,0,.5,0,.92.92,0,0,0,.39-.21,1.63,1.63,0,0,0,.3-.43,5.1,5.1,0,0,0,.26-.69h.45l-.46,2.56H67.66V29c.91-.82,1.66-1.53,2.25-2.14a13.54,13.54,0,0,0,1.39-1.65A5.4,5.4,0,0,0,72,23.88a4.14,4.14,0,0,0,.19-1.26,2.28,2.28,0,0,0-.43-1.47,1.47,1.47,0,0,0-1.2-.54,1.52,1.52,0,0,0-1.17.47,1.66,1.66,0,0,0-.45,1.21,1.45,1.45,0,0,0,.36,1,1.21,1.21,0,0,0,1,.38.72.72,0,0,1-.31.47,1.13,1.13,0,0,1-.62.17,1.41,1.41,0,0,1-.62-.13,1.48,1.48,0,0,1-.49-.37,1.78,1.78,0,0,1-.33-.57,2.43,2.43,0,0,1-.11-.73,2.13,2.13,0,0,1,.23-1,2.46,2.46,0,0,1,.62-.78,2.85,2.85,0,0,1,.94-.52,3.52,3.52,0,0,1,1.18-.2,3.34,3.34,0,0,1,1.17.2,2.53,2.53,0,0,1,.91.54,2.3,2.3,0,0,1,.59.82,2.52,2.52,0,0,1,.21,1,3.48,3.48,0,0,1-.33,1.46,6.61,6.61,0,0,1-.9,1.4A12.33,12.33,0,0,1,71,26.87c-.51.44-1.06.88-1.64,1.31Z"/><path class="cls-1" d="M78.74,20.06a2.75,2.75,0,0,1,1.38.37,3.73,3.73,0,0,1,1.12,1A5.3,5.3,0,0,1,82,23a6.46,6.46,0,0,1,.28,1.9A6,6,0,0,1,82,26.69a5.06,5.06,0,0,1-.77,1.48,3.66,3.66,0,0,1-1.12,1,2.85,2.85,0,0,1-1.38.37,2.8,2.8,0,0,1-1.38-.37,3.58,3.58,0,0,1-1.13-1,4.81,4.81,0,0,1-.76-1.48,5.69,5.69,0,0,1-.29-1.82,6.15,6.15,0,0,1,.29-1.9,5,5,0,0,1,.76-1.52,3.65,3.65,0,0,1,1.13-1A2.7,2.7,0,0,1,78.74,20.06Zm0,8.9a1.72,1.72,0,0,0,.83-.19,1.59,1.59,0,0,0,.62-.66,3.83,3.83,0,0,0,.4-1.25,11.71,11.71,0,0,0,.14-2,12.86,12.86,0,0,0-.14-2,4.54,4.54,0,0,0-.39-1.31,1.51,1.51,0,0,0-1.46-.92,1.54,1.54,0,0,0-1.47.92,4.54,4.54,0,0,0-.39,1.31,12.86,12.86,0,0,0-.14,2,11.71,11.71,0,0,0,.14,2,4.1,4.1,0,0,0,.39,1.25,1.55,1.55,0,0,0,.63.66A1.74,1.74,0,0,0,78.74,29Z"/><path class="cls-1" d="M87.3,20.06a2.7,2.7,0,0,1,1.38.37,3.65,3.65,0,0,1,1.13,1A5,5,0,0,1,90.57,23a6.15,6.15,0,0,1,.29,1.9,5.69,5.69,0,0,1-.29,1.82,4.81,4.81,0,0,1-.76,1.48,3.58,3.58,0,0,1-1.13,1,2.8,2.8,0,0,1-1.38.37,2.85,2.85,0,0,1-1.38-.37,3.66,3.66,0,0,1-1.12-1A5.06,5.06,0,0,1,84,26.69a6,6,0,0,1-.28-1.82A6.46,6.46,0,0,1,84,23a5.3,5.3,0,0,1,.77-1.52,3.73,3.73,0,0,1,1.12-1A2.75,2.75,0,0,1,87.3,20.06Zm0,8.9a1.76,1.76,0,0,0,.84-.19,1.59,1.59,0,0,0,.62-.66,4.08,4.08,0,0,0,.4-1.25,11.71,11.71,0,0,0,.14-2,12.86,12.86,0,0,0-.14-2,4.54,4.54,0,0,0-.39-1.31,1.54,1.54,0,0,0-1.47-.92,1.51,1.51,0,0,0-1.46.92,4.54,4.54,0,0,0-.39,1.31,12.86,12.86,0,0,0-.14,2,11.71,11.71,0,0,0,.14,2,4.1,4.1,0,0,0,.39,1.25,1.59,1.59,0,0,0,.62.66A1.79,1.79,0,0,0,87.3,29Z"/><path class="cls-1" d="M96.21,24.22a3,3,0,0,1,1.92,2.65,2.6,2.6,0,0,1-.22,1.05,2.63,2.63,0,0,1-.62.85,2.86,2.86,0,0,1-.94.56,3.19,3.19,0,0,1-1.16.21,3.49,3.49,0,0,1-1.14-.18,2.78,2.78,0,0,1-.92-.48,2.21,2.21,0,0,1-.61-.72,1.87,1.87,0,0,1-.22-.9c0-1,.67-1.83,2-2.48a2.65,2.65,0,0,1-1.69-2.32,2.35,2.35,0,0,1,.77-1.73,2.56,2.56,0,0,1,1.8-.67,2.91,2.91,0,0,1,1.68.5,2.35,2.35,0,0,1,.68.73,1.82,1.82,0,0,1,.23.89,1.87,1.87,0,0,1-.37,1.13A3.1,3.1,0,0,1,96.21,24.22ZM94.82,25a2.81,2.81,0,0,0-1,.94,2.29,2.29,0,0,0-.34,1.24,1.74,1.74,0,0,0,.48,1.29,2.09,2.09,0,0,0,2.63,0A1.64,1.64,0,0,0,97,27.27a1.53,1.53,0,0,0-.08-.49,1.55,1.55,0,0,0-.25-.45,2.5,2.5,0,0,0-.47-.43,7.11,7.11,0,0,0-.7-.46ZM95.7,24a2.74,2.74,0,0,0,.8-.79,1.72,1.72,0,0,0,.28-.94,1.75,1.75,0,0,0-.12-.65,1.63,1.63,0,0,0-.87-.87,1.76,1.76,0,0,0-.66-.12,1.49,1.49,0,0,0-1.08.38,1.36,1.36,0,0,0-.4,1,1.29,1.29,0,0,0,.35.87,4.09,4.09,0,0,0,1.14.81Z"/><path class="cls-1" d="M111.54,27.51a4.86,4.86,0,0,0,0,.74.86.86,0,0,0,.19.43.73.73,0,0,0,.39.21,3.85,3.85,0,0,0,.68.07v.46H109V29a3.75,3.75,0,0,0,.68-.07.77.77,0,0,0,.4-.21.76.76,0,0,0,.2-.4,4.41,4.41,0,0,0,0-.69V25h-4.86v2.52a4.86,4.86,0,0,0,0,.74.86.86,0,0,0,.19.43.73.73,0,0,0,.39.21,3.85,3.85,0,0,0,.68.07v.46h-3.89V29a3.75,3.75,0,0,0,.68-.07.77.77,0,0,0,.4-.21.76.76,0,0,0,.2-.4,4.41,4.41,0,0,0,0-.69V22a4.2,4.2,0,0,0,0-.68.81.81,0,0,0-.17-.41.63.63,0,0,0-.36-.2,4.1,4.1,0,0,0-.63-.08v-.45h3.65v.45a3.22,3.22,0,0,0-.62.07.73.73,0,0,0-.36.22.84.84,0,0,0-.16.43,4.72,4.72,0,0,0,0,.73v2.31h4.86V22a4.2,4.2,0,0,0,0-.68.81.81,0,0,0-.17-.41.63.63,0,0,0-.36-.2,4.1,4.1,0,0,0-.63-.08v-.45h3.65v.45a3.22,3.22,0,0,0-.62.07.73.73,0,0,0-.36.22.84.84,0,0,0-.16.43,4.72,4.72,0,0,0,0,.73Z"/><path class="cls-1" d="M116.52,27.51a3.73,3.73,0,0,0,.06.74.7.7,0,0,0,.23.43,1.09,1.09,0,0,0,.51.21,6.1,6.1,0,0,0,.87.07v.46h-4.25V29a3.75,3.75,0,0,0,.68-.07.77.77,0,0,0,.4-.21.76.76,0,0,0,.2-.4,4.41,4.41,0,0,0,0-.69V22a4.2,4.2,0,0,0,0-.68.81.81,0,0,0-.17-.41.63.63,0,0,0-.36-.2,4.1,4.1,0,0,0-.63-.08v-.45H121l.13,2.29h-.42a2.81,2.81,0,0,0-.23-.85,1.3,1.3,0,0,0-.43-.52,1.8,1.8,0,0,0-.72-.27,6.45,6.45,0,0,0-1.08-.08h-1.52a.19.19,0,0,0-.21.21v3.62a5.6,5.6,0,0,0,1-.07,1.81,1.81,0,0,0,.69-.23,1.08,1.08,0,0,0,.41-.46,1.87,1.87,0,0,0,.18-.74h.42V26.6h-.42a2.71,2.71,0,0,0-.19-.76,1.12,1.12,0,0,0-.39-.47,1.81,1.81,0,0,0-.67-.24,5.81,5.81,0,0,0-1-.07Z"/><path class="cls-1" d="M33.75,116.36H31.17l-3.52-4.8-1.76,1.94v2.86H23.75v-11.2h2.14v5.58L31,105.16h2.53l-4.31,4.74Z"/><path class="cls-1" d="M35.37,105.16h8.2V107H37.51v2.77H43v1.87H37.51v2.82h6.25v1.87H35.37Z"/><path class="cls-1" d="M54.23,116.36l-1-2.37H47.76l-1,2.37H44.55l4.91-11.2h2.22l4.85,11.2Zm-5.7-4.21h3.94l-1.95-4.7Z"/><path class="cls-1" d="M61.38,110.76h4v1.44h-4Z"/><path class="cls-1" d="M81.65,116.36H79.08l-3.52-4.8L73.8,113.5v2.86H71.65v-11.2H73.8v5.58l5-5.58h2.53l-4.3,4.74Z"/><path class="cls-1" d="M91,110.14a4.62,4.62,0,0,1,.4,1.93,4.5,4.5,0,0,1-.57,2.29,4,4,0,0,1-1.58,1.54,4.94,4.94,0,0,1-2.35.54,5.17,5.17,0,0,1-2.05-.4l-1.21,1.79H82.34l1.6-2.35A3.88,3.88,0,0,1,82.8,114a4.73,4.73,0,0,1-.4-2,4.41,4.41,0,0,1,.57-2.26,3.91,3.91,0,0,1,1.59-1.53,5,5,0,0,1,2.37-.54,5,5,0,0,1,2,.4l1.24-1.81h1.32l-1.61,2.37A3.9,3.9,0,0,1,91,110.14ZM85,114l3-4.42a2.86,2.86,0,0,0-1.06-.21,2.43,2.43,0,0,0-1.84.76,2.81,2.81,0,0,0-.7,2A2.93,2.93,0,0,0,85,114Zm3.78.12a2.82,2.82,0,0,0,.7-2,2.86,2.86,0,0,0-.61-1.87l-3,4.42a2.66,2.66,0,0,0,1.09.22A2.34,2.34,0,0,0,88.76,114.1Z"/><path class="cls-1" d="M100.4,108.29a3.78,3.78,0,0,1,1.42,1.54,5.48,5.48,0,0,1,0,4.55,3.7,3.7,0,0,1-1.41,1.52,4.06,4.06,0,0,1-2.11.54,3.58,3.58,0,0,1-1.7-.38A3.16,3.16,0,0,1,95.4,115v1.39H93.32V104.49H95.4v4.72a3.06,3.06,0,0,1,1.19-1.1,3.63,3.63,0,0,1,1.69-.37A4,4,0,0,1,100.4,108.29Zm-.86,5.63a2.92,2.92,0,0,0,0-3.72,2.45,2.45,0,0,0-3.47,0,2.93,2.93,0,0,0,0,3.73,2.28,2.28,0,0,0,1.74.72A2.23,2.23,0,0,0,99.54,113.92Z"/><path class="cls-1" d="M110.78,108.9a4.8,4.8,0,0,1,1,3.28c0,.28,0,.49,0,.63h-6.32a2.37,2.37,0,0,0,2.44,2,3.18,3.18,0,0,0,1.26-.25,3,3,0,0,0,1-.71l1.12,1.17a4.44,4.44,0,0,1-1.56,1.09,5.41,5.41,0,0,1-2,.38,4.75,4.75,0,0,1-2.31-.54,3.87,3.87,0,0,1-1.55-1.53,4.65,4.65,0,0,1-.54-2.27,4.57,4.57,0,0,1,.55-2.27,3.93,3.93,0,0,1,1.54-1.54,4.58,4.58,0,0,1,2.26-.55A3.92,3.92,0,0,1,110.78,108.9Zm-.87,2.52a2.08,2.08,0,0,0-.63-1.51,2.18,2.18,0,0,0-1.56-.56,2.24,2.24,0,0,0-1.53.55,2.44,2.44,0,0,0-.76,1.52Z"/><path class="cls-1" d="M121.08,108.61a3.35,3.35,0,0,1,.84,2.41v5.34h-2.09v-4.74a1.94,1.94,0,0,0-.51-1.41,1.88,1.88,0,0,0-1.4-.52,2.1,2.1,0,0,0-1.64.7,2.59,2.59,0,0,0-.6,1.76v4.21H113.6V107.8h2.08v1.6a3.25,3.25,0,0,1,3.08-1.68A3.07,3.07,0,0,1,121.08,108.61Z"/><path class="cls-1" d="M131.83,108.61a3.36,3.36,0,0,1,.85,2.41v5.34h-2.1v-4.74a1.94,1.94,0,0,0-.51-1.41,1.86,1.86,0,0,0-1.39-.52,2.11,2.11,0,0,0-1.65.7,2.55,2.55,0,0,0-.61,1.76v4.21h-2.08V104.49h2.08v4.94a3.25,3.25,0,0,1,3.09-1.71A3.07,3.07,0,0,1,131.83,108.61Z"/><path class="cls-1" d="M140.07,116.36v-1a2.82,2.82,0,0,1-1.15.85,4.29,4.29,0,0,1-1.62.29,3.47,3.47,0,0,1-1.58-.35,2.46,2.46,0,0,1-1-1,2.53,2.53,0,0,1-.37-1.36,2.26,2.26,0,0,1,.85-1.88,3.87,3.87,0,0,1,2.4-.7h2.49V111a1.45,1.45,0,0,0-.49-1.17,2.26,2.26,0,0,0-1.44-.41,4.89,4.89,0,0,0-2.55.8l-.75-1.44a8.73,8.73,0,0,1,1.83-.81,6.55,6.55,0,0,1,1.93-.25,3.81,3.81,0,0,1,2.58.8,2.83,2.83,0,0,1,.94,2.24l0,5.6Zm-.74-1.93a1.45,1.45,0,0,0,.72-1.05v-.76h-2.16a2.4,2.4,0,0,0-1.22.24.9.9,0,0,0-.39.81,1,1,0,0,0,.4.87,1.82,1.82,0,0,0,1.12.32A2.65,2.65,0,0,0,139.33,114.43Z"/><path class="cls-1" d="M142.92,107.82l2.17,0,2.24,6.51,2.19-6.51h2.1l-3.26,8.56h-2.15Z"/><path class="cls-1" d="M160.37,108.61a3.31,3.31,0,0,1,.85,2.41v5.34h-2.1v-4.74a1.94,1.94,0,0,0-.51-1.41,1.84,1.84,0,0,0-1.39-.52,2.1,2.1,0,0,0-1.64.7,2.59,2.59,0,0,0-.6,1.76v4.21H152.9V107.8H155v1.6a3.24,3.24,0,0,1,3.07-1.68A3.06,3.06,0,0,1,160.37,108.61Z"/><path class="cls-1" d="M167.34,109.54a4.36,4.36,0,0,0-1.22-.2,1.64,1.64,0,0,0-.84.18.61.61,0,0,0-.32.57.65.65,0,0,0,.4.61,5.78,5.78,0,0,0,1.24.46,11.77,11.77,0,0,1,1.47.54,2.75,2.75,0,0,1,1,.78,2.11,2.11,0,0,1,.42,1.37,2.21,2.21,0,0,1-1,1.92,4.08,4.08,0,0,1-2.41.67,6.06,6.06,0,0,1-1.94-.31,4.68,4.68,0,0,1-1.6-.89l.72-1.46a4,4,0,0,0,1.38.78,4.5,4.5,0,0,0,1.52.28,1.87,1.87,0,0,0,.92-.2.66.66,0,0,0,.34-.6.72.72,0,0,0-.4-.67,7,7,0,0,0-1.3-.5,11.92,11.92,0,0,1-1.4-.5,2.64,2.64,0,0,1-1-.75,2.06,2.06,0,0,1-.4-1.32,2.23,2.23,0,0,1,.92-1.93,3.87,3.87,0,0,1,2.31-.67,6,6,0,0,1,1.68.24,5.29,5.29,0,0,1,1.46.68l-.75,1.5A6.73,6.73,0,0,0,167.34,109.54Z"/><path class="cls-1" d="M175.27,105.16h8.2V107h-6.06v2.77h5.44v1.87h-5.44v2.82h6.26v1.87h-8.4Z"/><path class="cls-1" d="M189,108.18a3.36,3.36,0,0,1,1.74-.46v2a2.79,2.79,0,0,0-2.12.61,2.38,2.38,0,0,0-.8,1.88v4.13h-2.08V107.8h2.08v1.65A3,3,0,0,1,189,108.18Z"/><path class="cls-1" d="M199.78,108.61a3.36,3.36,0,0,1,.85,2.41v5.34h-2.1v-4.74a1.94,1.94,0,0,0-.51-1.41,1.86,1.86,0,0,0-1.39-.52,2.11,2.11,0,0,0-1.65.7,2.55,2.55,0,0,0-.61,1.76v4.21h-2.08V104.49h2.08v4.94a3.25,3.25,0,0,1,3.09-1.71A3.07,3.07,0,0,1,199.78,108.61Z"/><path class="cls-1" d="M201.43,107.82l2.17,0,2.24,6.51L208,107.8h2.1l-3.26,8.56h-2.15Z"/><path class="cls-1" d="M217.68,108.9a4.85,4.85,0,0,1,1,3.28c0,.28,0,.49,0,.63h-6.32a2.5,2.5,0,0,0,.86,1.43,2.43,2.43,0,0,0,1.59.52,3.1,3.1,0,0,0,1.25-.25,3,3,0,0,0,1.05-.71l1.12,1.17a4.26,4.26,0,0,1-1.56,1.09,5.33,5.33,0,0,1-2,.38,4.8,4.8,0,0,1-2.31-.54,3.84,3.84,0,0,1-1.54-1.53,4.92,4.92,0,0,1,0-4.54,3.87,3.87,0,0,1,1.54-1.54,4.52,4.52,0,0,1,2.25-.55A3.94,3.94,0,0,1,217.68,108.9Zm-.88,2.52a2.11,2.11,0,0,0-.62-1.51,2.22,2.22,0,0,0-1.57-.56,2.24,2.24,0,0,0-1.53.55,2.49,2.49,0,0,0-.76,1.52Z"/><path class="cls-1" d="M223.75,108.18a3.42,3.42,0,0,1,1.74-.46v2a2.81,2.81,0,0,0-2.12.61,2.38,2.38,0,0,0-.79,1.88v4.13H220.5V107.8h2.08v1.65A3.07,3.07,0,0,1,223.75,108.18Z"/><path class="cls-1" d="M226,107.82l2.18,0,2.24,6.51,2.19-6.51h2.1l-3.27,8.56h-2.14Z"/><path class="cls-1" d="M239.63,109.54a4.43,4.43,0,0,0-1.23-.2,1.69,1.69,0,0,0-.84.18.61.61,0,0,0-.31.57.66.66,0,0,0,.39.61,6,6,0,0,0,1.24.46,10.69,10.69,0,0,1,1.47.54,2.6,2.6,0,0,1,1,.78,2.06,2.06,0,0,1,.43,1.37,2.21,2.21,0,0,1-1,1.92,4.11,4.11,0,0,1-2.42.67,6,6,0,0,1-1.93-.31,4.59,4.59,0,0,1-1.6-.89l.72-1.46a4.09,4.09,0,0,0,1.37.78,4.55,4.55,0,0,0,1.52.28,1.85,1.85,0,0,0,.92-.2.65.65,0,0,0,.35-.6.73.73,0,0,0-.4-.67,7,7,0,0,0-1.3-.5,12.16,12.16,0,0,1-1.41-.5,2.69,2.69,0,0,1-.94-.75,2.06,2.06,0,0,1-.4-1.32,2.21,2.21,0,0,1,.92-1.93,3.85,3.85,0,0,1,2.31-.67,6,6,0,0,1,1.67.24,5.22,5.22,0,0,1,1.47.68l-.76,1.5A6.38,6.38,0,0,0,239.63,109.54Z"/><path class="cls-1" d="M248.61,116.36v-1a2.82,2.82,0,0,1-1.15.85,4.29,4.29,0,0,1-1.62.29,3.4,3.4,0,0,1-1.57-.35,2.43,2.43,0,0,1-1.05-1,2.53,2.53,0,0,1-.37-1.36,2.26,2.26,0,0,1,.85-1.88,3.87,3.87,0,0,1,2.4-.7h2.49V111a1.45,1.45,0,0,0-.49-1.17,2.23,2.23,0,0,0-1.44-.41,4.92,4.92,0,0,0-2.55.8l-.75-1.44a8.73,8.73,0,0,1,1.83-.81,6.6,6.6,0,0,1,1.93-.25,3.86,3.86,0,0,1,2.59.8,2.86,2.86,0,0,1,.93,2.24l0,5.6Zm-.74-1.93a1.45,1.45,0,0,0,.72-1.05v-.76h-2.16a2.4,2.4,0,0,0-1.22.24.9.9,0,0,0-.39.81,1,1,0,0,0,.41.87,1.77,1.77,0,0,0,1.11.32A2.62,2.62,0,0,0,247.87,114.43Z"/><path class="cls-1" d="M258.79,116.36l-2.32-3.74L255.15,114v2.37h-2.08V104.49h2.08v6.88l3.52-3.55h2.4l-3.16,3.29,3.36,5.25Z"/><path class="cls-1" d="M267.33,116.36v-1a2.82,2.82,0,0,1-1.15.85,4.29,4.29,0,0,1-1.62.29,3.4,3.4,0,0,1-1.57-.35,2.43,2.43,0,0,1-1.05-1,2.53,2.53,0,0,1-.37-1.36,2.26,2.26,0,0,1,.85-1.88,3.87,3.87,0,0,1,2.4-.7h2.49V111a1.45,1.45,0,0,0-.49-1.17,2.23,2.23,0,0,0-1.44-.41,4.92,4.92,0,0,0-2.55.8l-.75-1.44a8.73,8.73,0,0,1,1.83-.81,6.6,6.6,0,0,1,1.93-.25,3.86,3.86,0,0,1,2.59.8,2.86,2.86,0,0,1,.93,2.24l0,5.6Zm-.74-1.93a1.45,1.45,0,0,0,.72-1.05v-.76h-2.16a2.4,2.4,0,0,0-1.22.24.9.9,0,0,0-.39.81,1,1,0,0,0,.41.87,1.77,1.77,0,0,0,1.11.32A2.62,2.62,0,0,0,266.59,114.43Z"/><path class="cls-1" d="M280,104.49v11.87h-2.08V115a3.13,3.13,0,0,1-1.19,1.1,3.66,3.66,0,0,1-1.69.38,4.09,4.09,0,0,1-2.14-.56,3.7,3.7,0,0,1-1.43-1.55,5.4,5.4,0,0,1,0-4.56,3.77,3.77,0,0,1,1.43-1.53,4.05,4.05,0,0,1,2.1-.54,3.71,3.71,0,0,1,1.71.38,3.32,3.32,0,0,1,1.22,1.11v-4.72ZM277.21,114a2.65,2.65,0,0,0,.68-1.88,2.68,2.68,0,0,0-.68-1.88,2.49,2.49,0,0,0-3.5,0,2.77,2.77,0,0,0-.68,1.88,2.74,2.74,0,0,0,.68,1.88,2.46,2.46,0,0,0,3.5,0Z"/><path class="cls-1" d="M289.29,108.9a4.8,4.8,0,0,1,1,3.28c0,.28,0,.49,0,.63H284a2.37,2.37,0,0,0,2.44,2,3.18,3.18,0,0,0,1.26-.25,3,3,0,0,0,1.05-.71l1.12,1.17a4.44,4.44,0,0,1-1.56,1.09,5.41,5.41,0,0,1-2,.38,4.75,4.75,0,0,1-2.31-.54,3.87,3.87,0,0,1-1.55-1.53,4.65,4.65,0,0,1-.54-2.27,4.57,4.57,0,0,1,.55-2.27,3.93,3.93,0,0,1,1.54-1.54,4.58,4.58,0,0,1,2.26-.55A3.92,3.92,0,0,1,289.29,108.9Zm-.87,2.52a2.08,2.08,0,0,0-.63-1.51,2.18,2.18,0,0,0-1.56-.56,2.24,2.24,0,0,0-1.53.55,2.44,2.44,0,0,0-.76,1.52Z"/><path class="cls-1" d="M305.62,108.61a3.39,3.39,0,0,1,.83,2.41v5.34h-2.1v-4.74a2,2,0,0,0-.5-1.43,1.85,1.85,0,0,0-1.37-.52,2,2,0,0,0-1.57.72,2.61,2.61,0,0,0-.59,1.75v4.22h-2.09v-4.74a2,2,0,0,0-.5-1.43,1.81,1.81,0,0,0-1.36-.52,2.06,2.06,0,0,0-1.59.72,2.61,2.61,0,0,0-.59,1.75v4.22h-2.08V107.8h2.08v1.58a3.55,3.55,0,0,1,4.89-1.12,2.81,2.81,0,0,1,1.07,1.51,3.15,3.15,0,0,1,3.18-2A3,3,0,0,1,305.62,108.61Z"/><path class="cls-1" d="M310.64,104.47a1.25,1.25,0,0,1,.34.9,1.21,1.21,0,0,1-.34.88,1.2,1.2,0,0,1-1.69,0,1.21,1.21,0,0,1-.34-.88,1.25,1.25,0,0,1,.34-.9,1.2,1.2,0,0,1,1.69,0Zm-1.87,3.33h2.08v8.56h-2.08Z"/><path class="cls-1" d="M24.72,129.58h2.39a2,2,0,0,0,.51-.05,1,1,0,0,0,.38-.21,1.48,1.48,0,0,0,.3-.43,4,4,0,0,0,.26-.69H29l-.46,2.56H23v-.4c.92-.81,1.67-1.53,2.25-2.14a13.54,13.54,0,0,0,1.39-1.65,5.08,5.08,0,0,0,.69-1.35,4.13,4.13,0,0,0,.2-1.25,2.29,2.29,0,0,0-.44-1.48,1.45,1.45,0,0,0-1.19-.54,1.58,1.58,0,0,0-1.18.47,1.68,1.68,0,0,0-.45,1.21,1.44,1.44,0,0,0,.36,1,1.23,1.23,0,0,0,1,.39.73.73,0,0,1-.31.46,1,1,0,0,1-.62.17,1.41,1.41,0,0,1-.62-.13,1.48,1.48,0,0,1-.49-.37,1.78,1.78,0,0,1-.33-.57,2.38,2.38,0,0,1-.11-.73,2.19,2.19,0,0,1,.23-1,2.39,2.39,0,0,1,.62-.79,3.17,3.17,0,0,1,.94-.52,3.54,3.54,0,0,1,1.19-.19,3.32,3.32,0,0,1,1.16.19,2.75,2.75,0,0,1,.91.54,2.42,2.42,0,0,1,.6.82,2.59,2.59,0,0,1,.21,1,3.45,3.45,0,0,1-.33,1.46,6.43,6.43,0,0,1-.91,1.4,11.4,11.4,0,0,1-1.34,1.36c-.52.44-1.06.88-1.65,1.31Z"/><path class="cls-1" d="M34.05,121.4a2.7,2.7,0,0,1,1.38.37,3.76,3.76,0,0,1,1.13,1,5.21,5.21,0,0,1,.76,1.53,6,6,0,0,1,.28,1.89,5.75,5.75,0,0,1-.28,1.83,5.17,5.17,0,0,1-.76,1.48,3.66,3.66,0,0,1-1.13,1,2.76,2.76,0,0,1-2.76,0,3.66,3.66,0,0,1-1.13-1,5.17,5.17,0,0,1-.76-1.48,5.75,5.75,0,0,1-.28-1.83,6,6,0,0,1,.28-1.89,5.21,5.21,0,0,1,.76-1.53,3.76,3.76,0,0,1,1.13-1A2.7,2.7,0,0,1,34.05,121.4Zm0,8.9a1.72,1.72,0,0,0,.83-.19,1.61,1.61,0,0,0,.63-.66,4.1,4.1,0,0,0,.39-1.25,11.66,11.66,0,0,0,.14-1.95,12.68,12.68,0,0,0-.14-2,4.62,4.62,0,0,0-.39-1.32,1.6,1.6,0,0,0-.62-.7,1.78,1.78,0,0,0-1.68,0,1.61,1.61,0,0,0-.63.7,5,5,0,0,0-.38,1.32,11.62,11.62,0,0,0-.14,2,10.69,10.69,0,0,0,.14,1.95,4.42,4.42,0,0,0,.38,1.25,1.55,1.55,0,0,0,.63.66A1.79,1.79,0,0,0,34.05,130.3Z"/><path class="cls-1" d="M41.64,128.82a4.91,4.91,0,0,0,0,.75.83.83,0,0,0,.17.44.66.66,0,0,0,.38.22,2.73,2.73,0,0,0,.65.07v.46H39.22v-.46a2.7,2.7,0,0,0,.64-.07.87.87,0,0,0,.39-.22.81.81,0,0,0,.18-.42,6.12,6.12,0,0,0,0-.69v-4.4c0-.47,0-.85,0-1.16a3.41,3.41,0,0,0,0-.6.42.42,0,0,0-.36-.32,5,5,0,0,0-.9-.06v-.46a7,7,0,0,0,1.24-.16,9,9,0,0,0,1.24-.34Z"/><path class="cls-1" d="M48.69,122.71H46.46a7.56,7.56,0,0,0-.76,0,1.19,1.19,0,0,0-.47.13.81.81,0,0,0-.29.29,3,3,0,0,0-.24.53l-.18.47h-.45l.84-3.36h.48a.61.61,0,0,0,0,.17,1.56,1.56,0,0,0,0,.2.27.27,0,0,0,.18.28,2.3,2.3,0,0,0,.73.07h3.52v.24c-.27.6-.5,1.13-.7,1.59s-.39.88-.56,1.26l-.45,1.07c-.13.34-.27.68-.41,1s-.28.72-.43,1.11-.32.83-.5,1.32-.26.65-.37.87a3.16,3.16,0,0,1-.3.54,1,1,0,0,1-.28.27.63.63,0,0,1-.3.07.46.46,0,0,1-.36-.16.49.49,0,0,1-.15-.33,1.48,1.48,0,0,1,0-.21,1.88,1.88,0,0,1,.09-.3,4.64,4.64,0,0,1,.2-.49c.09-.2.22-.45.38-.77s.34-.69.58-1.14l.84-1.64Z"/><path class="cls-1" d="M54.08,127.78v-1h3.7v1Z"/><path class="cls-1" d="M64.74,128.88c0,.32,0,.58,0,.77a.92.92,0,0,0,.12.43.49.49,0,0,0,.3.2,3.24,3.24,0,0,0,.55.07v.41H62.6v-.41a3,3,0,0,0,.53-.07.58.58,0,0,0,.31-.19.86.86,0,0,0,.13-.41,6.83,6.83,0,0,0,0-.72v-1.6a11.42,11.42,0,0,0-.07-1.74.73.73,0,0,0-.09-.25.35.35,0,0,0-.16-.16.67.67,0,0,0-.28-.07l-.43,0v-.38l1.92-.46.15,1.19h0a3.32,3.32,0,0,1,1.07-.88,2.86,2.86,0,0,1,1.33-.31,2.71,2.71,0,0,1,1,.18,1.55,1.55,0,0,1,.7.49,1.9,1.9,0,0,1,.29.72,7.35,7.35,0,0,1,.08,1.2v2c0,.32,0,.58,0,.77a.91.91,0,0,0,.13.43.44.44,0,0,0,.29.2,3,3,0,0,0,.52.07v.41H67v-.41a3.13,3.13,0,0,0,.54-.06.59.59,0,0,0,.3-.2.91.91,0,0,0,.13-.42,6.62,6.62,0,0,0,0-.71v-1.58a7.67,7.67,0,0,0-.07-1.16,2.2,2.2,0,0,0-.24-.75,1,1,0,0,0-.42-.42,1.56,1.56,0,0,0-.64-.12,1.81,1.81,0,0,0-1,.28,2,2,0,0,0-.7.77c0,.08-.07.16-.1.23a1.49,1.49,0,0,0-.07.25,3.11,3.11,0,0,0,0,.33c0,.13,0,.29,0,.48Z"/><path class="cls-1" d="M76,126.32a7.51,7.51,0,0,0,0-.77,1,1,0,0,0-.12-.44.54.54,0,0,0-.3-.2,3,3,0,0,0-.55-.09v-.42h2.17v3.68c0,.46,0,.83,0,1.12s0,.5,0,.65a1,1,0,0,0,.08.24.46.46,0,0,0,.16.15,1,1,0,0,0,.29.07l.45,0v.42l-2,.14-.14-1.44h0A3.15,3.15,0,0,1,75,130.54a2.45,2.45,0,0,1-1.25.34,2.5,2.5,0,0,1-1-.19,1.6,1.6,0,0,1-.72-.52,1.77,1.77,0,0,1-.29-.73,6.64,6.64,0,0,1-.09-1.21v-1.91a7.51,7.51,0,0,0,0-.77.85.85,0,0,0-.12-.44.54.54,0,0,0-.3-.2,2.84,2.84,0,0,0-.55-.09v-.42h2.17v3.28a4.37,4.37,0,0,0,.31,1.89,1,1,0,0,0,1,.59c.7,0,1.25-.46,1.64-1.38l.1-.26.06-.27a2.69,2.69,0,0,0,0-.32c0-.12,0-.27,0-.43Z"/><path class="cls-1" d="M88.5,128.61l3.12-7.09h2.69V122a2.09,2.09,0,0,0-.62.09.77.77,0,0,0-.36.28,1.33,1.33,0,0,0-.16.55,7,7,0,0,0,0,.89v4.7a7.63,7.63,0,0,0,0,.95,1.22,1.22,0,0,0,.19.54.62.62,0,0,0,.39.25,3.09,3.09,0,0,0,.68.07v.46H90.54v-.46a3,3,0,0,0,.68-.07.75.75,0,0,0,.4-.25,1.09,1.09,0,0,0,.2-.51,7.1,7.1,0,0,0,0-.89V123h-.12l-3.5,7.87H88L84.53,123h0v5.48a7.63,7.63,0,0,0,0,.95,1.22,1.22,0,0,0,.19.54.62.62,0,0,0,.39.25,3.09,3.09,0,0,0,.68.07v.46H82.44v-.46a3,3,0,0,0,.68-.07.75.75,0,0,0,.4-.25,1.09,1.09,0,0,0,.2-.51,7.1,7.1,0,0,0,0-.89V123.7a6.47,6.47,0,0,0,0-.83,1.18,1.18,0,0,0-.17-.52.62.62,0,0,0-.36-.27,2.44,2.44,0,0,0-.63-.1v-.46h2.87l3,7.09Z"/><path class="cls-1" d="M100.3,126.32c0-.33,0-.59,0-.77a1,1,0,0,0-.13-.44.54.54,0,0,0-.3-.2,2.71,2.71,0,0,0-.55-.09v-.42h2.18v3.68c0,.46,0,.83,0,1.12a6.07,6.07,0,0,0,.06.65.52.52,0,0,0,.08.24.39.39,0,0,0,.16.15.88.88,0,0,0,.28.07l.45,0v.42l-2,.14-.13-1.44h0a3,3,0,0,1-1,1.09,2.44,2.44,0,0,1-1.24.34,2.55,2.55,0,0,1-1-.19,1.57,1.57,0,0,1-.71-.52,1.64,1.64,0,0,1-.3-.73,6.64,6.64,0,0,1-.09-1.21v-1.91c0-.33,0-.59,0-.77a1,1,0,0,0-.13-.44.54.54,0,0,0-.3-.2,2.72,2.72,0,0,0-.54-.09v-.42h2.17v3.28a4.39,4.39,0,0,0,.3,1.89,1,1,0,0,0,1,.59c.71,0,1.25-.46,1.65-1.38a2,2,0,0,0,.09-.26,1.07,1.07,0,0,0,.06-.27,2.53,2.53,0,0,0,0-.32c0-.12,0-.27,0-.43Z"/><path class="cls-1" d="M105.29,128.89a4.81,4.81,0,0,0,0,.73.84.84,0,0,0,.15.43.53.53,0,0,0,.32.22,2.57,2.57,0,0,0,.56.07v.42h-3.31v-.42a2,2,0,0,0,.57-.08.69.69,0,0,0,.35-.21.73.73,0,0,0,.16-.4,4,4,0,0,0,.05-.68V123.8c0-.43,0-.79,0-1.09a2.84,2.84,0,0,0-.06-.59.48.48,0,0,0-.28-.37,2.1,2.1,0,0,0-.8-.1v-.41l2.27-.44Z"/><path class="cls-1" d="M107.16,125.16v-.45a4.55,4.55,0,0,0,1-.74,2.62,2.62,0,0,0,.55-.89h.35v1.51h1.61v.57h-1.61v3.64a4.78,4.78,0,0,0,0,.71,1.48,1.48,0,0,0,.14.46.55.55,0,0,0,.25.25,1,1,0,0,0,.4.07,1,1,0,0,0,.51-.12,1.42,1.42,0,0,0,.41-.43l.3.23a1.29,1.29,0,0,1-.58.68,2.15,2.15,0,0,1-1,.23,1.73,1.73,0,0,1-1.2-.38,1.37,1.37,0,0,1-.42-1.08v-4.26Z"/><path class="cls-1" d="M114,128.85a5.11,5.11,0,0,0,0,.75,1,1,0,0,0,.16.45.63.63,0,0,0,.34.22,2.59,2.59,0,0,0,.57.07v.42h-3.44v-.42a2.33,2.33,0,0,0,.59-.08.65.65,0,0,0,.35-.21.9.9,0,0,0,.17-.42,4.41,4.41,0,0,0,0-.69V127.4c0-.46,0-.85,0-1.15a3.09,3.09,0,0,0-.06-.61.52.52,0,0,0-.28-.38,2.16,2.16,0,0,0-.82-.1v-.42l2.36-.46Zm-1.38-7a.72.72,0,0,1,.21-.52.75.75,0,0,1,1.06,0,.76.76,0,0,1,0,1.05.75.75,0,0,1-1.06,0A.72.72,0,0,1,112.58,121.84Z"/><path class="cls-1" d="M118,128.84c0,.34,0,.6,0,.79a1,1,0,0,0,.12.44.49.49,0,0,0,.3.2,4.27,4.27,0,0,0,.54.07v.42h-3.19v-.42a4.75,4.75,0,0,0,.55-.07.55.55,0,0,0,.31-.19.9.9,0,0,0,.14-.42,6.83,6.83,0,0,0,0-.72V127.4c0-.46,0-.84,0-1.14a2.42,2.42,0,0,0-.07-.62.92.92,0,0,0-.08-.25.28.28,0,0,0-.16-.14.85.85,0,0,0-.28-.08h-.45v-.42l2-.46.15,1.2h.06a3.78,3.78,0,0,1,1.14-.91,3,3,0,0,1,1.31-.29,2.37,2.37,0,0,1,1.27.31,1.54,1.54,0,0,1,.72.88h0a3.16,3.16,0,0,1,1.08-.88,3,3,0,0,1,1.36-.31,2.58,2.58,0,0,1,1,.19,1.54,1.54,0,0,1,.71.51,1.7,1.7,0,0,1,.3.72,6.58,6.58,0,0,1,.09,1.23v1.91q0,.49,0,.78a1,1,0,0,0,.13.44.42.42,0,0,0,.29.21,4.47,4.47,0,0,0,.55.07v.42h-3.19v-.42a2.45,2.45,0,0,0,.54-.07.51.51,0,0,0,.31-.2.9.9,0,0,0,.14-.41,6.83,6.83,0,0,0,0-.72v-1.52a7.39,7.39,0,0,0-.08-1.15,1.89,1.89,0,0,0-.24-.77,1,1,0,0,0-.43-.43,1.47,1.47,0,0,0-.66-.13,1.87,1.87,0,0,0-1,.29,2,2,0,0,0-.72.79l-.11.23a1.67,1.67,0,0,0-.06.26,1.55,1.55,0,0,0,0,.33c0,.12,0,.28,0,.48v1.52q0,.49,0,.78a.85.85,0,0,0,.12.44.46.46,0,0,0,.31.21,4.47,4.47,0,0,0,.55.07v.42h-3.19v-.42a4.84,4.84,0,0,0,.54-.07.49.49,0,0,0,.3-.19.9.9,0,0,0,.14-.42,6.83,6.83,0,0,0,0-.72v-1.52a7.67,7.67,0,0,0-.08-1.17,2.07,2.07,0,0,0-.23-.76.92.92,0,0,0-.43-.42,1.38,1.38,0,0,0-.64-.13,2,2,0,0,0-1,.29,1.93,1.93,0,0,0-.71.79,1.46,1.46,0,0,0-.1.23,1.63,1.63,0,0,0-.07.26,1.55,1.55,0,0,0,0,.33c0,.12,0,.28,0,.48Z"/><path class="cls-1" d="M134.45,129.64a3.14,3.14,0,0,1-2.53,1.24,3.47,3.47,0,0,1-1.28-.23,2.87,2.87,0,0,1-1-.66,3.18,3.18,0,0,1-.65-1,3.73,3.73,0,0,1-.22-1.32,3.68,3.68,0,0,1,.24-1.35,3,3,0,0,1,.67-1.07,3.17,3.17,0,0,1,1.05-.7,3.34,3.34,0,0,1,1.32-.25,2.44,2.44,0,0,1,1.8.63,2.41,2.41,0,0,1,.64,1.81c0,.11,0,.18-.07.2a.79.79,0,0,1-.3,0h-3.95a1.2,1.2,0,0,0,0,.23c0,.09,0,.19,0,.31a4,4,0,0,0,.15,1.13,2.72,2.72,0,0,0,.43.87,2,2,0,0,0,.68.56,1.92,1.92,0,0,0,.87.2,2,2,0,0,0,.93-.23,3.09,3.09,0,0,0,.89-.72Zm-2-3.24h.39a.54.54,0,0,0,.21,0,.17.17,0,0,0,.1-.1.72.72,0,0,0,0-.17,1.16,1.16,0,0,0-.35-.88,1.37,1.37,0,0,0-1-.33c-.86,0-1.4.51-1.61,1.54Z"/><path class="cls-1" d="M140.87,129.75h-.05a2.65,2.65,0,0,1-.91.87,2.47,2.47,0,0,1-1.15.26,3,3,0,0,1-1.25-.25,3,3,0,0,1-1-.68,3.27,3.27,0,0,1-.65-1,3.93,3.93,0,0,1,0-2.65,3.33,3.33,0,0,1,.65-1,3,3,0,0,1,1-.68,3.07,3.07,0,0,1,1.25-.25,2.59,2.59,0,0,1,1,.19,2.82,2.82,0,0,1,.87.61v-1.22c0-.46,0-.84,0-1.14a3.22,3.22,0,0,0-.06-.62.52.52,0,0,0-.33-.38,2.84,2.84,0,0,0-.9-.1v-.36l2.46-.46v6.92c0,.56,0,1,0,1.37a3.89,3.89,0,0,0,.07.76q0,.14.09.24a.46.46,0,0,0,.16.15,1.25,1.25,0,0,0,.27.08l.45,0v.41l-2,.13Zm-.24-2.65a5.62,5.62,0,0,0-.06-.95,1.37,1.37,0,0,0-.26-.56,1.89,1.89,0,0,0-.7-.55,2.2,2.2,0,0,0-.85-.18,1.44,1.44,0,0,0-1.31.71,3.62,3.62,0,0,0-.45,1.94,5.1,5.1,0,0,0,.11,1.15,2.94,2.94,0,0,0,.34.88,1.59,1.59,0,0,0,.55.57,1.45,1.45,0,0,0,.76.19,2.25,2.25,0,0,0,.44,0,3.12,3.12,0,0,0,.43-.15,2.55,2.55,0,0,0,.39-.24,1.5,1.5,0,0,0,.3-.32,1.94,1.94,0,0,0,.24-.64,5.52,5.52,0,0,0,.07-1Z"/><path class="cls-1" d="M145.9,128.85a5.11,5.11,0,0,0,0,.75,1,1,0,0,0,.16.45.67.67,0,0,0,.34.22,2.69,2.69,0,0,0,.58.07v.42h-3.45v-.42a2.27,2.27,0,0,0,.59-.08.65.65,0,0,0,.35-.21.81.81,0,0,0,.17-.42,4.41,4.41,0,0,0,0-.69V127.4c0-.46,0-.85,0-1.15a3.77,3.77,0,0,0-.07-.61.49.49,0,0,0-.28-.38,2.1,2.1,0,0,0-.81-.1v-.42l2.35-.46Zm-1.38-7a.75.75,0,1,1,.22.53A.69.69,0,0,1,144.52,121.84Z"/><path class="cls-1" d="M153.52,129.64a3.14,3.14,0,0,1-2.53,1.24,3.57,3.57,0,0,1-1.29-.23,3.07,3.07,0,0,1-1-.66,3.15,3.15,0,0,1-.64-1,3.73,3.73,0,0,1-.23-1.32,3.68,3.68,0,0,1,.24-1.35,3,3,0,0,1,.68-1.07,3.07,3.07,0,0,1,1.05-.7,3.34,3.34,0,0,1,1.32-.25,2.44,2.44,0,0,1,1.8.63,2.41,2.41,0,0,1,.64,1.81c0,.11,0,.18-.07.2a.79.79,0,0,1-.3,0h-3.95a1.2,1.2,0,0,0,0,.23,2.91,2.91,0,0,0,0,.31,4,4,0,0,0,.15,1.13,2.53,2.53,0,0,0,.43.87,2,2,0,0,0,.67.56,1.92,1.92,0,0,0,.87.2,2,2,0,0,0,.94-.23,3.23,3.23,0,0,0,.89-.72Zm-2-3.24h.38a.55.55,0,0,0,.22,0,.17.17,0,0,0,.1-.1.72.72,0,0,0,0-.17,1.16,1.16,0,0,0-.35-.88,1.37,1.37,0,0,0-1-.33c-.86,0-1.4.51-1.61,1.54Z"/><path class="cls-1" d="M159.94,129.75h-.05a2.67,2.67,0,0,1-.92.87,2.4,2.4,0,0,1-1.14.26,3,3,0,0,1-1.26-.25,2.93,2.93,0,0,1-1-.68,3.11,3.11,0,0,1-.65-1,3.93,3.93,0,0,1,0-2.65,3.16,3.16,0,0,1,.65-1,3,3,0,0,1,1-.68,3,3,0,0,1,1.25-.25,2.54,2.54,0,0,1,1,.19,2.82,2.82,0,0,1,.87.61v-1.22c0-.46,0-.84,0-1.14a4.35,4.35,0,0,0-.06-.62.52.52,0,0,0-.33-.38,2.84,2.84,0,0,0-.9-.1v-.36l2.46-.46v6.92c0,.56,0,1,0,1.37a3.89,3.89,0,0,0,.07.76.85.85,0,0,0,.09.24.46.46,0,0,0,.16.15,1.1,1.1,0,0,0,.27.08l.45,0v.41l-2,.13Zm-.24-2.65a4.59,4.59,0,0,0-.07-.95,1.36,1.36,0,0,0-.25-.56,1.84,1.84,0,0,0-.71-.55,2.12,2.12,0,0,0-.84-.18,1.45,1.45,0,0,0-1.32.71,3.62,3.62,0,0,0-.45,1.94,5.08,5.08,0,0,0,.12,1.15,2.94,2.94,0,0,0,.33.88,1.7,1.7,0,0,0,.56.57,1.45,1.45,0,0,0,.76.19,2.25,2.25,0,0,0,.44,0,3.66,3.66,0,0,0,.43-.15,2.55,2.55,0,0,0,.39-.24,1.5,1.5,0,0,0,.3-.32,1.94,1.94,0,0,0,.24-.64,5.52,5.52,0,0,0,.07-1Z"/><path class="cls-1" d="M168.5,129.64a3.16,3.16,0,0,1-2.54,1.24,3.47,3.47,0,0,1-1.28-.23,3.07,3.07,0,0,1-1-.66,3,3,0,0,1-.64-1,3.73,3.73,0,0,1-.23-1.32,3.68,3.68,0,0,1,.24-1.35,3,3,0,0,1,.68-1.07,3.13,3.13,0,0,1,1-.7,3.42,3.42,0,0,1,1.33-.25,2.2,2.2,0,0,1,2.43,2.44c0,.11,0,.18-.06.2a.9.9,0,0,1-.31,0h-3.95c0,.06,0,.14,0,.23a2.91,2.91,0,0,0,0,.31,3.68,3.68,0,0,0,.15,1.13,2.53,2.53,0,0,0,.43.87,2,2,0,0,0,.67.56,1.92,1.92,0,0,0,.87.2,2,2,0,0,0,.94-.23,3.21,3.21,0,0,0,.88-.72Zm-2-3.24h.38a.55.55,0,0,0,.22,0,.15.15,0,0,0,.09-.1.4.4,0,0,0,0-.17,1.13,1.13,0,0,0-.36-.88,1.35,1.35,0,0,0-1-.33c-.87,0-1.4.51-1.61,1.54Z"/><path class="cls-1" d="M170.14,130.76h-.26V128.7h.3c.31,1.12.87,1.69,1.7,1.69a1.14,1.14,0,0,0,.76-.24.85.85,0,0,0,.28-.71,1,1,0,0,0,0-.31,1.07,1.07,0,0,0-.2-.26,5,5,0,0,0-.42-.32l-.72-.45-.71-.47a3.73,3.73,0,0,1-.5-.44,1.66,1.66,0,0,1-.31-.47,1.55,1.55,0,0,1-.1-.59,2,2,0,0,1,.14-.75,1.75,1.75,0,0,1,.94-1,1.83,1.83,0,0,1,.71-.14,2.27,2.27,0,0,1,.67.1,2.44,2.44,0,0,1,.61.27l.24-.25h.23v1.73h-.31a2.94,2.94,0,0,0-.58-1,1.07,1.07,0,0,0-.76-.31.92.92,0,0,0-.66.22.76.76,0,0,0-.25.6,1,1,0,0,0,.07.35,1.1,1.1,0,0,0,.21.3,3.19,3.19,0,0,0,.37.29c.14.1.32.21.53.34s.64.41.88.58a3.52,3.52,0,0,1,.6.5,1.59,1.59,0,0,1,.33.51,1.4,1.4,0,0,1,.11.6,1.67,1.67,0,0,1-.55,1.33,2.09,2.09,0,0,1-1.45.49,2.49,2.49,0,0,1-1.61-.54Z"/><path class="cls-1" d="M177.29,128.85a5.11,5.11,0,0,0,0,.75,1,1,0,0,0,.17.45.65.65,0,0,0,.33.22,2.69,2.69,0,0,0,.58.07v.42H175v-.42a2.27,2.27,0,0,0,.59-.08.72.72,0,0,0,.36-.21.81.81,0,0,0,.16-.42,4.25,4.25,0,0,0,.05-.69V127.4c0-.46,0-.85,0-1.15a2.88,2.88,0,0,0-.07-.61.51.51,0,0,0-.27-.38,2.19,2.19,0,0,0-.82-.1v-.42l2.35-.46Zm-1.38-7a.75.75,0,1,1,.22.53A.69.69,0,0,1,175.91,121.84Z"/><path class="cls-1" d="M181.27,129.58l.53,0,.48.05.47.06.51.07a2.37,2.37,0,0,1,1.38.67,1.82,1.82,0,0,1,.52,1.34,1.7,1.7,0,0,1-.8,1.53,4.2,4.2,0,0,1-2.31.53,5.8,5.8,0,0,1-1.22-.12,3.37,3.37,0,0,1-1-.34,1.94,1.94,0,0,1-.62-.54,1.11,1.11,0,0,1-.22-.68,1.45,1.45,0,0,1,.08-.47,1.6,1.6,0,0,1,.23-.38,1.2,1.2,0,0,1,.34-.25.92.92,0,0,1,.42-.1,1.15,1.15,0,0,1,.73.25.88.88,0,0,0-.53.36,1.08,1.08,0,0,0-.2.64.88.88,0,0,0,.52.81,3,3,0,0,0,1.48.29c1.37,0,2.05-.42,2.05-1.26a1.07,1.07,0,0,0-.32-.8,1.33,1.33,0,0,0-.77-.37l-.59-.08-.6-.08-.55-.06-.4,0a2,2,0,0,1-1-.36,1,1,0,0,1-.34-.79,1,1,0,0,1,.34-.74,1.6,1.6,0,0,1,.88-.41v0a1.5,1.5,0,0,1-.49-.31,2.11,2.11,0,0,1-.39-.45,2.07,2.07,0,0,1-.26-.54,2.1,2.1,0,0,1-.09-.61,2,2,0,0,1,.17-.84,1.87,1.87,0,0,1,.49-.66,2.34,2.34,0,0,1,.75-.45,2.63,2.63,0,0,1,1-.16,2.94,2.94,0,0,1,1,.16,2.26,2.26,0,0,1,.81.48,3.41,3.41,0,0,1,.72-.49,1.36,1.36,0,0,1,.59-.15,1.13,1.13,0,0,1,.69.2.64.64,0,0,1,.26.53.42.42,0,0,1-.14.33.53.53,0,0,1-.35.12.54.54,0,0,1-.27-.06l-.2-.13-.19-.13a.41.41,0,0,0-.23-.06,1,1,0,0,0-.59.21,2,2,0,0,1,.28,1.11,2.09,2.09,0,0,1-.63,1.61,3.12,3.12,0,0,1-1.91.67,5.13,5.13,0,0,0-1,.16.36.36,0,0,0-.29.35.3.3,0,0,0,.22.28A1.83,1.83,0,0,0,181.27,129.58Zm.66-1.4a.88.88,0,0,0,.79-.46,3,3,0,0,0,0-2.55.89.89,0,0,0-.8-.45,1,1,0,0,0-.82.46,2.24,2.24,0,0,0-.3,1.25,2.28,2.28,0,0,0,.31,1.27A.93.93,0,0,0,181.93,128.18Z"/><path class="cls-1" d="M188.43,128.88c0,.32,0,.58,0,.77a.91.91,0,0,0,.13.43.46.46,0,0,0,.3.2,3,3,0,0,0,.54.07v.41h-3.14v-.41a3,3,0,0,0,.53-.07.55.55,0,0,0,.31-.19.86.86,0,0,0,.14-.41,6.83,6.83,0,0,0,0-.72v-1.6a13.05,13.05,0,0,0-.07-1.74,1.72,1.72,0,0,0-.09-.25.38.38,0,0,0-.17-.16.67.67,0,0,0-.27-.07l-.43,0v-.38l1.92-.46.14,1.19h.05a3.29,3.29,0,0,1,1.06-.88,2.9,2.9,0,0,1,1.34-.31,2.66,2.66,0,0,1,1,.18,1.55,1.55,0,0,1,.7.49,1.76,1.76,0,0,1,.29.72,7.35,7.35,0,0,1,.08,1.2v2c0,.32,0,.58,0,.77a.91.91,0,0,0,.13.43.44.44,0,0,0,.29.2,3.12,3.12,0,0,0,.52.07v.41h-3.1v-.41a3.12,3.12,0,0,0,.53-.06.59.59,0,0,0,.3-.2.91.91,0,0,0,.13-.42,6.62,6.62,0,0,0,0-.71v-1.58a7.67,7.67,0,0,0-.07-1.16,2.22,2.22,0,0,0-.23-.75,1,1,0,0,0-.43-.42,1.51,1.51,0,0,0-.63-.12,1.82,1.82,0,0,0-1,.28,2.08,2.08,0,0,0-.7.77c0,.08-.07.16-.1.23a1.49,1.49,0,0,0-.07.25q0,.15,0,.33c0,.13,0,.29,0,.48Z"/><path class="cls-1" d="M22.5,54.4h9.14v1.91H28.15V65.6H26V56.31H22.5Z"/><path class="cls-1" d="M33.16,54.4h8.21v1.88H35.3V59h5.44v1.88H35.3v2.81h6.26V65.6h-8.4Z"/><path class="cls-1" d="M50.44,56.56a3.82,3.82,0,0,0-1.64-.38,3.77,3.77,0,0,0-1.9.5A3.55,3.55,0,0,0,45.54,58a3.92,3.92,0,0,0,0,3.83,3.58,3.58,0,0,0,1.36,1.37,3.68,3.68,0,0,0,1.9.51,4.07,4.07,0,0,0,1.61-.35,4.55,4.55,0,0,0,1.43-1l1.27,1.41a6.47,6.47,0,0,1-2,1.41,5.73,5.73,0,0,1-2.37.52,5.91,5.91,0,0,1-3-.76,5.69,5.69,0,0,1-2.88-5,5.48,5.48,0,0,1,.79-2.91A5.57,5.57,0,0,1,45.77,55a6.2,6.2,0,0,1,5.35-.27,5.67,5.67,0,0,1,2,1.33l-1.25,1.57A4.22,4.22,0,0,0,50.44,56.56Z"/><path class="cls-1" d="M66.39,60h1.87v4.25a7.69,7.69,0,0,1-2.08,1.07,7.3,7.3,0,0,1-2.35.4,6,6,0,0,1-3-.76,5.88,5.88,0,0,1-2.14-2.09A5.62,5.62,0,0,1,57.91,60a5.49,5.49,0,0,1,.8-2.91A5.84,5.84,0,0,1,60.89,55,6.27,6.27,0,0,1,64,54.26a6.65,6.65,0,0,1,2.36.43,6.31,6.31,0,0,1,2,1.19l-1.22,1.58a4.56,4.56,0,0,0-1.48-.94A4.38,4.38,0,0,0,64,56.18a3.93,3.93,0,0,0-2,.5,3.74,3.74,0,0,0-1.4,1.39A3.78,3.78,0,0,0,60.1,60a3.68,3.68,0,0,0,.52,1.93A3.82,3.82,0,0,0,64,63.83a4.06,4.06,0,0,0,1.21-.19,5.14,5.14,0,0,0,1.21-.52Z"/><path class="cls-1" d="M70.74,53.73h2.08V65.6H70.74Z"/><path class="cls-1" d="M80.55,65.6v-1a2.73,2.73,0,0,1-1.15.85,4.29,4.29,0,0,1-1.62.29,3.47,3.47,0,0,1-1.58-.34A2.56,2.56,0,0,1,74.79,63a2.27,2.27,0,0,1,.85-1.88,3.81,3.81,0,0,1,2.4-.69h2.49v-.23A1.41,1.41,0,0,0,80,59.08a2.17,2.17,0,0,0-1.44-.42,5,5,0,0,0-2.55.8L75.3,58a9.91,9.91,0,0,1,1.83-.81A6.9,6.9,0,0,1,79.06,57a3.81,3.81,0,0,1,2.58.8A2.84,2.84,0,0,1,82.58,60l0,5.6Zm-.74-1.92a1.48,1.48,0,0,0,.72-1v-.77H78.37a2.29,2.29,0,0,0-1.22.25.88.88,0,0,0-.39.81,1,1,0,0,0,.4.86,1.82,1.82,0,0,0,1.12.32A2.72,2.72,0,0,0,79.81,63.68Z"/><path class="cls-1" d="M93.19,53.73V65.6H91.11V64.23a3.1,3.1,0,0,1-1.19,1.09,3.54,3.54,0,0,1-1.69.38,4.08,4.08,0,0,1-2.14-.55,3.83,3.83,0,0,1-1.43-1.55,5,5,0,0,1-.51-2.3,5,5,0,0,1,.5-2.26,3.65,3.65,0,0,1,1.43-1.53,4.06,4.06,0,0,1,2.1-.55,3.6,3.6,0,0,1,1.71.39,3.21,3.21,0,0,1,1.22,1.1V53.73Zm-2.76,9.5a2.94,2.94,0,0,0,0-3.76,2.29,2.29,0,0,0-1.75-.73,2.26,2.26,0,0,0-1.75.73,2.91,2.91,0,0,0,0,3.76,2.29,2.29,0,0,0,1.75.73A2.32,2.32,0,0,0,90.43,63.23Z"/><path class="cls-1" d="M99.64,58.79a4.06,4.06,0,0,0-1.22-.21,1.69,1.69,0,0,0-.84.18.63.63,0,0,0-.31.57.68.68,0,0,0,.39.62,6.5,6.5,0,0,0,1.24.45,12.19,12.19,0,0,1,1.47.54,2.8,2.8,0,0,1,1,.78,2.14,2.14,0,0,1,.43,1.37,2.21,2.21,0,0,1-1,1.92,4.11,4.11,0,0,1-2.42.67,6.11,6.11,0,0,1-1.94-.31,4.52,4.52,0,0,1-1.6-.89L95.6,63A4.21,4.21,0,0,0,97,63.8a4.5,4.5,0,0,0,1.52.28,1.77,1.77,0,0,0,.92-.2.64.64,0,0,0,.34-.6.73.73,0,0,0-.4-.67,6.65,6.65,0,0,0-1.29-.49,9.92,9.92,0,0,1-1.41-.51,2.41,2.41,0,0,1-.94-.75,2.06,2.06,0,0,1-.4-1.32,2.23,2.23,0,0,1,.92-1.93A3.85,3.85,0,0,1,98.55,57a6,6,0,0,1,1.67.24,5,5,0,0,1,1.46.67l-.75,1.5A6.18,6.18,0,0,0,99.64,58.79Z"/><path class="cls-1" d="M108.63,65.6v-1a2.73,2.73,0,0,1-1.15.85,4.29,4.29,0,0,1-1.62.29,3.47,3.47,0,0,1-1.58-.34A2.56,2.56,0,0,1,102.87,63a2.27,2.27,0,0,1,.85-1.88,3.81,3.81,0,0,1,2.4-.69h2.49v-.23a1.41,1.41,0,0,0-.49-1.16,2.17,2.17,0,0,0-1.44-.42,5,5,0,0,0-2.55.8L103.38,58a9.91,9.91,0,0,1,1.83-.81,6.9,6.9,0,0,1,1.93-.25,3.81,3.81,0,0,1,2.58.8,2.84,2.84,0,0,1,.94,2.24l0,5.6Zm-.74-1.92a1.48,1.48,0,0,0,.72-1v-.77h-2.16a2.29,2.29,0,0,0-1.22.25.88.88,0,0,0-.39.81,1,1,0,0,0,.4.86,1.82,1.82,0,0,0,1.12.32A2.72,2.72,0,0,0,107.89,63.68Z"/><path class="cls-1" d="M112.1,57h2.4l1.78,2.79L118.1,57h2.29l-2.72,4.18,2.91,4.38h-2.4l-1.9-3-2.07,3h-2.32l3-4.38Z"/><path class="cls-1" d="M128.33,58.15a4.78,4.78,0,0,1,1,3.28c0,.28,0,.48,0,.62H123a2.45,2.45,0,0,0,.85,1.43,2.48,2.48,0,0,0,1.6.52,3.35,3.35,0,0,0,1.25-.24,3.17,3.17,0,0,0,1-.72l1.12,1.17a4.44,4.44,0,0,1-1.56,1.09,5.15,5.15,0,0,1-2,.38,4.8,4.8,0,0,1-2.31-.54,3.81,3.81,0,0,1-1.55-1.53,5,5,0,0,1,0-4.53A3.92,3.92,0,0,1,123,57.53a4.52,4.52,0,0,1,2.25-.55A3.89,3.89,0,0,1,128.33,58.15Zm-.87,2.51a2.07,2.07,0,0,0-.62-1.5,2.44,2.44,0,0,0-3.1,0,2.46,2.46,0,0,0-.76,1.51Z"/><path class="cls-1" d="M24.72,78.83h2.39a2,2,0,0,0,.51-.06.76.76,0,0,0,.38-.21,1.42,1.42,0,0,0,.3-.42,4,4,0,0,0,.26-.69H29L28.55,80H23v-.39c.92-.82,1.67-1.53,2.25-2.14a15.25,15.25,0,0,0,1.39-1.65,5.08,5.08,0,0,0,.69-1.35,4.2,4.2,0,0,0,.2-1.26,2.28,2.28,0,0,0-.44-1.47,1.45,1.45,0,0,0-1.19-.54,1.57,1.57,0,0,0-1.18.46,1.7,1.7,0,0,0-.45,1.22,1.45,1.45,0,0,0,.36,1,1.26,1.26,0,0,0,1,.38.7.7,0,0,1-.31.46,1,1,0,0,1-.62.18A1.56,1.56,0,0,1,24,74.8a1.51,1.51,0,0,1-.49-.38,1.78,1.78,0,0,1-.33-.57,2.36,2.36,0,0,1-.11-.72,2.26,2.26,0,0,1,.23-1,2.46,2.46,0,0,1,.62-.78,3.19,3.19,0,0,1,.94-.53,3.8,3.8,0,0,1,1.19-.19,3.57,3.57,0,0,1,1.16.19,2.75,2.75,0,0,1,.91.54,2.45,2.45,0,0,1,.6.83,2.52,2.52,0,0,1,.21,1,3.41,3.41,0,0,1-.33,1.45,6.48,6.48,0,0,1-.91,1.41,11.35,11.35,0,0,1-1.34,1.35c-.52.45-1.06.89-1.65,1.32Z"/><path class="cls-1" d="M34.05,70.64a2.71,2.71,0,0,1,1.38.38,3.52,3.52,0,0,1,1.13,1,5.28,5.28,0,0,1,.76,1.52,6.1,6.1,0,0,1,.28,1.9,5.73,5.73,0,0,1-.28,1.82,5,5,0,0,1-.76,1.48,3.83,3.83,0,0,1-1.13,1,2.82,2.82,0,0,1-2.76,0,3.83,3.83,0,0,1-1.13-1,5,5,0,0,1-.76-1.48,5.73,5.73,0,0,1-.28-1.82,6.1,6.1,0,0,1,.28-1.9A5.28,5.28,0,0,1,31.54,72a3.52,3.52,0,0,1,1.13-1A2.71,2.71,0,0,1,34.05,70.64Zm0,8.91a1.85,1.85,0,0,0,.83-.19,1.61,1.61,0,0,0,.63-.66,4.19,4.19,0,0,0,.39-1.25,11.71,11.71,0,0,0,.14-2,12.86,12.86,0,0,0-.14-2,4.54,4.54,0,0,0-.39-1.31,1.63,1.63,0,0,0-.62-.71,1.79,1.79,0,0,0-1.68,0,1.64,1.64,0,0,0-.63.71,4.91,4.91,0,0,0-.38,1.31,11.78,11.78,0,0,0-.14,2,10.73,10.73,0,0,0,.14,2,4.53,4.53,0,0,0,.38,1.25,1.55,1.55,0,0,0,.63.66A1.92,1.92,0,0,0,34.05,79.55Z"/><path class="cls-1" d="M41.64,78.06a4.91,4.91,0,0,0,0,.75.77.77,0,0,0,.17.44.67.67,0,0,0,.38.23,3.38,3.38,0,0,0,.65.07V80H39.22v-.45a3.26,3.26,0,0,0,.64-.08.79.79,0,0,0,.39-.22.81.81,0,0,0,.18-.42,6.12,6.12,0,0,0,0-.69v-4.4c0-.46,0-.85,0-1.15a3.23,3.23,0,0,0,0-.6.42.42,0,0,0-.36-.33,5,5,0,0,0-.9-.06v-.45A8.11,8.11,0,0,0,40.4,71a10.63,10.63,0,0,0,1.24-.35Z"/><path class="cls-1" d="M48,70.64a2.71,2.71,0,0,1,1.38.38,3.52,3.52,0,0,1,1.13,1,5.28,5.28,0,0,1,.76,1.52,6.1,6.1,0,0,1,.28,1.9,5.73,5.73,0,0,1-.28,1.82,5,5,0,0,1-.76,1.48,3.83,3.83,0,0,1-1.13,1,2.82,2.82,0,0,1-2.76,0,3.83,3.83,0,0,1-1.13-1,5,5,0,0,1-.76-1.48,5.73,5.73,0,0,1-.28-1.82,6.1,6.1,0,0,1,.28-1.9A5.28,5.28,0,0,1,45.46,72a3.52,3.52,0,0,1,1.13-1A2.71,2.71,0,0,1,48,70.64Zm0,8.91a1.85,1.85,0,0,0,.83-.19,1.61,1.61,0,0,0,.63-.66,4.19,4.19,0,0,0,.39-1.25,11.71,11.71,0,0,0,.14-2,12.86,12.86,0,0,0-.14-2,4.54,4.54,0,0,0-.39-1.31,1.63,1.63,0,0,0-.62-.71,1.78,1.78,0,0,0-1.68,0,1.64,1.64,0,0,0-.63.71,4.91,4.91,0,0,0-.38,1.31,11.78,11.78,0,0,0-.14,2,10.73,10.73,0,0,0,.14,2,4.53,4.53,0,0,0,.38,1.25,1.55,1.55,0,0,0,.63.66A1.92,1.92,0,0,0,48,79.55Z"/><path class="cls-1" d="M56.62,77V76h3.71v1Z"/><path class="cls-1" d="M67.05,78.83h2.39a1.85,1.85,0,0,0,.5-.06.76.76,0,0,0,.38-.21,1.13,1.13,0,0,0,.3-.42,5,5,0,0,0,.27-.69h.44L70.88,80H65.3v-.39c.91-.82,1.66-1.53,2.25-2.14a15,15,0,0,0,1.38-1.65,5.15,5.15,0,0,0,.7-1.35,4.19,4.19,0,0,0,.19-1.26,2.28,2.28,0,0,0-.44-1.47,1.45,1.45,0,0,0-1.19-.54,1.55,1.55,0,0,0-1.17.46,1.7,1.7,0,0,0-.45,1.22,1.49,1.49,0,0,0,.35,1,1.28,1.28,0,0,0,1,.38.74.74,0,0,1-.31.46,1.07,1.07,0,0,1-.63.18,1.6,1.6,0,0,1-.62-.13,1.62,1.62,0,0,1-.49-.38,1.59,1.59,0,0,1-.32-.57,2.09,2.09,0,0,1-.12-.72,2.26,2.26,0,0,1,.23-1,2.36,2.36,0,0,1,.63-.78,3,3,0,0,1,.94-.53,3.74,3.74,0,0,1,1.18-.19,3.57,3.57,0,0,1,1.16.19,2.8,2.8,0,0,1,.92.54,2.57,2.57,0,0,1,.59.83,2.52,2.52,0,0,1,.21,1,3.41,3.41,0,0,1-.33,1.45A6.13,6.13,0,0,1,70,76.1a11.35,11.35,0,0,1-1.34,1.35c-.51.45-1.06.89-1.64,1.32Z"/><path class="cls-1" d="M76.37,70.64a2.71,2.71,0,0,1,1.38.38,3.52,3.52,0,0,1,1.13,1,5.28,5.28,0,0,1,.76,1.52,6.1,6.1,0,0,1,.28,1.9,5.73,5.73,0,0,1-.28,1.82,5,5,0,0,1-.76,1.48,3.83,3.83,0,0,1-1.13,1,2.83,2.83,0,0,1-2.76,0,3.83,3.83,0,0,1-1.13-1,5,5,0,0,1-.76-1.48,5.73,5.73,0,0,1-.28-1.82,6.1,6.1,0,0,1,.28-1.9A5.28,5.28,0,0,1,73.86,72,3.52,3.52,0,0,1,75,71,2.71,2.71,0,0,1,76.37,70.64Zm0,8.91a1.92,1.92,0,0,0,.84-.19,1.59,1.59,0,0,0,.62-.66,4.48,4.48,0,0,0,.4-1.25,11.85,11.85,0,0,0,.13-2,13,13,0,0,0-.13-2,5.27,5.27,0,0,0-.39-1.31,1.64,1.64,0,0,0-.63-.71,1.79,1.79,0,0,0-1.68,0,1.63,1.63,0,0,0-.62.71,4.54,4.54,0,0,0-.39,1.31,12.86,12.86,0,0,0-.14,2,11.71,11.71,0,0,0,.14,2,4.19,4.19,0,0,0,.39,1.25,1.53,1.53,0,0,0,.62.66A1.92,1.92,0,0,0,76.37,79.55Z"/><path class="cls-1" d="M84,78.06a5.11,5.11,0,0,0,0,.75.94.94,0,0,0,.17.44.7.7,0,0,0,.38.23,3.5,3.5,0,0,0,.66.07V80H81.54v-.45a3.37,3.37,0,0,0,.65-.08.75.75,0,0,0,.38-.22.81.81,0,0,0,.18-.42,4.41,4.41,0,0,0,0-.69V72.59a2.94,2.94,0,0,0-.05-.6.42.42,0,0,0-.36-.33,5,5,0,0,0-.9-.06v-.45A8.23,8.23,0,0,0,82.73,71,11.22,11.22,0,0,0,84,70.64Z"/><path class="cls-1" d="M88.38,74.22l0,0a1.47,1.47,0,0,1,.53-.23,2.72,2.72,0,0,1,.69-.09,2.29,2.29,0,0,1,1.77.8,2.57,2.57,0,0,1,.52.88,3,3,0,0,1,.2,1.1,3.26,3.26,0,0,1-.27,1.33,3.18,3.18,0,0,1-.75,1.08,3.67,3.67,0,0,1-3.44.87,2.74,2.74,0,0,1-.73-.34,1.51,1.51,0,0,1-.48-.53,1.26,1.26,0,0,1-.18-.66.78.78,0,0,1,.15-.51.52.52,0,0,1,.43-.18.51.51,0,0,1,.38.14.82.82,0,0,1,.19.33,4.56,4.56,0,0,1,.14.44,1.67,1.67,0,0,0,.17.44.92.92,0,0,0,.32.33,1.09,1.09,0,0,0,.59.14,1.6,1.6,0,0,0,.84-.23,1.87,1.87,0,0,0,.62-.63,3.37,3.37,0,0,0,.39-1,5.76,5.76,0,0,0,.14-1.3,3.16,3.16,0,0,0-.28-1.5,1,1,0,0,0-.95-.48,1.23,1.23,0,0,0-.82.27,2,2,0,0,0-.52.87.92.92,0,0,1-.13.28.21.21,0,0,1-.16.06c-.17,0-.26-.08-.26-.24a.28.28,0,0,1,0-.1l1.28-5a2.63,2.63,0,0,0,.6.17,6.27,6.27,0,0,0,.81,0,4,4,0,0,0,1.59-.23h.08a1.76,1.76,0,0,1-.63,1.06,2,2,0,0,1-1.25.37H89Z"/><path class="cls-1" d="M97,77.18h.45a2.83,2.83,0,0,0,.32,1,2.6,2.6,0,0,0,.58.73,2.63,2.63,0,0,0,.82.46,3,3,0,0,0,1,.16,2.19,2.19,0,0,0,1.41-.42,1.4,1.4,0,0,0,.51-1.14,1.42,1.42,0,0,0-.1-.55,1.5,1.5,0,0,0-.34-.49,3.54,3.54,0,0,0-.64-.46c-.27-.15-.61-.31-1-.49a13.25,13.25,0,0,1-1.25-.62,3.6,3.6,0,0,1-.8-.63,1.94,1.94,0,0,1-.43-.69,2.64,2.64,0,0,1-.12-.83,2.44,2.44,0,0,1,.2-1,2.38,2.38,0,0,1,.55-.81,2.44,2.44,0,0,1,.86-.53,3.06,3.06,0,0,1,1.08-.19,2.84,2.84,0,0,1,1,.17,3.29,3.29,0,0,1,.92.54l.32-.54h.27l.13,2.39h-.44a3,3,0,0,0-.83-1.46,2,2,0,0,0-1.32-.48,1.75,1.75,0,0,0-1.16.36,1.19,1.19,0,0,0-.43,1,1.46,1.46,0,0,0,.09.52,1.42,1.42,0,0,0,.31.44,3.51,3.51,0,0,0,.57.42,7.51,7.51,0,0,0,.86.44c.59.27,1.09.51,1.48.74a5.1,5.1,0,0,1,.93.68,2,2,0,0,1,.5.72,2.57,2.57,0,0,1,.14.85,2.54,2.54,0,0,1-.91,2,3.29,3.29,0,0,1-1,.56,4.25,4.25,0,0,1-1.32.19,3.61,3.61,0,0,1-1.23-.19,3.57,3.57,0,0,1-1.11-.65l-.34.59h-.28Z"/><path class="cls-1" d="M108.18,79.58a3.28,3.28,0,0,0,.55,0c.1,0,.15-.06.15-.1a1.11,1.11,0,0,0-.19-.35l-.47-.6L107,77l-.45.42v.71a4.91,4.91,0,0,0,0,.75,1,1,0,0,0,.15.44.58.58,0,0,0,.34.22,2.24,2.24,0,0,0,.58.07V80h-3.41v-.42a2.18,2.18,0,0,0,.58-.07.65.65,0,0,0,.35-.21,1,1,0,0,0,.18-.42,4.47,4.47,0,0,0,0-.7v-5c0-.61,0-1.07,0-1.38a1.49,1.49,0,0,0-.13-.63.44.44,0,0,0-.36-.2,5.94,5.94,0,0,0-.67,0V70.5L106.5,70v6.59l1.12-1.09.8-.8q.27-.26.27-.39c0-.09-.09-.16-.25-.21a2.65,2.65,0,0,0-.72-.08v-.42h3.12v.42a2.25,2.25,0,0,0-.4,0,1.17,1.17,0,0,0-.32.09,3.19,3.19,0,0,0-.32.2c-.11.09-.24.19-.38.32l-1.73,1.54,2.38,2.68a2.57,2.57,0,0,0,.3.33,1.47,1.47,0,0,0,.28.2,1,1,0,0,0,.3.1,2.21,2.21,0,0,0,.39,0V80h-3.16Z"/><path class="cls-1" d="M114.14,78.1a5.11,5.11,0,0,0,0,.75,1,1,0,0,0,.16.44.58.58,0,0,0,.34.22,2.1,2.1,0,0,0,.57.07V80h-3.44v-.42a2.38,2.38,0,0,0,.59-.07.73.73,0,0,0,.35-.22.9.9,0,0,0,.17-.42,4.41,4.41,0,0,0,0-.69V76.64c0-.46,0-.84,0-1.14a3.22,3.22,0,0,0-.06-.62.54.54,0,0,0-.28-.38,2.16,2.16,0,0,0-.82-.1V74l2.36-.46Zm-1.38-7a.72.72,0,0,1,.21-.53.75.75,0,0,1,1.06,0,.72.72,0,0,1,.21.53.74.74,0,1,1-1.48,0Z"/><path class="cls-1" d="M118,78.13a4.73,4.73,0,0,0,0,.73.88.88,0,0,0,.15.44.57.57,0,0,0,.32.21,2.07,2.07,0,0,0,.56.07V80h-3.31v-.42a2.1,2.1,0,0,0,.57-.07.76.76,0,0,0,.34-.21.77.77,0,0,0,.17-.41,4.06,4.06,0,0,0,0-.67V73c0-.43,0-.79,0-1.08a4.14,4.14,0,0,0-.06-.6.49.49,0,0,0-.28-.37,2.4,2.4,0,0,0-.8-.09v-.41L118,70Z"/><path class="cls-1" d="M119.87,74.4V74a4.55,4.55,0,0,0,1-.75,2.52,2.52,0,0,0,.55-.89h.35v1.52h1.61v.56h-1.61v3.65a4.87,4.87,0,0,0,0,.71,1.32,1.32,0,0,0,.14.46.53.53,0,0,0,.25.24.92.92,0,0,0,.4.08,1,1,0,0,0,.51-.13,1.42,1.42,0,0,0,.41-.43l.3.23a1.29,1.29,0,0,1-.58.68,2,2,0,0,1-1,.23,1.71,1.71,0,0,1-1.2-.37,1.41,1.41,0,0,1-.42-1.09V74.4Z"/><path class="cls-1" d="M130.19,78.89a3.16,3.16,0,0,1-2.53,1.23,3.28,3.28,0,0,1-1.28-.23,2.87,2.87,0,0,1-1-.66,3,3,0,0,1-.65-1,3.68,3.68,0,0,1-.22-1.31,3.78,3.78,0,0,1,.24-1.36,3.09,3.09,0,0,1,.67-1.07,3.14,3.14,0,0,1,1-.69,3.34,3.34,0,0,1,1.32-.26A2.21,2.21,0,0,1,130.24,76c0,.11,0,.18-.07.2a.63.63,0,0,1-.3,0h-4a1.2,1.2,0,0,0,0,.23c0,.1,0,.2,0,.31a4,4,0,0,0,.15,1.13,2.72,2.72,0,0,0,.43.87,2,2,0,0,0,.68.56,1.92,1.92,0,0,0,.87.2,2,2,0,0,0,.93-.22,3.15,3.15,0,0,0,.89-.73Zm-2-3.24h.39a.81.81,0,0,0,.21,0,.24.24,0,0,0,.1-.1.9.9,0,0,0,0-.18,1.16,1.16,0,0,0-.35-.88,1.37,1.37,0,0,0-1-.33c-.86,0-1.4.52-1.61,1.55Z"/><path class="cls-1" d="M131.28,74.4V74a4.55,4.55,0,0,0,1-.75,2.52,2.52,0,0,0,.55-.89h.35v1.52h1.61v.56h-1.61v3.65a4.87,4.87,0,0,0,0,.71,1.57,1.57,0,0,0,.14.46.53.53,0,0,0,.25.24,1,1,0,0,0,.4.08,1,1,0,0,0,.51-.13,1.31,1.31,0,0,0,.41-.43l.3.23a1.25,1.25,0,0,1-.58.68,2,2,0,0,1-1,.23,1.73,1.73,0,0,1-1.2-.37,1.41,1.41,0,0,1-.42-1.09V74.4Z"/><path class="cls-1" d="M141.6,78.89a3.16,3.16,0,0,1-2.53,1.23,3.28,3.28,0,0,1-1.28-.23,2.87,2.87,0,0,1-1-.66,2.81,2.81,0,0,1-.64-1,3.47,3.47,0,0,1-.23-1.31,3.78,3.78,0,0,1,.24-1.36,3.09,3.09,0,0,1,.67-1.07,3.25,3.25,0,0,1,1-.69,3.39,3.39,0,0,1,1.33-.26A2.21,2.21,0,0,1,141.65,76c0,.11,0,.18-.06.2a.7.7,0,0,1-.31,0h-3.95a1.29,1.29,0,0,0,0,.23,3,3,0,0,0,0,.31,4,4,0,0,0,.15,1.13,2.55,2.55,0,0,0,.44.87,1.9,1.9,0,0,0,.67.56,1.92,1.92,0,0,0,.87.2,2,2,0,0,0,.93-.22,3.15,3.15,0,0,0,.89-.73Zm-2-3.24H140a.71.71,0,0,0,.21,0,.24.24,0,0,0,.1-.1.5.5,0,0,0,0-.18,1.16,1.16,0,0,0-.35-.88,1.37,1.37,0,0,0-1-.33c-.86,0-1.4.52-1.6,1.55Z"/><path class="cls-1" d="M146.39,79.58a3.28,3.28,0,0,0,.55,0c.1,0,.15-.06.15-.1a1.39,1.39,0,0,0-.19-.35l-.47-.6L145.16,77l-.45.42v.71a5.11,5.11,0,0,0,0,.75,1,1,0,0,0,.16.44.59.59,0,0,0,.33.22,2.32,2.32,0,0,0,.59.07V80h-3.41v-.42a2.24,2.24,0,0,0,.58-.07.69.69,0,0,0,.35-.21,1,1,0,0,0,.17-.42,4.3,4.3,0,0,0,0-.7v-5c0-.61,0-1.07,0-1.38a1.38,1.38,0,0,0-.12-.63.44.44,0,0,0-.36-.2,5.94,5.94,0,0,0-.67,0V70.5l2.31-.46v6.59l1.12-1.09c.36-.36.62-.63.8-.8s.27-.3.27-.39-.09-.16-.26-.21a2.59,2.59,0,0,0-.72-.08v-.42H149v.42a2.21,2.21,0,0,0-.39,0,1.08,1.08,0,0,0-.32.09,2.36,2.36,0,0,0-.32.2c-.11.09-.24.19-.38.32l-1.73,1.54,2.38,2.68a2.57,2.57,0,0,0,.3.33,1,1,0,0,0,.28.2,1,1,0,0,0,.3.1,2.13,2.13,0,0,0,.39,0V80h-3.16Z"/><path class="cls-1" d="M152.2,78.12c0,.33,0,.59,0,.77a1,1,0,0,0,.13.44.48.48,0,0,0,.3.19,2.84,2.84,0,0,0,.55.08V80h-3.15v-.4a3,3,0,0,0,.54-.08.48.48,0,0,0,.3-.19.82.82,0,0,0,.14-.41,6.57,6.57,0,0,0,0-.72V76.61a11.42,11.42,0,0,0-.07-1.74,1.91,1.91,0,0,0-.09-.26.41.41,0,0,0-.16-.16,1,1,0,0,0-.28-.07l-.43,0V74l1.92-.46.14,1.19h0a3.19,3.19,0,0,1,1.07-.87,2.87,2.87,0,0,1,1.33-.32,2.75,2.75,0,0,1,1,.18,1.48,1.48,0,0,1,1,1.21,6.27,6.27,0,0,1,.09,1.21v2a7.51,7.51,0,0,0,0,.77,1.11,1.11,0,0,0,.12.44.45.45,0,0,0,.3.19,2.72,2.72,0,0,0,.52.08V80h-3.11v-.4a2.27,2.27,0,0,0,.53-.07.5.5,0,0,0,.3-.2.82.82,0,0,0,.14-.41,6.83,6.83,0,0,0,0-.72V76.62a7.29,7.29,0,0,0-.08-1.15,2.07,2.07,0,0,0-.23-.76.94.94,0,0,0-.43-.41,1.34,1.34,0,0,0-.63-.13,1.87,1.87,0,0,0-1.69,1.06,2.4,2.4,0,0,0-.11.23.83.83,0,0,0-.06.25,2.48,2.48,0,0,0,0,.33c0,.12,0,.28,0,.47Z"/><path class="cls-1" d="M160.61,78.1a7,7,0,0,0,0,.75,1,1,0,0,0,.17.44.59.59,0,0,0,.33.22,2.24,2.24,0,0,0,.58.07V80h-3.45v-.42a2.32,2.32,0,0,0,.59-.07.81.81,0,0,0,.36-.22.81.81,0,0,0,.16-.42,4.25,4.25,0,0,0,.05-.69V76.64c0-.46,0-.84,0-1.14a3,3,0,0,0-.07-.62.52.52,0,0,0-.27-.38,2.19,2.19,0,0,0-.82-.1V74l2.35-.46Zm-1.38-7a.69.69,0,0,1,.22-.53.74.74,0,0,1,1.05,0,.69.69,0,0,1,.22.53.71.71,0,0,1-.22.53.76.76,0,0,1-1.05,0A.71.71,0,0,1,159.23,71.09Z"/><path class="cls-1" d="M166.14,79.58a3.28,3.28,0,0,0,.55,0c.1,0,.15-.06.15-.1a1.11,1.11,0,0,0-.19-.35l-.47-.6L164.91,77l-.45.42v.71a4.91,4.91,0,0,0,0,.75.92.92,0,0,0,.15.44.58.58,0,0,0,.34.22,2.18,2.18,0,0,0,.58.07V80h-3.41v-.42a2.24,2.24,0,0,0,.58-.07.65.65,0,0,0,.35-.21,1.16,1.16,0,0,0,.18-.42,4.47,4.47,0,0,0,0-.7v-5c0-.61,0-1.07,0-1.38a1.38,1.38,0,0,0-.12-.63.44.44,0,0,0-.36-.2,5.94,5.94,0,0,0-.67,0V70.5l2.31-.46v6.59l1.12-1.09.8-.8q.27-.26.27-.39c0-.09-.09-.16-.25-.21a2.65,2.65,0,0,0-.72-.08v-.42h3.12v.42a2.25,2.25,0,0,0-.4,0,1.17,1.17,0,0,0-.32.09,2.36,2.36,0,0,0-.32.2c-.11.09-.24.19-.38.32l-1.73,1.54L168,78.92a2.57,2.57,0,0,0,.3.33,1.47,1.47,0,0,0,.28.2,1,1,0,0,0,.3.1,2.21,2.21,0,0,0,.39,0V80h-3.16Z"/><path class="cls-1" d="M175.18,78.89a3.17,3.17,0,0,1-2.53,1.23,3.33,3.33,0,0,1-1.29-.23,3.07,3.07,0,0,1-1-.66,3,3,0,0,1-.64-1,3.68,3.68,0,0,1-.23-1.31,3.78,3.78,0,0,1,.24-1.36,3,3,0,0,1,1.72-1.76,3.43,3.43,0,0,1,1.33-.26,2.44,2.44,0,0,1,1.8.63,2.46,2.46,0,0,1,.64,1.81c0,.11,0,.18-.07.2a.68.68,0,0,1-.31,0h-3.94a1.2,1.2,0,0,0,0,.23c0,.1,0,.2,0,.31a4,4,0,0,0,.15,1.13,2.53,2.53,0,0,0,.43.87,2,2,0,0,0,.67.56,1.92,1.92,0,0,0,.87.2,2,2,0,0,0,.94-.22,3.29,3.29,0,0,0,.89-.73Zm-2-3.24h.38a.8.8,0,0,0,.22,0,.17.17,0,0,0,.09-.1.48.48,0,0,0,0-.18,1.13,1.13,0,0,0-.36-.88,1.33,1.33,0,0,0-1-.33c-.87,0-1.4.52-1.61,1.55Z"/><path class="cls-1" d="M178.45,78.1q0,.48,0,.78a.92.92,0,0,0,.12.43.49.49,0,0,0,.3.2,3,3,0,0,0,.54.07V80h-3.19v-.42a2.55,2.55,0,0,0,.55-.06.56.56,0,0,0,.31-.2.86.86,0,0,0,.14-.41,7,7,0,0,0,0-.73v-1.4c0-.55,0-1,0-1.28a1.78,1.78,0,0,0-.12-.67.44.44,0,0,0-.32-.26,4.23,4.23,0,0,0-.6,0v-.42l2.1-.45.17,1.48h0a2.73,2.73,0,0,1,.39-.66,2.46,2.46,0,0,1,.51-.51,2.35,2.35,0,0,1,.57-.33,1.67,1.67,0,0,1,.62-.12.94.94,0,0,1,.6.19.61.61,0,0,1,.22.5.58.58,0,0,1-.18.45.73.73,0,0,1-.51.16,1,1,0,0,1-.33,0l-.23-.1-.19-.1a.46.46,0,0,0-.2,0,.89.89,0,0,0-.65.41,3.2,3.2,0,0,0-.5,1,4.44,4.44,0,0,0-.15.79,6.77,6.77,0,0,0-.06.92Z"/></svg>
