<svg id="Layer_1" data-name="Layer 1" xmlns="http://www.w3.org/2000/svg" viewBox="0 0 3075.17 421.14"><defs><style>.cls-1{font-size:231.61px;font-family:SuisseIntl-Medium, SuisseIntl-Medium;}.cls-1,.cls-3{fill:#3b3a36;}.cls-2{letter-spacing:0em;}.cls-4{fill:#fff;}.cls-5{fill:none;stroke:#3b3a36;stroke-miterlimit:10;stroke-width:5px;}</style></defs><title>logo_skitse</title><text class="cls-1" transform="translate(90.42 222.64)">h<tspan class="cls-2" x="136.42" y="0">c</tspan><tspan x="267.51" y="0">d.</tspan></text><path class="cls-3" d="M1003.38,97.45q9.61-5.22,22.82-5.21,11.34,0,19.34,3.47a33.22,33.22,0,0,1,13.08,10,42.72,42.72,0,0,1,7.53,15.52,77.55,77.55,0,0,1,2.43,20.15v78.28H1041V148.06a105.51,105.51,0,0,0-.7-12.28A31.25,31.25,0,0,0,1037.2,125a18.25,18.25,0,0,0-7.18-7.53q-4.76-2.78-12.63-2.78a28.77,28.77,0,0,0-13.43,2.9,24.27,24.27,0,0,0-9,8,33.81,33.81,0,0,0-5,12.27,75.18,75.18,0,0,0-1.51,15.52v66.24H960.88V51.7h27.56v60.69A36.57,36.57,0,0,1,1003.38,97.45Z"/><path class="cls-3" d="M1169.45,95.48a56.06,56.06,0,0,1,16.79,9.15,53.45,53.45,0,0,1,19.45,33h-26.86a26.18,26.18,0,0,0-9.73-16.21q-7.87-6.26-19.22-6.25a32.28,32.28,0,0,0-12.4,2.43,27.7,27.7,0,0,0-10.42,7.64,38.68,38.68,0,0,0-7.18,13.09,59.78,59.78,0,0,0-2.66,19,60.92,60.92,0,0,0,2.66,19.11,38.58,38.58,0,0,0,7.18,13.2,27.91,27.91,0,0,0,10.31,7.64,30.27,30.27,0,0,0,11.81,2.43,42.93,42.93,0,0,0,10-1.15,28,28,0,0,0,9-3.94,27.21,27.21,0,0,0,7.18-7.06,29,29,0,0,0,4.4-10.54h26.87a54,54,0,0,1-21.08,33.81,59.26,59.26,0,0,1-17.37,8.8,63.87,63.87,0,0,1-19.45,3,59.31,59.31,0,0,1-24.67-5A56.84,56.84,0,0,1,1105.17,204,61,61,0,0,1,1093,183.38a80.05,80.05,0,0,1,0-51.65A61.14,61.14,0,0,1,1105.29,111a56.3,56.3,0,0,1,19.34-13.78,62.14,62.14,0,0,1,25.24-5A59.58,59.58,0,0,1,1169.45,95.48Z"/><path class="cls-3" d="M1366.2,188.13h31.5v31.49h-31.5Z"/><path class="cls-3" d="M1338.64,51.7V219.62h-27.56V203.18A38.5,38.5,0,0,1,1296,217.54a45.78,45.78,0,0,1-22,5.1,49.68,49.68,0,0,1-21-4.52A50.42,50.42,0,0,1,1235.8,205a63.66,63.66,0,0,1-11.69-20.61,80.39,80.39,0,0,1-4.29-27.1,79.68,79.68,0,0,1,4.29-26.87,63.66,63.66,0,0,1,11.69-20.61,50.55,50.55,0,0,1,17.26-13.09,49.67,49.67,0,0,1,21-4.51,45.78,45.78,0,0,1,22,5.09,38.57,38.57,0,0,1,15.06,14.36v-60Zm-29,86.86a39.54,39.54,0,0,0-6.83-13.32,28,28,0,0,0-10.2-7.87A30.24,30.24,0,0,0,1280,114.7a27.29,27.29,0,0,0-12.74,3,29.35,29.35,0,0,0-10,8.57,41.82,41.82,0,0,0-6.48,13.44,62.09,62.09,0,0,0-2.32,17.6q0,19.92,8.8,31.38t22.7,11.47a30.39,30.39,0,0,0,12.62-2.66,27.48,27.48,0,0,0,10.2-8,41,41,0,0,0,6.83-13.31,62.38,62.38,0,0,0,2.54-18.88A62.61,62.61,0,0,0,1309.69,138.56Z"/><rect class="cls-4" x="1302.16" y="1.42" width="54" height="93.59"/><path class="cls-3" d="M1786.63,97.45q9.61-5.22,22.82-5.21,11.34,0,19.34,3.47a33.15,33.15,0,0,1,13.08,10,42.72,42.72,0,0,1,7.53,15.52,77.55,77.55,0,0,1,2.43,20.15v78.28h-27.56V148.06a107.77,107.77,0,0,0-.69-12.28,31.47,31.47,0,0,0-3.13-10.77,18.25,18.25,0,0,0-7.18-7.53q-4.76-2.78-12.62-2.78a28.81,28.81,0,0,0-13.44,2.9,24.42,24.42,0,0,0-9,8,33.81,33.81,0,0,0-5,12.27,75.88,75.88,0,0,0-1.51,15.52v66.24h-27.56V51.7h27.56v60.69A36.69,36.69,0,0,1,1786.63,97.45Z"/><path class="cls-3" d="M1952.7,95.48a56.06,56.06,0,0,1,16.79,9.15,53.52,53.52,0,0,1,19.46,33h-26.87a26.18,26.18,0,0,0-9.73-16.21q-7.87-6.26-19.22-6.25a32.28,32.28,0,0,0-12.4,2.43,27.7,27.7,0,0,0-10.42,7.64,38.68,38.68,0,0,0-7.18,13.09,59.78,59.78,0,0,0-2.66,19,60.92,60.92,0,0,0,2.66,19.11,38.58,38.58,0,0,0,7.18,13.2,27.91,27.91,0,0,0,10.31,7.64,30.27,30.27,0,0,0,11.81,2.43,42.93,42.93,0,0,0,10-1.15,28,28,0,0,0,9-3.94,27.06,27.06,0,0,0,7.18-7.06A29,29,0,0,0,1963,177h26.87a54,54,0,0,1-21.08,33.81,59.26,59.26,0,0,1-17.37,8.8,63.87,63.87,0,0,1-19.45,3,59.35,59.35,0,0,1-24.67-5A56.84,56.84,0,0,1,1888.42,204a61,61,0,0,1-12.16-20.61,80.05,80.05,0,0,1,0-51.65A61.14,61.14,0,0,1,1888.54,111a56.3,56.3,0,0,1,19.34-13.78,62.18,62.18,0,0,1,25.25-5A59.56,59.56,0,0,1,1952.7,95.48Z"/><path class="cls-3" d="M2121.89,51.7V219.62h-27.56V203.18a38.5,38.5,0,0,1-15.06,14.36,45.78,45.78,0,0,1-22,5.1,49.68,49.68,0,0,1-21-4.52A50.42,50.42,0,0,1,2019.05,205a63.66,63.66,0,0,1-11.69-20.61,80.39,80.39,0,0,1-4.29-27.1,79.68,79.68,0,0,1,4.29-26.87,63.66,63.66,0,0,1,11.69-20.61,50.55,50.55,0,0,1,17.26-13.09,49.67,49.67,0,0,1,21-4.51,45.78,45.78,0,0,1,22,5.09,38.57,38.57,0,0,1,15.06,14.36v-60Zm-28.95,86.86a39.54,39.54,0,0,0-6.83-13.32,28,28,0,0,0-10.2-7.87,30.24,30.24,0,0,0-12.62-2.67,27.29,27.29,0,0,0-12.74,3,29.35,29.35,0,0,0-10,8.57,41.82,41.82,0,0,0-6.48,13.44,62.09,62.09,0,0,0-2.32,17.6q0,19.92,8.8,31.38t22.7,11.47a30.39,30.39,0,0,0,12.62-2.66,27.48,27.48,0,0,0,10.2-8,41,41,0,0,0,6.83-13.31,62.36,62.36,0,0,0,2.55-18.88A62.59,62.59,0,0,0,2092.94,138.56Z"/><rect class="cls-4" x="2085.41" y="1.42" width="54" height="93.59"/><circle class="cls-3" cx="2165.2" cy="203.87" r="15.75"/><path class="cls-3" d="M2569.88,100.46q9.61-5.2,22.82-5.21,11.34,0,19.34,3.47a33.15,33.15,0,0,1,13.08,10,42.8,42.8,0,0,1,7.53,15.52,77.55,77.55,0,0,1,2.43,20.15v78.29h-27.56V151.07a107.9,107.9,0,0,0-.69-12.28A31.54,31.54,0,0,0,2603.7,128a18.25,18.25,0,0,0-7.18-7.53q-4.76-2.77-12.62-2.78a28.81,28.81,0,0,0-13.44,2.9,24.42,24.42,0,0,0-9,8,33.79,33.79,0,0,0-5,12.28,75.78,75.78,0,0,0-1.51,15.51v66.25h-27.56V54.72h27.56V115.4A36.69,36.69,0,0,1,2569.88,100.46Z"/><path class="cls-3" d="M2736,98.49a56.06,56.06,0,0,1,16.79,9.15,53.52,53.52,0,0,1,19.46,33h-26.87a26.18,26.18,0,0,0-9.73-16.21q-7.87-6.25-19.22-6.25a32.19,32.19,0,0,0-12.39,2.43,27.66,27.66,0,0,0-10.43,7.64,38.78,38.78,0,0,0-7.18,13.09,59.78,59.78,0,0,0-2.66,19,60.92,60.92,0,0,0,2.66,19.11,38.49,38.49,0,0,0,7.18,13.2,27.8,27.8,0,0,0,10.31,7.64,30.1,30.1,0,0,0,11.81,2.44,42.93,42.93,0,0,0,10-1.16,27.69,27.69,0,0,0,9-3.94,27.06,27.06,0,0,0,7.18-7.06,29,29,0,0,0,4.4-10.54h26.87a54,54,0,0,1-21.07,33.81,59.58,59.58,0,0,1-17.38,8.81,64.18,64.18,0,0,1-19.45,3,59.19,59.19,0,0,1-24.67-5A56.8,56.8,0,0,1,2671.68,207a60.89,60.89,0,0,1-12.16-20.61,79.88,79.88,0,0,1,0-51.65A61.15,61.15,0,0,1,2671.79,114a56.3,56.3,0,0,1,19.34-13.78,62.18,62.18,0,0,1,25.25-5A59.56,59.56,0,0,1,2736,98.49Z"/><path class="cls-3" d="M2914.53,98V114.7a38.55,38.55,0,0,0-15.05-14.36,45.93,45.93,0,0,0-22-5.09,49.67,49.67,0,0,0-21,4.51,50.64,50.64,0,0,0-17.25,13.09,64,64,0,0,0-11.7,20.61,79.68,79.68,0,0,0-4.28,26.87,80.39,80.39,0,0,0,4.28,27.1,64,64,0,0,0,11.7,20.62,50.49,50.49,0,0,0,17.25,13.08,49.68,49.68,0,0,0,21,4.52,45.82,45.82,0,0,0,22-5.1,38.47,38.47,0,0,0,15.05-14.36v16.45h27.56V98Zm-1.39,81.18a40.83,40.83,0,0,1-6.83,13.32,27.52,27.52,0,0,1-10.19,8,30.47,30.47,0,0,1-12.63,2.66q-13.89,0-22.69-11.46t-8.8-31.39a62.46,62.46,0,0,1,2.31-17.6,41.88,41.88,0,0,1,6.49-13.43,29.13,29.13,0,0,1,10-8.57,27.14,27.14,0,0,1,12.73-3,30.32,30.32,0,0,1,12.63,2.67,27.92,27.92,0,0,1,10.19,7.87,39.36,39.36,0,0,1,6.83,13.32,62.64,62.64,0,0,1,2.55,18.76A62.36,62.36,0,0,1,2913.14,179.21Z"/><circle class="cls-3" cx="2802.3" cy="206.89" r="15.75"/><line class="cls-5" x1="14.58" y1="394.79" x2="3016.86" y2="394.79"/><polygon class="cls-3" points="3009.57 419.72 3052.74 394.8 3009.57 369.86 3009.57 419.72"/><circle class="cls-3" cx="304.58" cy="394.79" r="18.96"/><circle class="cls-3" cx="1166.64" cy="394.79" r="18.96"/><circle class="cls-3" cx="1930.93" cy="394.79" r="18.96"/><circle class="cls-3" cx="2714.18" cy="394.79" r="18.96"/></svg>