<svg xmlns="http://www.w3.org/2000/svg" viewBox="0 0 2153.57 1441.7"><defs><style>.cls-1{fill:#414042;}.cls-2{fill:#f7c890;}.cls-3{fill:#317090;}.cls-4{fill:#321916;}.cls-5{fill:#593c1f;}.cls-6{fill:#231f20;}.cls-7{fill:#5a3b39;}.cls-18,.cls-8{fill:#fff;}.cls-9{fill:#fff200;}.cls-10{fill:#e3b52c;}.cls-11{fill:#f0c38d;}.cls-12,.cls-15{fill:none;}.cls-12,.cls-15,.cls-18{stroke:#231f20;stroke-miterlimit:10;}.cls-12{stroke-width:2px;}.cls-13{fill:#c11f4a;}.cls-14{fill:#d3b492;}.cls-16{fill:#563a39;}.cls-17{fill:#2e3192;}.cls-19{fill:#eec08d;}</style></defs><title>karakter_rentegnet</title><g id="Layer_2" data-name="Layer 2"><rect class="cls-1" x="-35.99" y="-39.7" width="2213.56" height="1515.29"/><ellipse class="cls-2" cx="562.79" cy="1023.41" rx="11.45" ry="15.73" transform="translate(-251.11 185.75) rotate(-15.37)"/><ellipse class="cls-2" cx="357.9" cy="1023.41" rx="15.73" ry="11.45" transform="translate(-723.77 1097.28) rotate(-74.63)"/><polygon class="cls-2" points="511.36 1278.73 525.78 1252.27 465.55 1252.27 475.3 1280.05 511.36 1278.73"/><polygon class="cls-2" points="439.82 1278.73 454.24 1252.27 394.02 1252.27 403.77 1280.05 439.82 1278.73"/><path class="cls-3" d="M562.49,1058.15s-7.2,35.91-10.9,72.06c16.42-5.26,37-13,48.48-19.54C592.16,1087,578.2,1072.28,562.49,1058.15Z"/><path class="cls-2" d="M551.59,1130.21c-3.76,36.79-3.9,73.83,10.9,73.53,29.33-.6,44.41-31.36,44.41-45.16,0-19.57-2.54-35-6.83-47.91C588.55,1117.17,568,1125,551.59,1130.21Z"/><path class="cls-3" d="M356.66,1058.15c-18.82,16.92-35.13,34.65-41.51,67.69,17,7.67,40.9,15.68,53.68,18.84C365.92,1104.34,356.66,1058.15,356.66,1058.15Z"/><path class="cls-2" d="M315.15,1125.84a172,172,0,0,0-2.9,32.74c0,13.8,15.07,44.56,44.41,45.16,12.84.26,14.44-27.63,12.17-59.06C356.05,1141.52,332.17,1133.51,315.15,1125.84Z"/><path class="cls-4" d="M451.51,1186.72c-40.34,0-78.25-2.4-105.5-6.63,13.07,35.39,28.61,63.49,44.9,74.88,0,0,27.37,7.7,63.75,1.8l4.91-7.53,4.92,7.53c36.38,5.9,63.75-1.8,63.75-1.8,17.11-9.41,35.68-38.75,45.46-76.43C536.28,1184.18,492.68,1186.72,451.51,1186.72Z"/><path class="cls-3" d="M576.8,1169.07c9.2-31.63,9.4-69.48-14.31-110.92,0,0-38.68,31.47-102.92,31.47s-102.91-31.47-102.91-31.47c-24.09,42.08-23.49,80.45-13.87,112.39C396.92,1179.83,500.91,1181.19,576.8,1169.07Z"/><path class="cls-5" d="M572,1184.56c1.11-3.09,3.82-12.26,4.76-15.49-75.89,12.12-179.88,10.76-234,1.47,1,3.25,4.34,12.46,5.5,15.58,27.25,4.22,63.18,6.33,103.52,6.33C493,1192.45,534.62,1190.19,572,1184.56Z"/><path class="cls-6" d="M441.37,1289.22H403.44a3.18,3.18,0,0,1-3.17-3.17s5.43-9.94,9-9.94h28.64c3.61,0,6.56,10,6.56,10A3.13,3.13,0,0,1,441.37,1289.22Z"/><path class="cls-6" d="M512.2,1289.22H474.27a3.18,3.18,0,0,1-3.17-3.17s5.43-9.94,9-9.94h28.63c3.61,0,6.56,10,6.56,10A3.13,3.13,0,0,1,512.2,1289.22Z"/><path class="cls-7" d="M379.6,993.42s32.12,5.9,80,5.9,80-5.9,80-5.9v18.19H563.2c-18.32-48.79-79.76-66.37-103.63-66.37s-85.3,17.58-103.62,66.37H379.6Z"/><path class="cls-2" d="M563.2,1011.61H539.54V993.42s-32.12,5.9-80,5.9-80-5.9-80-5.9v18.19H356a81.22,81.22,0,0,0-3.72,13.06c-11.31,58.79,66.37,65.11,107.34,69,41-3.94,118.65-10.26,107.34-69A80.19,80.19,0,0,0,563.2,1011.61Z"/><path class="cls-6" d="M504.51,1022.73c0,9.39-5.63,17-12.58,17s-12.57-7.6-12.57-17,5.63-17,12.57-17S504.51,1013.35,504.51,1022.73Zm-12.58-12.62c-5.15,0-9.34,5.65-9.34,12.62s4.19,12.62,9.34,12.62,9.35-5.65,9.35-12.62S497.09,1010.11,491.93,1010.11Z"/><path class="cls-6" d="M434.4,1022.73c0,9.39-5.64,17-12.58,17s-12.58-7.6-12.58-17,5.63-17,12.58-17S434.4,1013.35,434.4,1022.73Zm-12.58-12.62c-5.16,0-9.34,5.65-9.34,12.62s4.18,12.62,9.34,12.62,9.34-5.65,9.34-12.62S427,1010.11,421.82,1010.11Z"/><path class="cls-6" d="M460.89,1046.61c9.14-1.1,17.86,4.13,22,8.65s6.39,8.08,6.39,10.9,0,6.4-7.33,4.89-10.72-3.19-18.43-3-18.81,4.13-22.38,5.64-10.34,3.57-14.1,1.13-.38-10.16,4.32-14.48S443.58,1048.68,460.89,1046.61Z"/><path class="cls-8" d="M431.57,1073.12a5.47,5.47,0,0,1-3-.67c-.1-.06-.28-.18-.33-.76a3.62,3.62,0,0,1,.07-.93,83.6,83.6,0,0,1,41.6-11A85.11,85.11,0,0,1,484,1061c2,2.77,2.49,4.35,2.49,5.2,0,2.43,0,2.43-1.47,2.43a12.62,12.62,0,0,1-2.48-.3c-2-.41-3.69-.83-5.32-1.24a45.89,45.89,0,0,0-12.51-1.84l-1.23,0c-8.25.2-19.69,4.3-23.41,5.86A24.44,24.44,0,0,1,431.57,1073.12Z"/><path class="cls-8" d="M431.17,1064.75a17.63,17.63,0,0,1,2.1-2.34l.4-.36c4.64-4.28,11.64-10.74,27.55-12.64a17.12,17.12,0,0,1,2.15-.13c6.63,0,13,3.5,16.76,7.18a88.31,88.31,0,0,0-10.17-.61A89.61,89.61,0,0,0,431.17,1064.75Z"/><path class="cls-6" d="M444.42,991.85l-1.11,6s-22.82-5.86-56.07,26.77C387.24,1024.67,402,981.27,444.42,991.85Z"/><path class="cls-6" d="M471.59,998.45l-2.11-7s45.83-5.08,54.47,27.39C524,1018.88,514.38,1000.73,471.59,998.45Z"/><ellipse class="cls-9" cx="455.59" cy="1133.7" rx="43.92" ry="24.8"/><path class="cls-6" d="M448.75,1126c-10.6,3.94-16-5.85-10.6-11.52-8.6,2.2-22.59,8.41-22.59,18.76,0,9.4,9.14,14.71,15.73,17-6.35-7.86,2.38-14,10-5.43,5.95-10.55,13,4.61,14.22,6.91h0c1.26-2.3,8.28-17.46,14.23-6.91,7.65-8.59,16.38-2.43,10,5.43,6.59-2.29,15.73-7.6,15.73-17,0-10.35-14-16.56-22.59-18.76,5.4,5.67,0,15.46-10.61,11.52-1.22-1.45-2-4.47-2-13.35-1.42.92-2.44,4.18-2.53,4.42a8.7,8.7,0,0,0-4.5,0c-.09-.24-1.1-3.5-2.52-4.42C450.77,1121.55,450,1124.57,448.75,1126Z"/><rect class="cls-10" x="440.75" y="1177.58" width="36.53" height="15.49" rx="0.28" ry="0.28"/><ellipse class="cls-2" cx="1101.65" cy="1023.41" rx="11.45" ry="15.73" transform="translate(-231.84 328.57) rotate(-15.37)"/><ellipse class="cls-2" cx="896.76" cy="1023.41" rx="15.73" ry="11.45" transform="translate(-327.72 1616.88) rotate(-74.63)"/><polygon class="cls-2" points="1050.22 1278.73 1064.64 1252.27 1004.42 1252.27 1014.17 1280.05 1050.22 1278.73"/><polygon class="cls-2" points="978.68 1278.73 993.1 1252.27 932.88 1252.27 942.63 1280.05 978.68 1278.73"/><path class="cls-3" d="M1101.35,1058.15s-7.2,35.91-10.9,72.06c16.42-5.26,23-15.5,34.51-22C1117.05,1084.52,1117.07,1072.28,1101.35,1058.15Z"/><path class="cls-3" d="M895.52,1058.15c-18.82,16.92-23.78,26.8-30.16,59.84,17,7.67,29.55,23.53,42.33,26.69C904.79,1104.34,895.52,1058.15,895.52,1058.15Z"/><path class="cls-4" d="M990.37,1186.72c-40.34,0-78.25-2.4-105.5-6.63,13.07,35.39,28.62,63.49,44.9,74.88,0,0,27.37,7.7,63.75,1.8l4.91-7.53,4.92,7.53c36.38,5.9,63.75-1.8,63.75-1.8,17.11-9.41,35.69-38.75,45.46-76.43C1075.14,1184.18,1031.54,1186.72,990.37,1186.72Z"/><path class="cls-3" d="M1115.66,1169.07c9.2-31.63,9.41-69.48-14.31-110.92,0,0-38.68,31.47-102.92,31.47s-102.91-31.47-102.91-31.47c-24.09,42.08-23.49,80.45-13.87,112.39C935.78,1179.83,1039.77,1181.19,1115.66,1169.07Z"/><path class="cls-5" d="M1110.9,1184.56c1.11-3.09,3.83-12.26,4.76-15.49-75.89,12.12-179.88,10.76-234,1.47,1,3.25,4.35,12.46,5.5,15.58,27.25,4.22,63.18,6.33,103.52,6.33C1031.84,1192.45,1073.49,1190.19,1110.9,1184.56Z"/><path class="cls-6" d="M980.23,1289.22H942.31a3.19,3.19,0,0,1-3.18-3.17s5.43-9.94,9-9.94H976.8c3.61,0,6.56,10,6.56,10A3.13,3.13,0,0,1,980.23,1289.22Z"/><path class="cls-6" d="M1051.06,1289.22h-37.92a3.19,3.19,0,0,1-3.18-3.17s5.43-9.94,9-9.94h28.63c3.61,0,6.56,10,6.56,10A3.13,3.13,0,0,1,1051.06,1289.22Z"/><path class="cls-7" d="M918.46,993.42s32.12,5.9,80,5.9,80-5.9,80-5.9v18.19h23.65c-18.32-48.79-79.76-66.37-103.62-66.37s-85.31,17.58-103.63,66.37h23.65Z"/><path class="cls-2" d="M1102.06,1011.61h-23.65V993.42s-32.12,5.9-80,5.9-80-5.9-80-5.9v18.19H894.81a80.19,80.19,0,0,0-3.71,13.06c-11.31,58.79,66.37,65.11,107.34,69,41-3.94,118.64-10.26,107.33-69A80.19,80.19,0,0,0,1102.06,1011.61Z"/><path class="cls-6" d="M1043.37,1022.73c0,9.39-5.63,17-12.57,17s-12.58-7.6-12.58-17,5.63-17,12.58-17S1043.37,1013.35,1043.37,1022.73Zm-12.57-12.62c-5.16,0-9.34,5.65-9.34,12.62s4.18,12.62,9.34,12.62,9.34-5.65,9.34-12.62S1036,1010.11,1030.8,1010.11Z"/><path class="cls-6" d="M973.26,1022.73c0,9.39-5.63,17-12.58,17s-12.58-7.6-12.58-17,5.64-17,12.58-17S973.26,1013.35,973.26,1022.73Zm-12.58-12.62c-5.16,0-9.34,5.65-9.34,12.62s4.18,12.62,9.34,12.62,9.34-5.65,9.34-12.62S965.84,1010.11,960.68,1010.11Z"/><path class="cls-6" d="M983.28,991.85l-1.1,6s-22.83-5.86-56.08,26.77C926.1,1024.67,940.83,981.27,983.28,991.85Z"/><path class="cls-6" d="M1010.45,998.45l-2.1-7s45.82-5.08,54.47,27.39C1062.82,1018.88,1053.24,1000.73,1010.45,998.45Z"/><ellipse class="cls-9" cx="994.46" cy="1133.7" rx="43.92" ry="24.8"/><path class="cls-6" d="M987.62,1126c-10.61,3.94-16-5.85-10.61-11.52-8.6,2.2-22.59,8.41-22.59,18.76,0,9.4,9.14,14.71,15.73,17-6.35-7.86,2.38-14,10-5.43,6-10.55,13,4.61,14.23,6.91h0c1.25-2.3,8.27-17.46,14.23-6.91,7.64-8.59,16.37-2.43,10,5.43,6.59-2.29,15.73-7.6,15.73-17,0-10.35-14-16.56-22.59-18.76,5.4,5.67,0,15.46-10.6,11.52-1.23-1.45-2-4.47-2-13.35-1.42.92-2.43,4.18-2.52,4.42a8.7,8.7,0,0,0-4.5,0c-.09-.24-1.11-3.5-2.53-4.42C989.63,1121.55,988.84,1124.57,987.62,1126Z"/><rect class="cls-10" x="979.61" y="1177.58" width="36.53" height="15.49" rx="0.28" ry="0.28"/><path class="cls-3" d="M1125,1108.2c1.93,8.21.17,32-9.3,32s-8.77-31.31-8.77-31.31Z"/><path class="cls-3" d="M865.36,1118c-1.93,8.22,7.95,37.4,17.42,37.4s3.27-31.32,3.27-31.32Z"/><path class="cls-11" d="M1108.12,1067.87c-18.29-23.61-73.27-65.94-83.56-55.31-20.4,21.09-2.65,35,5.21,42.83,11.14,11.14,44.84,53.59,55.2,57.88C1089.4,1101.43,1099.5,1082.47,1108.12,1067.87Z"/><path class="cls-11" d="M882.78,1073.94c20.12-25.44,79.36-72,89.64-61.38,20.37,21.12,1.57,43.58-7,52.12-12.11,12.12-49.48,50.71-60.48,55.64C900.85,1108.15,891.14,1088.81,882.78,1073.94Z"/><path class="cls-6" d="M1003.91,1041.61c6.86,0,10.94,6.87,10.94,12.43s-11.13,22.45-23.37,22.45-7.42-18.74-3.9-24.49S994.08,1041.61,1003.91,1041.61Z"/><path class="cls-12" d="M982,1079.27s5.49,4.45,17.21,3"/><rect class="cls-2" x="310.41" y="351.6" width="44.41" height="53.77"/><ellipse class="cls-2" cx="388.33" cy="282.01" rx="9.47" ry="20.21"/><ellipse class="cls-2" cx="266.41" cy="282.01" rx="9.47" ry="20.21"/><path class="cls-2" d="M332.62,360.58c-22.21.37-64.52-6.17-64.52-49.74s.63-53.67-3.15-67.56-10.11-43.57,9.47-56.2,38.52-8.84,50.51-11.37,36-6.94,34.1,9.47c10.74,3.79,36,11.37,32.2,59.36s-3.15,59.36-4.42,68.83S379.45,359.81,332.62,360.58Z"/><polygon class="cls-13" points="285.78 761.69 285.78 761.69 307.88 759.8 307.88 759.8 317.71 663.38 283.13 663.38 285.78 761.69"/><polygon class="cls-6" points="274.42 783.16 274.42 793.26 316.09 793.26 316.09 777.48 307.88 759.8 285.78 761.69 274.42 783.16"/><polygon class="cls-6" points="380.5 760.43 355.66 761.69 355.24 788.84 415.86 793.26 415.86 779.37 380.5 760.43"/><polygon class="cls-2" points="380.5 663.38 380.5 550.79 280.1 550.79 283.13 663.38 317.71 663.38 317.99 660.66 331.25 580.47 345.14 656.87 345.64 663.38 345.8 664.94 380.5 663.96 380.5 663.38"/><polygon class="cls-13" points="380.5 760.43 380.5 663.96 345.8 664.94 355.66 761.69 355.66 761.69 380.5 760.43 380.5 760.43"/><polygon class="cls-2" points="421.23 558.89 418.18 577.41 395.28 572.84 400.07 565.62 405.02 555.73 421.23 558.89"/><polygon class="cls-14" points="397.65 562.47 402.07 554.68 405.02 555.73 400.07 565.62 397.65 562.47"/><polygon class="cls-2" points="240.09 563.97 243.14 582.49 266.03 577.91 261.24 570.7 256.29 560.81 240.09 563.97"/><polygon class="cls-14" points="263.67 567.55 259.25 559.76 256.29 560.81 261.24 570.7 263.67 567.55"/><path class="cls-6" d="M361,277.8c0,6-3.62,10.91-8.08,10.91s-8.08-4.89-8.08-10.91,3.62-10.92,8.08-10.92S361,271.77,361,277.8Zm-8.08-8.11c-3.31,0-6,3.63-6,8.11s2.69,8.1,6,8.1,6-3.63,6-8.1S356.22,269.69,352.91,269.69Z"/><path class="cls-6" d="M316,277.8c0,6-3.62,10.91-8.08,10.91s-8.07-4.89-8.07-10.91,3.61-10.92,8.07-10.92S316,271.77,316,277.8Zm-8.08-8.11c-3.31,0-6,3.63-6,8.11s2.68,8.1,6,8.1,6-3.63,6-8.1S311.2,269.69,307.88,269.69Z"/><polyline class="cls-15" points="335.67 266.9 340.4 303.89 328.52 303.89"/><polygon class="cls-7" points="321.43 261.9 317.88 255.93 279.19 249.95 283.98 256.13 321.43 261.9"/><polygon class="cls-7" points="342.5 260.7 350.79 254.51 376.25 252.07 371.1 257.95 342.76 263.43 342.5 260.7"/><path class="cls-16" d="M359,185.18c10.74,3.79,36,11.37,32.2,59.36-1.09,13.86-1.82,24.67-2.32,33.25h-7.15v-40s-21.47-9.68-26.94-16.83Z"/><path class="cls-6" d="M368.63,308.92l-2.72,1.26c-11.9,5.49-23.43,8.28-34.26,8.28a55,55,0,0,1-32.74-10.25l-3.44-2.5,1.23,4.08c6.4,21.22,17.38,30.68,35.59,30.68,14.17,0,24.92-6.09,31.21-17.35l0,0,.33-.68.09-.17a46.44,46.44,0,0,0,3.94-10.47Z"/><path class="cls-8" d="M341.43,319.25a63.86,63.86,0,0,1-22.28-.54,55.83,55.83,0,0,1-16.31-6.16,42.9,42.9,0,0,0,.94,5.78.38.38,0,0,1,0,.1c7.77,6.24,25.67,20.42,57.2,1.3l1.41-.86a15.43,15.43,0,0,0,1.29-6.08A88.46,88.46,0,0,1,341.43,319.25Z"/><path class="cls-8" d="M304,320.94c.54.42,1.12.86,1.74,1.31,5.53,4,13.85,8.81,25.45,8.81,8.47,0,18.71-2.61,30.83-9.86a4,4,0,0,0,.47-.33l-.25.44c-6.53,11.67-17.53,16.55-29.94,16.55-11.57,0-20.92-3.94-27.76-14.84Z"/><path class="cls-7" d="M359,185.18,354.82,221c-17.25,18.94-79.15,12.2-79.15,12.2V277.8h-7.54c-.08-17.46-.62-25.13-3.18-34.52-3.79-13.9-10.11-43.57,9.47-56.2s38.52-8.84,50.51-11.37S360.93,168.77,359,185.18Z"/><polygon class="cls-2" points="214.22 472.28 241.22 563.84 255.12 560.68 246.84 475.22 251.31 461.96 221.28 449.51 214.22 472.28"/><path class="cls-13" d="M332.72,399c19.4,0,27.28-15.72,29.25-25.2l-7.15-1.74c0,13.05-9.68,19.79-23.36,19.79s-20-9.69-21-19.79L302,374.14C305.14,383.6,313.55,399,332.72,399Z"/><path class="cls-2" d="M413.37,459.45c2.89,8.51,5.54,16.34,5.54,16.34l-14,80.68,13.89,3.16,31.57-89.88-5.71-18.15Z"/><path class="cls-17" d="M425,389.14l-63-15.31c-2,9.48-9.85,25.2-29.25,25.2-19.17,0-27.58-15.43-30.76-24.89l-62,15-18.72,60.37,30,12.45,7.5-22.25L280.1,550.79H380.5l25.67-112.61s3.77,11.12,7.2,21.27l31.3-7.85Z"/><polygon class="cls-13" points="280.1 550.79 274.42 616.67 329.14 616.67 331.46 606.04 332.51 616.67 388.5 616.67 380.5 550.79 280.1 550.79"/><path class="cls-9" d="M352.66,424a16.48,16.48,0,0,1,18.44,0s-1.72,15.62-9.22,15.62S352.66,424,352.66,424Z"/><ellipse class="cls-2" cx="1661.37" cy="1023.41" rx="11.45" ry="15.73" transform="translate(-211.82 476.91) rotate(-15.37)"/><ellipse class="cls-2" cx="1456.48" cy="1023.41" rx="15.73" ry="11.45" transform="translate(83.65 2156.58) rotate(-74.63)"/><polygon class="cls-2" points="1609.93 1278.73 1624.36 1252.27 1564.13 1252.27 1573.88 1280.05 1609.93 1278.73"/><polygon class="cls-2" points="1538.4 1278.73 1552.82 1252.27 1492.59 1252.27 1502.34 1280.05 1538.4 1278.73"/><path class="cls-3" d="M1661.06,1058.15s-7.2,35.91-10.89,72.06c16.42-5.26,37-13,48.47-19.54C1690.74,1087,1676.78,1072.28,1661.06,1058.15Z"/><path class="cls-2" d="M1650.17,1130.21c-3.77,36.79-3.9,73.83,10.89,73.53,29.34-.6,44.41-31.36,44.41-45.16,0-19.57-2.53-35-6.83-47.91C1687.13,1117.17,1666.59,1125,1650.17,1130.21Z"/><path class="cls-3" d="M1455.23,1058.15c-18.82,16.92-35.12,34.65-41.51,67.69,17,7.67,40.91,15.68,53.69,18.84C1464.5,1104.34,1455.23,1058.15,1455.23,1058.15Z"/><path class="cls-2" d="M1413.72,1125.84a172,172,0,0,0-2.9,32.74c0,13.8,15.08,44.56,44.41,45.16,12.85.26,14.44-27.63,12.18-59.06C1454.63,1141.52,1430.75,1133.51,1413.72,1125.84Z"/><path class="cls-4" d="M1550.09,1186.72c-40.35,0-78.25-2.4-105.51-6.63,13.08,35.39,28.62,63.49,44.9,74.88,0,0,27.37,7.7,63.75,1.8l4.92-7.53,4.92,7.53c36.38,5.9,63.74-1.8,63.74-1.8,17.11-9.41,35.69-38.75,45.47-76.43C1634.86,1184.18,1591.25,1186.72,1550.09,1186.72Z"/><path class="cls-3" d="M1675.38,1169.07c9.2-31.63,9.4-69.48-14.32-110.92,0,0-38.67,31.47-102.91,31.47s-102.92-31.47-102.92-31.47c-24.08,42.08-23.48,80.45-13.86,112.39C1495.49,1179.83,1599.48,1181.19,1675.38,1169.07Z"/><path class="cls-5" d="M1670.62,1184.56c1.11-3.09,3.82-12.26,4.76-15.49-75.9,12.12-179.89,10.76-234,1.47,1,3.25,4.34,12.46,5.49,15.58,27.26,4.22,63.18,6.33,103.53,6.33C1591.55,1192.45,1633.2,1190.19,1670.62,1184.56Z"/><path class="cls-6" d="M1540,1289.22H1502a3.18,3.18,0,0,1-3.17-3.17s5.43-9.94,9-9.94h28.64c3.6,0,6.55,10,6.55,10A3.12,3.12,0,0,1,1540,1289.22Z"/><path class="cls-6" d="M1610.78,1289.22h-37.93a3.18,3.18,0,0,1-3.17-3.17s5.43-9.94,9-9.94h28.64c3.6,0,6.55,10,6.55,10A3.12,3.12,0,0,1,1610.78,1289.22Z"/><path class="cls-7" d="M1478.18,993.42s32.12,5.9,80,5.9,80-5.9,80-5.9v18.19h23.65c-18.32-48.79-79.75-66.37-103.62-66.37s-85.31,17.58-103.63,66.37h23.66Z"/><path class="cls-2" d="M1661.77,1011.61h-23.65V993.42s-32.12,5.9-80,5.9-80-5.9-80-5.9v18.19h-23.66a80.19,80.19,0,0,0-3.71,13.06c-11.31,58.79,66.37,65.11,107.34,69,41-3.94,118.65-10.26,107.34-69A80.2,80.2,0,0,0,1661.77,1011.61Z"/><path class="cls-6" d="M1603.09,1022.73c0,9.39-5.63,17-12.58,17s-12.58-7.6-12.58-17,5.63-17,12.58-17S1603.09,1013.35,1603.09,1022.73Zm-12.58-12.62c-5.16,0-9.34,5.65-9.34,12.62s4.18,12.62,9.34,12.62,9.34-5.65,9.34-12.62S1595.67,1010.11,1590.51,1010.11Z"/><path class="cls-6" d="M1533,1022.73c0,9.39-5.63,17-12.57,17s-12.58-7.6-12.58-17,5.63-17,12.58-17S1533,1013.35,1533,1022.73Zm-12.57-12.62c-5.16,0-9.35,5.65-9.35,12.62s4.19,12.62,9.35,12.62,9.34-5.65,9.34-12.62S1525.55,1010.11,1520.4,1010.11Z"/><path class="cls-6" d="M1543,991.85l-1.1,6s-22.83-5.86-56.08,26.77C1485.81,1024.67,1500.54,981.27,1543,991.85Z"/><path class="cls-6" d="M1570.16,998.45l-2.1-7s45.83-5.08,54.47,27.39C1622.53,1018.88,1613,1000.73,1570.16,998.45Z"/><ellipse class="cls-9" cx="1554.17" cy="1133.7" rx="43.92" ry="24.8"/><path class="cls-6" d="M1547.33,1126c-10.61,3.94-16-5.85-10.61-11.52-8.59,2.2-22.59,8.41-22.59,18.76,0,9.4,9.15,14.71,15.73,17-6.35-7.86,2.38-14,10-5.43,6-10.55,13,4.61,14.23,6.91h0c1.25-2.3,8.27-17.46,14.23-6.91,7.65-8.59,16.38-2.43,10,5.43,6.58-2.29,15.73-7.6,15.73-17,0-10.35-14-16.56-22.59-18.76,5.39,5.67,0,15.46-10.61,11.52-1.22-1.45-2-4.47-2-13.35-1.42.92-2.44,4.18-2.53,4.42a8.7,8.7,0,0,0-4.5,0c-.09-.24-1.11-3.5-2.53-4.42C1549.34,1121.55,1548.55,1124.57,1547.33,1126Z"/><rect class="cls-10" x="1539.32" y="1177.58" width="36.53" height="15.49" rx="0.28" ry="0.28"/><path class="cls-6" d="M1529.52,1045.75c4.13,3.63,13.63,9.13,28.63,9.13s25.25-5.75,28.62-8.13c0,0-7.87,30.25-29.5,30.25S1530.27,1050.38,1529.52,1045.75Z"/><path class="cls-8" d="M1533.15,1051.25s19.12,12.13,49.25.88c0,0-11.75,10.12-26.63,10.12S1536.15,1057.5,1533.15,1051.25Z"/><path class="cls-8" d="M1544.15,1070.94c1.19,1.06,12.81,8.31,23.69,1.44Z"/><path class="cls-18" d="M1553.71,1079.57a28.09,28.09,0,0,0,8.81,0"/><rect class="cls-2" x="741.13" y="351.6" width="44.41" height="53.77"/><ellipse class="cls-2" cx="819.05" cy="282.01" rx="9.47" ry="20.21"/><ellipse class="cls-2" cx="697.13" cy="282.01" rx="9.47" ry="20.21"/><path class="cls-2" d="M763.34,360.58c-22.2.37-64.51-6.17-64.51-49.74s.63-53.67-3.16-67.56-10.1-43.57,9.47-56.2,38.52-8.84,50.52-11.37,36-6.94,34.09,9.47c10.74,3.79,36,11.37,32.21,59.36s-3.16,59.36-4.42,68.83S810.17,359.81,763.34,360.58Z"/><polygon class="cls-13" points="716.51 761.69 716.51 761.69 738.61 759.8 738.61 759.8 748.43 663.38 713.86 663.38 716.51 761.69"/><polygon class="cls-6" points="705.14 783.16 705.14 793.26 746.82 793.26 746.82 777.48 738.61 759.8 716.51 761.69 705.14 783.16"/><polygon class="cls-6" points="811.22 760.43 786.39 761.69 785.97 788.84 846.58 793.26 846.58 779.37 811.22 760.43"/><polygon class="cls-2" points="811.22 663.38 811.22 550.79 710.82 550.79 713.86 663.38 748.43 663.38 748.71 660.66 761.97 580.47 775.86 656.87 776.36 663.38 776.52 664.94 811.22 663.96 811.22 663.38"/><polygon class="cls-13" points="811.22 760.43 811.22 663.96 776.52 664.94 786.39 761.69 786.39 761.69 811.22 760.43 811.22 760.43"/><polygon class="cls-2" points="851.96 558.89 848.9 577.41 826.01 572.84 830.8 565.62 835.75 555.73 851.96 558.89"/><polygon class="cls-14" points="828.37 562.47 832.79 554.68 835.75 555.73 830.8 565.62 828.37 562.47"/><polygon class="cls-2" points="670.81 563.97 673.86 582.49 696.76 577.91 691.97 570.7 687.02 560.81 670.81 563.97"/><polygon class="cls-14" points="694.39 567.55 689.97 559.76 687.02 560.81 691.97 570.7 694.39 567.55"/><path class="cls-6" d="M799.79,277.8c0,6-2.22,10.91-5,10.91s-5-4.89-5-10.91,2.22-10.92,5-10.92S799.79,271.77,799.79,277.8Zm-5-8.11c-2,0-3.68,3.63-3.68,8.11s1.65,8.1,3.68,8.1,3.69-3.63,3.69-8.1S796.86,269.69,794.82,269.69Z"/><path class="cls-6" d="M754.76,277.8c0,6-2.18,10.91-4.87,10.91S745,283.82,745,277.8s2.18-10.92,4.87-10.92S754.76,271.77,754.76,277.8Zm-4.87-8.11c-2,0-3.62,3.63-3.62,8.11s1.62,8.1,3.62,8.1,3.62-3.63,3.62-8.1S751.89,269.69,749.89,269.69Z"/><polyline class="cls-15" points="766.39 266.9 771.13 303.89 759.24 303.89"/><polygon class="cls-7" points="752.15 261.9 748.6 255.93 709.91 249.95 714.71 256.13 752.15 261.9"/><polygon class="cls-7" points="773.23 260.7 781.51 254.51 806.97 252.07 801.82 257.95 773.49 263.43 773.23 260.7"/><path class="cls-16" d="M789.75,185.18c10.74,3.79,36,11.37,32.21,59.36-1.1,13.86-1.82,24.67-2.33,33.25h-7.14v-40S791,228.12,785.55,221Z"/><path class="cls-6" d="M799.35,308.92l-2.71,1.26c-11.91,5.49-23.43,8.28-34.27,8.28a55,55,0,0,1-32.74-10.25l-3.44-2.5,1.23,4.08c6.41,21.22,17.39,30.68,35.59,30.68,14.17,0,24.92-6.09,31.22-17.35l0,0,.34-.68.08-.17a46.45,46.45,0,0,0,4-10.47Z"/><path class="cls-8" d="M772.15,319.25a63.87,63.87,0,0,1-22.28-.54,55.83,55.83,0,0,1-16.31-6.16,44.6,44.6,0,0,0,1,5.78l0,.1c7.76,6.24,25.66,20.42,57.19,1.3.47-.28.94-.56,1.41-.86a15.43,15.43,0,0,0,1.29-6.08A88.46,88.46,0,0,1,772.15,319.25Z"/><path class="cls-8" d="M734.75,320.94c.54.42,1.13.86,1.74,1.31,5.53,4,13.86,8.81,25.45,8.81,8.47,0,18.71-2.61,30.83-9.86a3.29,3.29,0,0,0,.47-.33l-.25.44c-6.53,11.67-17.53,16.55-29.94,16.55-11.56,0-20.92-3.94-27.76-14.84Z"/><path class="cls-7" d="M789.75,185.18,785.55,221c-17.26,18.94-79.16,12.2-79.16,12.2V277.8h-7.54c-.08-17.46-.62-25.13-3.18-34.52-3.79-13.9-10.1-43.57,9.47-56.2s38.52-8.84,50.52-11.37S791.65,168.77,789.75,185.18Z"/><polygon class="cls-2" points="644.94 472.28 671.95 563.84 685.84 560.68 677.56 475.22 682.03 461.96 652 449.51 644.94 472.28"/><path class="cls-13" d="M763.44,399c19.41,0,27.28-15.72,29.25-25.2l-7.14-1.74c0,13.05-9.69,19.79-23.37,19.79s-20-9.69-21-19.79l-8.45,2.05C735.87,383.6,744.28,399,763.44,399Z"/><path class="cls-2" d="M844.1,459.45l5.53,16.34-14,80.68,13.89,3.16,31.57-89.88-5.71-18.15Z"/><path class="cls-17" d="M855.74,389.14l-63-15.31c-2,9.48-9.84,25.2-29.25,25.2-19.16,0-27.57-15.43-30.76-24.89l-61.95,15L652,449.51,682,462l7.5-22.25,21.29,111.08h100.4L836.9,438.18s3.76,11.12,7.2,21.27l31.29-7.85Z"/><polygon class="cls-13" points="710.82 550.79 705.14 616.67 759.87 616.67 762.18 606.04 763.23 616.67 819.22 616.67 811.22 550.79 710.82 550.79"/><path class="cls-9" d="M783.38,424a16.5,16.5,0,0,1,18.45,0s-1.73,15.62-9.23,15.62S783.38,424,783.38,424Z"/><polygon class="cls-2" points="1471.78 313.19 1450.94 322.66 1453.42 329.65 1479.82 319.17 1471.78 313.19"/><rect class="cls-2" x="1206.23" y="351.6" width="44.41" height="53.77"/><ellipse class="cls-2" cx="1284.15" cy="282.01" rx="9.47" ry="20.21"/><ellipse class="cls-2" cx="1162.22" cy="282.01" rx="9.47" ry="20.21"/><path class="cls-2" d="M1228.44,360.58c-22.21.37-64.52-6.17-64.52-49.74s.63-53.67-3.16-67.56-10.1-43.57,9.48-56.2,38.51-8.84,50.51-11.37,36-6.94,34.1,9.47c10.73,3.79,36,11.37,32.2,59.36s-3.15,59.36-4.42,68.83S1275.27,359.81,1228.44,360.58Z"/><polygon class="cls-13" points="1181.6 761.69 1181.6 761.69 1203.7 759.8 1203.7 759.8 1213.53 663.38 1178.95 663.38 1181.6 761.69"/><polygon class="cls-6" points="1170.24 783.16 1170.24 793.26 1211.91 793.26 1211.91 777.48 1203.7 759.8 1181.6 761.69 1170.24 783.16"/><polygon class="cls-6" points="1276.32 760.43 1251.48 761.69 1251.06 788.84 1311.68 793.26 1311.68 779.37 1276.32 760.43"/><polygon class="cls-2" points="1276.32 663.38 1276.32 550.79 1175.92 550.79 1178.95 663.38 1213.53 663.38 1213.81 660.66 1227.07 580.47 1240.96 656.87 1241.45 663.38 1241.61 664.94 1276.32 663.96 1276.32 663.38"/><polygon class="cls-13" points="1276.32 760.43 1276.32 663.96 1241.61 664.94 1251.48 761.69 1251.48 761.69 1276.32 760.43 1276.32 760.43"/><polygon class="cls-2" points="1436.6 349.4 1464.42 345.95 1457.55 320.15 1446.71 325.55 1431.86 331.13 1436.6 349.4"/><polygon class="cls-2" points="1135.9 563.97 1138.96 582.49 1161.85 577.91 1157.06 570.7 1152.11 560.81 1135.9 563.97"/><polygon class="cls-14" points="1159.48 567.55 1155.07 559.76 1152.11 560.81 1157.06 570.7 1159.48 567.55"/><polygon class="cls-6" points="1236.79 304.4 1224.34 304.4 1224.34 303.4 1235.65 303.4 1230.99 266.97 1231.98 266.84 1236.79 304.4"/><path class="cls-16" d="M1254.85,185.18c10.73,3.79,36,11.37,32.2,59.36-1.09,13.86-1.82,24.67-2.33,33.25h-7.14v-40s-21.47-9.68-26.94-16.83Z"/><path class="cls-7" d="M1254.85,185.18,1250.64,221c-17.25,18.94-79.15,12.2-79.15,12.2V277.8H1164c-.08-17.46-.62-25.13-3.19-34.52-3.78-13.9-10.1-43.57,9.48-56.2s38.51-8.84,50.51-11.37S1256.74,168.77,1254.85,185.18Z"/><polygon class="cls-2" points="1110.04 472.28 1137.04 563.84 1150.93 560.68 1142.66 475.22 1147.13 461.96 1117.1 449.51 1110.04 472.28"/><path class="cls-13" d="M1228.53,399c19.41,0,27.29-15.72,29.26-25.2l-7.15-1.74c0,13.05-9.68,19.79-23.36,19.79s-20-9.69-21-19.79l-8.45,2.05C1201,383.6,1209.37,399,1228.53,399Z"/><path class="cls-2" d="M1338.87,405.18c8.35-5.54,22.67-13.83,22.67-13.83l78-44.46L1436,335.15l-80.48,24.72-18.16,5.72Z"/><path class="cls-17" d="M1317.05,369.15l-59.26,4.68c-2,9.48-9.85,25.2-29.26,25.2-19.16,0-27.57-15.43-30.75-24.89l-62,15-18.72,60.37,30,12.45,7.49-22.25,21.3,111.08h100.4L1302,438.18s23.38-31.5,36.88-33l-1.53-39.59Z"/><polygon class="cls-13" points="1175.92 550.79 1170.24 616.67 1224.96 616.67 1227.28 606.04 1228.33 616.67 1284.32 616.67 1276.32 550.79 1175.92 550.79"/><polygon class="cls-19" points="1462.64 337.78 1459.45 327.54 1455.09 327.76 1458.24 340.55 1462.64 337.78"/><polygon class="cls-19" points="1434.85 337.19 1452.95 336.87 1454.24 331.21 1431.96 330.55 1434.85 337.19"/><polygon class="cls-19" points="1452.83 345.84 1463.34 340.57 1462 336.93 1448.67 342.81 1452.83 345.84"/><path class="cls-9" d="M1248.5,424a16.43,16.43,0,0,1,18.44,0s-1.72,15.62-9.22,15.62S1248.5,424,1248.5,424Z"/><path class="cls-6" d="M1191.28,306c5.29,4.65,17.47,11.7,36.7,11.7s32.37-7.37,36.7-10.41c0,0-10.1,38.78-37.82,38.78S1192.25,311.93,1191.28,306Z"/><path class="cls-8" d="M1195.93,313.05s24.52,15.55,63.14,1.13c0,0-15.06,13-34.13,13S1199.78,321.07,1195.93,313.05Z"/><path class="cls-8" d="M1210,338.29c1.53,1.37,16.43,10.66,30.37,1.85Z"/><path class="cls-18" d="M1222.29,349.35a36,36,0,0,0,11.3,0"/><polygon class="cls-7" points="1219.11 254.93 1213.52 250.8 1175.54 260.31 1182.35 264.14 1219.11 254.93"/><polygon class="cls-7" points="1239.93 254.7 1250.08 252.74 1274.06 261.62 1266.87 264.68 1238.98 257.27 1239.93 254.7"/><path class="cls-6" d="M1195.62,288.39l-1.51-2.6c4.28-2.48,11.59-5.07,16-6.54a161.1,161.1,0,0,1-15.27-9.44l1.72-2.46c.12.08,12.52,8.71,18.26,10.72l4.35,1.53-4.41,1.32C1214.67,281,1201.64,284.9,1195.62,288.39Z"/><path class="cls-6" d="M1262.67,288.5c-.14-.07-13.8-6.52-19.79-7.54l-4.55-.78,4.14-2.05c.12-.06,12.31-6.1,17.67-10.54l1.91,2.3c-3.81,3.16-10.58,6.93-14.73,9.12a160.86,160.86,0,0,1,16.63,6.78Z"/><polygon class="cls-2" points="1929.76 313.96 1940.83 334.17 1947.99 331.31 1935.55 305.62 1929.76 313.96"/><rect class="cls-2" x="1712.08" y="351.6" width="44.41" height="53.77"/><ellipse class="cls-2" cx="1790" cy="282.01" rx="9.47" ry="20.21"/><ellipse class="cls-2" cx="1668.07" cy="282.01" rx="9.47" ry="20.21"/><path class="cls-2" d="M1734.28,360.58c-22.2.37-64.51-6.17-64.51-49.74s.63-53.67-3.16-67.56-10.1-43.57,9.47-56.2,38.52-8.84,50.52-11.37,36-6.94,34.1,9.47c10.73,3.79,36,11.37,32.2,59.36s-3.16,59.36-4.42,68.83S1781.12,359.81,1734.28,360.58Z"/><polygon class="cls-13" points="1687.45 761.69 1687.45 761.69 1709.55 759.8 1709.55 759.8 1719.38 663.38 1684.8 663.38 1687.45 761.69"/><polygon class="cls-6" points="1676.08 783.16 1676.08 793.26 1717.76 793.26 1717.76 777.48 1709.55 759.8 1687.45 761.69 1676.08 783.16"/><polygon class="cls-6" points="1782.17 760.43 1757.33 761.69 1756.91 788.84 1817.53 793.26 1817.53 779.37 1782.17 760.43"/><polygon class="cls-2" points="1782.17 663.38 1782.17 550.79 1681.77 550.79 1684.8 663.38 1719.38 663.38 1719.65 660.66 1732.91 580.47 1746.81 656.87 1747.3 663.38 1747.46 664.94 1782.17 663.96 1782.17 663.38"/><polygon class="cls-13" points="1782.17 760.43 1782.17 663.96 1747.46 664.94 1757.33 761.69 1757.33 761.69 1782.17 760.43 1782.17 760.43"/><polygon class="cls-2" points="1941.45 353.31 1963.39 349.69 1957.97 322.56 1949.42 328.24 1937.7 334.11 1941.45 353.31"/><polygon class="cls-2" points="1641.75 563.97 1644.81 582.49 1667.7 577.91 1662.91 570.7 1657.96 560.81 1641.75 563.97"/><polygon class="cls-14" points="1665.33 567.55 1660.91 559.76 1657.96 560.81 1662.91 570.7 1665.33 567.55"/><polygon class="cls-6" points="1742.64 304.4 1730.18 304.4 1730.18 303.4 1741.5 303.4 1736.84 266.97 1737.83 266.84 1742.64 304.4"/><polygon class="cls-7" points="1723.09 261.9 1719.54 255.93 1680.85 249.95 1685.65 256.13 1723.09 261.9"/><polygon class="cls-7" points="1744.17 260.7 1752.45 254.51 1777.91 252.07 1772.77 257.95 1744.43 263.43 1744.17 260.7"/><path class="cls-16" d="M1760.7,185.18c10.73,3.79,36,11.37,32.2,59.36-1.09,13.86-1.82,24.67-2.33,33.25h-7.14v-40S1762,228.12,1756.49,221Z"/><path class="cls-6" d="M1770.29,308.92l-2.71,1.26c-11.9,5.49-23.43,8.28-34.27,8.28a55,55,0,0,1-32.74-10.25l-3.44-2.5,1.23,4.08c6.41,21.22,17.39,30.68,35.6,30.68,14.17,0,24.92-6.09,31.21-17.35l0,0,.34-.68.08-.17a46,46,0,0,0,4-10.47Z"/><path class="cls-8" d="M1743.09,319.25a63.88,63.88,0,0,1-22.28-.54,55.94,55.94,0,0,1-16.31-6.16,44.6,44.6,0,0,0,1,5.78l0,.1c7.77,6.24,25.66,20.42,57.19,1.3l1.42-.86a15.27,15.27,0,0,0,1.28-6.08A88.34,88.34,0,0,1,1743.09,319.25Z"/><path class="cls-8" d="M1705.69,320.94l1.74,1.31c5.53,4,13.86,8.81,25.45,8.81,8.48,0,18.71-2.61,30.83-9.86a3.29,3.29,0,0,0,.47-.33l-.25.44c-6.53,11.67-17.52,16.55-29.93,16.55-11.57,0-20.92-3.94-27.76-14.84Z"/><path class="cls-7" d="M1760.7,185.18,1756.49,221c-17.26,18.94-79.16,12.2-79.16,12.2V277.8h-7.53c-.09-17.46-.63-25.13-3.19-34.52-3.79-13.9-10.1-43.57,9.47-56.2s38.52-8.84,50.52-11.37S1762.59,168.77,1760.7,185.18Z"/><polygon class="cls-2" points="1615.89 472.28 1642.89 563.84 1656.78 560.68 1648.51 475.22 1652.97 461.96 1622.95 449.51 1615.89 472.28"/><path class="cls-13" d="M1734.38,399c19.41,0,27.28-15.72,29.26-25.2l-7.15-1.74c0,13.05-9.69,19.79-23.37,19.79s-20-9.69-21-19.79l-8.46,2.05C1706.81,383.6,1715.22,399,1734.38,399Z"/><path class="cls-2" d="M1844.72,405.18c8.35-5.54,22.66-13.83,22.66-13.83l78-44.46-3.58-11.74-80.47,24.72-18.16,5.72Z"/><path class="cls-17" d="M1822.9,369.15l-59.26,4.68c-2,9.48-9.85,25.2-29.26,25.2-19.16,0-27.57-15.43-30.76-24.89l-61.95,15L1623,449.51,1653,462l7.5-22.25,21.3,111.08h100.4l25.67-112.61s23.38-31.5,36.88-33l-1.53-39.59Z"/><polygon class="cls-13" points="1681.77 550.79 1676.08 616.67 1730.81 616.67 1733.12 606.04 1734.18 616.67 1790.16 616.67 1782.17 550.79 1681.77 550.79"/><polygon class="cls-19" points="1948.82 335.55 1960.79 327.36 1958.69 322.73 1943.39 332.06 1948.82 335.55"/><polygon class="cls-19" points="1949.95 340.52 1961.93 332.33 1959.83 327.7 1944.53 337.03 1949.95 340.52"/><polygon class="cls-19" points="1951.09 345.5 1963.07 337.31 1960.97 332.68 1945.67 342.01 1951.09 345.5"/><polygon class="cls-19" points="1952.41 350.62 1964.39 342.43 1962.3 337.8 1946.99 347.13 1952.41 350.62"/><path class="cls-9" d="M1754.35,424a16.43,16.43,0,0,1,18.44,0s-1.72,15.62-9.22,15.62S1754.35,424,1754.35,424Z"/><path class="cls-6" d="M1770.73,277.8c0,6-2.22,10.91-5,10.91s-5-4.89-5-10.91,2.22-10.92,5-10.92S1770.73,271.77,1770.73,277.8Zm-5-8.11c-2,0-3.69,3.63-3.69,8.11s1.65,8.1,3.69,8.1,3.68-3.63,3.68-8.1S1767.8,269.69,1765.77,269.69Z"/><path class="cls-6" d="M1725.7,277.8c0,6-2.18,10.91-4.87,10.91s-4.87-4.89-4.87-10.91,2.18-10.92,4.87-10.92S1725.7,271.77,1725.7,277.8Zm-4.87-8.11c-2,0-3.62,3.63-3.62,8.11s1.62,8.1,3.62,8.1,3.62-3.63,3.62-8.1S1722.83,269.69,1720.83,269.69Z"/></g></svg>
