<svg xmlns="http://www.w3.org/2000/svg" viewBox="0 0 1006 882"><defs><style>.cls-1{fill:#414042;}.cls-2{fill:#f7c890;}.cls-3{fill:#317090;}.cls-4{fill:#321916;}.cls-5{fill:#593c1f;}.cls-6{fill:#231f20;}.cls-7{fill:#5a3b39;}.cls-8{fill:#fff;}.cls-9{fill:#fff200;}.cls-10{fill:#e3b52c;}.cls-11{fill:#c11f4a;}.cls-12{fill:#d3b492;}.cls-13{fill:none;stroke:#231f20;stroke-miterlimit:10;}.cls-14{fill:#563a39;}.cls-15{fill:#2e3192;}</style></defs><title>karakter_rentegnet</title><g id="Layer_2" data-name="Layer 2"><rect class="cls-1" y="-7.98" width="1016.07" height="898.46"/><ellipse class="cls-2" cx="764.65" cy="472.66" rx="11.45" ry="15.73" transform="matrix(0.96, -0.27, 0.27, 0.96, -97.92, 219.55)"/><ellipse class="cls-2" cx="559.76" cy="472.66" rx="15.73" ry="11.45" transform="translate(-44.35 887.13) rotate(-74.63)"/><polygon class="cls-2" points="713.21 727.98 727.63 701.51 667.41 701.51 677.16 729.29 713.21 727.98"/><polygon class="cls-2" points="641.67 727.98 656.1 701.51 595.87 701.51 605.62 729.29 641.67 727.98"/><path class="cls-3" d="M764.34,507.4s-7.2,35.9-10.9,72.05c16.43-5.26,37-13,48.48-19.54C794,536.22,780.06,521.52,764.34,507.4Z"/><path class="cls-2" d="M753.44,579.45c-3.76,36.79-3.89,73.83,10.9,73.53,29.34-.6,44.41-31.36,44.41-45.16,0-19.57-2.53-35-6.83-47.91C790.41,566.42,769.87,574.19,753.44,579.45Z"/><path class="cls-3" d="M558.51,507.4C539.69,524.31,523.38,542,517,575.08c17,7.67,40.91,15.68,53.69,18.85C567.78,553.58,558.51,507.4,558.51,507.4Z"/><path class="cls-2" d="M517,575.08a172.06,172.06,0,0,0-2.9,32.74c0,13.8,15.08,44.56,44.41,45.16,12.85.26,14.44-27.62,12.18-59.05C557.91,590.76,534,582.75,517,575.08Z"/><path class="cls-4" d="M653.37,636c-40.35,0-78.25-2.41-105.51-6.63,13.08,35.38,28.62,63.48,44.9,74.87,0,0,27.37,7.71,63.75,1.81l4.92-7.54,4.91,7.54c36.38,5.9,63.75-1.81,63.75-1.81,17.11-9.4,35.69-38.74,45.47-76.42C738.14,633.42,694.53,636,653.37,636Z"/><path class="cls-3" d="M778.66,618.32c9.19-31.64,9.4-69.49-14.32-110.92,0,0-38.67,31.46-102.91,31.46S558.51,507.4,558.51,507.4c-24.08,42.08-23.49,80.45-13.87,112.38C598.77,629.07,702.76,630.43,778.66,618.32Z"/><path class="cls-5" d="M773.9,633.81c1.11-3.1,3.82-12.26,4.76-15.49-75.9,12.11-179.89,10.75-234,1.46,1,3.26,4.35,12.46,5.5,15.58,27.26,4.23,63.18,6.33,103.52,6.33C694.83,641.69,736.48,639.44,773.9,633.81Z"/><path class="cls-6" d="M643.22,738.47H605.3a3.19,3.19,0,0,1-3.18-3.18s5.43-9.94,9-9.94h28.63c3.61,0,6.56,10,6.56,10A3.14,3.14,0,0,1,643.22,738.47Z"/><path class="cls-6" d="M714.06,738.47H676.13a3.18,3.18,0,0,1-3.17-3.18s5.43-9.94,9-9.94h28.64c3.6,0,6.55,10,6.55,10A3.14,3.14,0,0,1,714.06,738.47Z"/><path class="cls-7" d="M581.45,442.67s32.12,5.9,80,5.9,80-5.9,80-5.9v18.19h23.65c-18.32-48.8-79.75-66.37-103.62-66.37s-85.31,17.57-103.63,66.37h23.65Z"/><path class="cls-2" d="M765.05,460.86H741.4V442.67s-32.12,5.9-80,5.9-80-5.9-80-5.9v18.19H557.8a79.62,79.62,0,0,0-3.71,13.06C542.78,532.7,620.46,539,661.43,543c41-3.93,118.64-10.26,107.34-69A80.63,80.63,0,0,0,765.05,460.86Z"/><path class="cls-6" d="M706.37,472c0,9.38-5.64,17-12.58,17s-12.58-7.61-12.58-17,5.63-17,12.58-17S706.37,462.59,706.37,472Zm-12.58-12.62c-5.16,0-9.34,5.65-9.34,12.62s4.18,12.61,9.34,12.61,9.34-5.64,9.34-12.61S699,459.36,693.79,459.36Z"/><path class="cls-6" d="M636.25,472c0,9.38-5.63,17-12.58,17s-12.57-7.61-12.57-17,5.63-17,12.57-17S636.25,462.59,636.25,472Zm-12.58-12.62c-5.16,0-9.34,5.65-9.34,12.62s4.18,12.61,9.34,12.61S633,479,633,472,628.83,459.36,623.67,459.36Z"/><path class="cls-6" d="M662.74,495.85c9.15-1.09,17.86,4.14,22,8.65s6.4,8.09,6.4,10.91,0,6.39-7.34,4.89-10.72-3.2-18.43-3-18.8,4.14-22.38,5.64-10.34,3.57-14.1,1.13-.37-10.16,4.33-14.48S645.44,497.92,662.74,495.85Z"/><path class="cls-8" d="M633.43,522.37a5.48,5.48,0,0,1-3-.68c-.1-.06-.27-.17-.32-.75a4.1,4.1,0,0,1,.06-.94,83.65,83.65,0,0,1,41.61-11,84.91,84.91,0,0,1,14,1.18c2,2.77,2.5,4.35,2.5,5.2,0,2.42,0,2.42-1.48,2.42a13.22,13.22,0,0,1-2.47-.29c-2-.42-3.7-.84-5.32-1.25a46.36,46.36,0,0,0-12.52-1.84l-1.23,0c-8.25.2-19.69,4.3-23.4,5.86A24.48,24.48,0,0,1,633.43,522.37Z"/><path class="cls-8" d="M633,514a17.62,17.62,0,0,1,2.11-2.34l.39-.36c4.64-4.28,11.65-10.74,27.55-12.64a19.24,19.24,0,0,1,2.15-.13c6.63,0,13,3.5,16.76,7.18a88.1,88.1,0,0,0-10.16-.6A89.64,89.64,0,0,0,633,514Z"/><path class="cls-6" d="M646.27,441.09l-1.1,6.06s-22.83-5.87-56.08,26.77C589.09,473.92,603.82,430.52,646.27,441.09Z"/><path class="cls-6" d="M673.44,447.7l-2.1-7s45.83-5.08,54.47,27.4C725.81,468.13,716.23,450,673.44,447.7Z"/><ellipse class="cls-9" cx="657.45" cy="582.94" rx="43.92" ry="24.8"/><path class="cls-6" d="M650.61,575.27c-10.61,3.93-16-5.86-10.61-11.53-8.6,2.2-22.59,8.42-22.59,18.76,0,9.4,9.15,14.72,15.73,17-6.35-7.86,2.38-14,10-5.42,6-10.56,13,4.6,14.23,6.9h0c1.25-2.3,8.27-17.46,14.23-6.9,7.64-8.6,16.37-2.44,10,5.42,6.58-2.28,15.73-7.6,15.73-17,0-10.34-14-16.56-22.59-18.76,5.39,5.67,0,15.46-10.61,11.53-1.23-1.46-2-4.47-2-13.35-1.43.92-2.44,4.18-2.53,4.41a8.7,8.7,0,0,0-4.5,0c-.09-.23-1.11-3.49-2.53-4.41C652.62,570.8,651.83,573.81,650.61,575.27Z"/><rect class="cls-10" x="642.6" y="626.82" width="36.53" height="15.49" rx="0.28" ry="0.28"/><rect class="cls-2" x="301.94" y="301.4" width="44.41" height="53.77"/><ellipse class="cls-2" cx="379.86" cy="231.81" rx="9.47" ry="20.21"/><ellipse class="cls-2" cx="257.94" cy="231.81" rx="9.47" ry="20.21"/><path class="cls-2" d="M324.15,310.39c-22.21.36-64.52-6.17-64.52-49.74s.63-53.68-3.15-67.57-10.11-43.57,9.47-56.2,38.52-8.84,50.51-11.36,36-7,34.1,9.47c10.74,3.79,36,11.37,32.2,59.35s-3.15,59.36-4.42,68.83S371,309.61,324.15,310.39Z"/><polygon class="cls-11" points="277.31 711.5 277.31 711.5 299.41 709.6 299.41 709.6 309.24 613.18 274.66 613.18 277.31 711.5"/><polygon class="cls-6" points="265.95 732.97 265.95 743.07 307.62 743.07 307.62 727.28 299.41 709.6 277.31 711.5 265.95 732.97"/><polygon class="cls-6" points="372.03 710.23 347.19 711.5 346.77 738.65 407.39 743.07 407.39 729.18 372.03 710.23"/><polygon class="cls-2" points="372.03 613.18 372.03 500.6 271.63 500.6 274.66 613.18 309.24 613.18 309.52 610.47 322.78 530.27 336.67 606.68 337.17 613.18 337.33 614.74 372.03 613.77 372.03 613.18"/><polygon class="cls-11" points="372.03 710.23 372.03 613.77 337.33 614.74 347.19 711.5 347.19 711.5 372.03 710.23 372.03 710.23"/><polygon class="cls-2" points="412.76 508.7 409.71 527.22 386.81 522.64 391.61 515.43 396.56 505.54 412.76 508.7"/><polygon class="cls-12" points="389.18 512.27 393.6 504.49 396.56 505.54 391.61 515.43 389.18 512.27"/><polygon class="cls-2" points="231.62 513.77 234.67 532.29 257.56 527.72 252.77 520.5 247.82 510.62 231.62 513.77"/><polygon class="cls-12" points="255.2 517.35 250.78 509.56 247.82 510.62 252.77 520.5 255.2 517.35"/><path class="cls-6" d="M352.52,227.6c0,6-3.62,10.91-8.08,10.91s-8.08-4.88-8.08-10.91,3.62-10.91,8.08-10.91S352.52,221.57,352.52,227.6Zm-8.08-8.1c-3.31,0-6,3.63-6,8.1s2.69,8.1,6,8.1,6-3.62,6-8.1S347.75,219.5,344.44,219.5Z"/><path class="cls-6" d="M307.49,227.6c0,6-3.62,10.91-8.08,10.91s-8.07-4.88-8.07-10.91,3.61-10.91,8.07-10.91S307.49,221.57,307.49,227.6Zm-8.08-8.1c-3.31,0-6,3.63-6,8.1s2.68,8.1,6,8.1,6-3.62,6-8.1S302.73,219.5,299.41,219.5Z"/><polyline class="cls-13" points="327.2 216.71 331.93 253.7 320.05 253.7"/><polygon class="cls-7" points="312.96 211.71 309.41 205.73 270.72 199.76 275.51 205.93 312.96 211.71"/><polygon class="cls-7" points="334.03 210.51 342.32 204.32 367.77 201.87 362.63 207.76 334.29 213.23 334.03 210.51"/><path class="cls-14" d="M350.56,135c10.74,3.79,36,11.37,32.2,59.35-1.09,13.87-1.82,24.67-2.32,33.26h-7.15v-40s-21.47-9.68-26.94-16.84Z"/><path class="cls-6" d="M360.16,258.73,357.44,260c-11.9,5.5-23.43,8.29-34.26,8.29A55,55,0,0,1,290.44,258l-3.44-2.5,1.23,4.07c6.4,21.22,17.38,30.68,35.59,30.68,14.17,0,24.92-6.08,31.21-17.34h0l.33-.68.09-.17a46.54,46.54,0,0,0,3.94-10.46Z"/><path class="cls-8" d="M333,269.06a64.08,64.08,0,0,1-22.28-.55,55.57,55.57,0,0,1-16.31-6.15,42.76,42.76,0,0,0,.94,5.77.45.45,0,0,1,0,.11c7.77,6.23,25.67,20.41,57.2,1.3.47-.29.94-.57,1.41-.87a15.43,15.43,0,0,0,1.29-6.08A88.52,88.52,0,0,1,333,269.06Z"/><path class="cls-8" d="M295.56,270.75c.54.42,1.12.86,1.74,1.31,5.53,4,13.86,8.81,25.45,8.81,8.47,0,18.71-2.61,30.83-9.86l.47-.33-.25.44c-6.53,11.66-17.53,16.55-29.94,16.55-11.57,0-20.92-3.94-27.76-14.85Z"/><path class="cls-7" d="M350.56,135l-4.21,35.78C329.1,189.71,267.2,183,267.2,183V227.6h-7.54c-.08-17.46-.62-25.12-3.18-34.52-3.79-13.89-10.11-43.57,9.47-56.2s38.52-8.84,50.51-11.36S352.46,118.57,350.56,135Z"/><polygon class="cls-2" points="205.75 422.08 232.75 513.64 246.65 510.49 238.37 425.03 242.84 411.77 212.81 399.32 205.75 422.08"/><path class="cls-11" d="M324.25,348.84c19.41,0,27.28-15.72,29.25-25.21l-7.15-1.73c0,13.05-9.68,19.78-23.36,19.78S303,332,301.94,321.9l-8.45,2C296.67,333.41,305.08,348.84,324.25,348.84Z"/><path class="cls-2" d="M404.9,409.26l5.54,16.33-14,80.69,13.89,3.16,31.57-89.88L436.2,401.4Z"/><path class="cls-15" d="M416.55,339,353.5,323.63c-2,9.49-9.84,25.21-29.25,25.21-19.17,0-27.58-15.43-30.76-24.9l-62,15-18.72,60.37,30,12.45,7.5-22.26,21.29,111.08H372L397.7,388s3.77,11.12,7.2,21.27l31.3-7.86Z"/><polygon class="cls-11" points="271.63 500.6 265.95 566.48 320.67 566.48 322.99 555.85 324.04 566.48 380.03 566.48 372.03 500.6 271.63 500.6"/><path class="cls-9" d="M344.19,373.76a16.43,16.43,0,0,1,18.44,0s-1.72,15.62-9.22,15.62S344.19,373.76,344.19,373.76Z"/></g></svg>
