<svg id="Layer_1" data-name="Layer 1" xmlns="http://www.w3.org/2000/svg" viewBox="0 0 1600 900"><defs><style>.cls-1{fill:#414042;}.cls-2{font-size:222.7px;fill:#fff200;letter-spacing:-0.02em;}.cls-2,.cls-8{font-family:Bangers-Regular, Bangers;}.cls-3{letter-spacing:0em;}.cls-4{font-size:79.21px;letter-spacing:0.07em;}.cls-4,.cls-5,.cls-8{fill:#fff;}.cls-4,.cls-5{font-family:Montserrat-Regular, Montserrat;}.cls-5{font-size:46.16px;letter-spacing:0.07em;}.cls-6{letter-spacing:0.06em;}.cls-7{letter-spacing:0.07em;}.cls-8{font-size:119.94px;}.cls-9{font-family:MyriadPro-Regular, Myriad Pro;letter-spacing:0em;}.cls-10{fill:#ed1c24;stroke:#231f20;stroke-miterlimit:10;}</style></defs><title>krediteringsbillede</title><rect class="cls-1" width="1600" height="900"/><text class="cls-2" transform="translate(245.18 334.69)">R<tspan class="cls-3" x="93.53" y="0">ONALD</tspan></text><text class="cls-4" transform="translate(487.15 420.4)">&amp; NØRDEN</text><text class="cls-5" transform="translate(564.64 683.64)">HANS CHRISTIAN<tspan x="0" y="55.39">ANDRE</tspan><tspan class="cls-6" x="185.98" y="55.39">A</tspan><tspan class="cls-7" x="222.4" y="55.39">SSEN</tspan></text><text class="cls-8" transform="translate(487.15 622.31) scale(1.11 1)">By<tspan class="cls-9" x="97.39" y="0"> </tspan></text><path class="cls-10" d="M1358,189.49a102.31,102.31,0,0,0-144.64,3.36,83.91,83.91,0,0,0-22.84,50.5,84,84,0,0,0,19.39,93.16,68.75,68.75,0,0,0,47.68,19.11h0a68.48,68.48,0,0,0,50-21.38l1.84-1.93,15.88-64.22-26,27.21a48.63,48.63,0,0,1-35.51,15.19h0a48.86,48.86,0,0,1-33.87-13.57,63.68,63.68,0,0,1-19.68-48.69,63.27,63.27,0,0,1,11.37-16.44,82.28,82.28,0,0,1,116.35-2.71A105.82,105.82,0,0,1,1369.78,318a104.75,104.75,0,0,1-22.17,35A134.37,134.37,0,0,1,1192,381.07l12.87-5.84-124.56-65.54,72,133.66,8.16-28.58a154.76,154.76,0,0,0,83.91,24.83,152.86,152.86,0,0,0,111.57-47.73,124.43,124.43,0,0,0,33.44-69.08A125.3,125.3,0,0,0,1358,189.49Z"/></svg>
