<svg xmlns="http://www.w3.org/2000/svg" viewBox="0 0 1600 900"><defs><style>.cls-1{fill:#414042;}.cls-2{fill:#f7c890;}.cls-3{fill:#c11f4a;}.cls-4{fill:#231f20;}.cls-5{fill:#d3b492;}.cls-6{fill:none;stroke:#231f20;stroke-miterlimit:10;}.cls-7{fill:#5a3b39;}.cls-8{fill:#563a39;}.cls-18,.cls-9{fill:#fff;}.cls-10{fill:#2e3192;}.cls-11,.cls-16{fill:#fff200;}.cls-12{fill:#317090;}.cls-13{fill:#321916;}.cls-14{fill:#593c1f;}.cls-15{fill:#e3b52c;}.cls-16{font-size:222.7px;font-family:Bangers-Regular, Bangers;letter-spacing:-0.02em;}.cls-17{letter-spacing:0em;}.cls-18{font-size:79.21px;font-family:Montserrat-Regular, Montserrat;letter-spacing:0.07em;}</style></defs><title>titelbillede</title><g id="Layer_1" data-name="Layer 1"><rect class="cls-1" width="1600" height="900"/></g><g id="Layer_2" data-name="Layer 2"><rect class="cls-2" x="311.19" y="352.8" width="44.41" height="53.77"/><ellipse class="cls-2" cx="389.11" cy="283.21" rx="9.47" ry="20.21"/><ellipse class="cls-2" cx="267.19" cy="283.21" rx="9.47" ry="20.21"/><path class="cls-2" d="M333.4,361.78c-22.2.37-64.51-6.17-64.51-49.74s.63-53.67-3.16-67.56-10.1-43.57,9.47-56.2,38.52-8.84,50.52-11.37,36-6.94,34.1,9.47c10.73,3.79,36,11.37,32.2,59.36s-3.16,59.36-4.42,68.83S380.23,361,333.4,361.78Z"/><polygon class="cls-3" points="286.57 762.89 286.57 762.89 308.67 761 308.67 761 318.49 664.58 283.92 664.58 286.57 762.89"/><polygon class="cls-4" points="275.2 784.36 275.2 794.47 316.88 794.47 316.88 778.68 308.67 761 286.57 762.89 275.2 784.36"/><polygon class="cls-4" points="381.28 761.63 356.45 762.89 356.03 790.04 416.64 794.47 416.64 780.57 381.28 761.63"/><polygon class="cls-2" points="381.28 664.58 381.28 551.99 280.88 551.99 283.92 664.58 318.49 664.58 318.77 661.86 332.03 581.67 345.92 658.07 346.42 664.58 346.58 666.14 381.28 665.16 381.28 664.58"/><polygon class="cls-3" points="381.28 761.63 381.28 665.16 346.58 666.14 356.45 762.89 356.45 762.89 381.28 761.63 381.28 761.63"/><polygon class="cls-2" points="530.94 560.09 527.88 578.61 504.99 574.04 509.78 566.82 514.73 556.93 530.94 560.09"/><polygon class="cls-5" points="507.36 563.67 511.78 555.88 514.73 556.93 509.78 566.82 507.36 563.67"/><polygon class="cls-2" points="240.87 565.17 243.93 583.69 266.82 579.11 262.03 571.9 257.08 562.01 240.87 565.17"/><polygon class="cls-5" points="264.45 568.75 260.03 560.96 257.08 562.01 262.03 571.9 264.45 568.75"/><path class="cls-4" d="M361.77,279c0,6-3.61,10.91-8.07,10.91S345.62,285,345.62,279s3.61-10.91,8.08-10.91S361.77,273,361.77,279Zm-8.07-8.11c-3.32,0-6,3.63-6,8.11s2.68,8.1,6,8.1,6-3.63,6-8.1S357,270.89,353.7,270.89Z"/><path class="cls-4" d="M316.74,279c0,6-3.61,10.91-8.07,10.91S300.59,285,300.59,279s3.62-10.91,8.08-10.91S316.74,273,316.74,279Zm-8.07-8.11c-3.31,0-6,3.63-6,8.11s2.69,8.1,6,8.1,6-3.63,6-8.1S312,270.89,308.67,270.89Z"/><polyline class="cls-6" points="336.45 268.1 341.19 305.1 329.3 305.1"/><polygon class="cls-7" points="322.21 263.11 318.66 257.13 279.97 251.15 284.77 257.32 322.21 263.11"/><polygon class="cls-7" points="343.29 261.9 351.57 255.72 377.03 253.27 371.89 259.16 343.55 264.63 343.29 261.9"/><path class="cls-8" d="M359.82,186.38c10.73,3.79,36,11.37,32.2,59.36-1.1,13.86-1.82,24.67-2.33,33.26h-7.14V239s-21.47-9.69-26.94-16.84Z"/><path class="cls-4" d="M369.41,310.12l-2.71,1.26c-11.9,5.49-23.43,8.28-34.27,8.28a55,55,0,0,1-32.74-10.25l-3.44-2.5,1.23,4.08c6.41,21.22,17.39,30.68,35.59,30.68,14.18,0,24.92-6.09,31.22-17.35l0,0,.34-.68.08-.17A46.45,46.45,0,0,0,368.69,313Z"/><path class="cls-9" d="M342.21,320.45a63.88,63.88,0,0,1-22.28-.54,56,56,0,0,1-16.31-6.15,44.73,44.73,0,0,0,.95,5.77l0,.1c7.77,6.24,25.66,20.42,57.19,1.3l1.42-.86a15.63,15.63,0,0,0,1.28-6.08A88.46,88.46,0,0,1,342.21,320.45Z"/><path class="cls-9" d="M304.81,322.14c.54.43,1.13.86,1.74,1.31,5.53,4,13.86,8.82,25.45,8.82,8.48,0,18.71-2.62,30.83-9.86a4.21,4.21,0,0,0,.47-.34s-.25.44-.25.44c-6.53,11.67-17.53,16.55-29.94,16.55-11.56,0-20.92-3.94-27.76-14.84Z"/><path class="cls-7" d="M359.82,186.38l-4.21,35.79c-17.26,18.94-79.16,12.2-79.16,12.2V279h-7.54c-.08-17.46-.62-25.13-3.18-34.52-3.79-13.89-10.1-43.57,9.47-56.2s38.52-8.84,50.52-11.37S361.71,170,359.82,186.38Z"/><polygon class="cls-2" points="215 473.48 242.01 565.04 255.9 561.88 247.63 476.42 252.09 463.17 222.06 450.71 215 473.48"/><path class="cls-3" d="M333.5,400.23c19.41,0,27.28-15.72,29.26-25.2l-7.15-1.74c0,13-9.69,19.79-23.37,19.79s-20-9.68-21.05-19.79l-8.45,2C305.93,384.8,314.34,400.23,333.5,400.23Z"/><path class="cls-2" d="M431.09,460.65c5.43-1.36,7.63,9.09,7.63,9.09l75.9,87.93,13.9,3.16L473.05,469.4l-10.67-16.6Z"/><path class="cls-10" d="M425.8,390.34l-63-15.31c-2,9.48-9.85,25.2-29.26,25.2-19.16,0-27.57-15.43-30.76-24.89l-62,15-18.72,60.37,30,12.45,7.5-22.25L280.88,552h100.4L407,439.38s22.42,21.69,31.76,30.36l23.66-16.94Z"/><polygon class="cls-3" points="280.88 551.99 275.2 617.87 329.93 617.87 332.24 607.24 333.29 617.87 389.28 617.87 381.28 551.99 280.88 551.99"/><path class="cls-11" d="M353.53,425.06a16.5,16.5,0,0,1,18.45,0s-1.72,15.62-9.22,15.62S353.53,425.06,353.53,425.06Z"/><ellipse class="cls-2" cx="664.93" cy="528.88" rx="11.45" ry="15.73" transform="translate(-116.39 195.14) rotate(-15.37)"/><ellipse class="cls-2" cx="460.04" cy="528.88" rx="15.73" ry="11.45" transform="translate(-171.85 832.3) rotate(-74.63)"/><polygon class="cls-2" points="613.5 784.2 627.92 757.74 567.69 757.74 577.44 785.51 613.5 784.2"/><polygon class="cls-2" points="541.96 784.2 556.38 757.74 496.16 757.74 505.91 785.51 541.96 784.2"/><path class="cls-12" d="M664.63,563.62s-7.2,35.91-10.9,72.06c16.42-5.26,37-13,48.47-19.54C694.3,592.45,680.34,577.75,664.63,563.62Z"/><path class="cls-2" d="M653.73,635.68c-3.76,36.79-3.9,73.83,10.9,73.53C694,708.61,709,677.85,709,664.05c0-19.57-2.54-35-6.84-47.91C690.69,622.64,670.15,630.42,653.73,635.68Z"/><path class="cls-12" d="M458.8,563.62c-18.82,16.92-35.13,34.65-41.51,67.69,17,7.67,40.9,15.67,53.68,18.84C468.06,609.81,458.8,563.62,458.8,563.62Z"/><path class="cls-2" d="M417.29,631.31a171.17,171.17,0,0,0-2.9,32.74c0,13.8,15.07,44.56,44.41,45.16,12.84.26,14.44-27.63,12.17-59.06C458.19,647,434.31,639,417.29,631.31Z"/><path class="cls-13" d="M553.65,692.19c-40.34,0-78.25-2.4-105.5-6.63,13.07,35.39,28.61,63.49,44.9,74.88,0,0,27.36,7.7,63.75,1.8l4.91-7.53,4.92,7.53c36.38,5.9,63.75-1.8,63.75-1.8,17.11-9.41,35.68-38.75,45.46-76.43C638.42,689.65,594.82,692.19,553.65,692.19Z"/><path class="cls-12" d="M678.94,674.54c9.2-31.63,9.4-69.48-14.31-110.92,0,0-38.68,31.47-102.92,31.47S458.8,563.62,458.8,563.62C434.71,605.7,435.31,644.07,444.93,676,499.06,685.3,603.05,686.65,678.94,674.54Z"/><path class="cls-14" d="M674.18,690c1.11-3.09,3.82-12.26,4.76-15.49-75.89,12.11-179.88,10.76-234,1.46,1,3.26,4.34,12.47,5.5,15.59,27.25,4.22,63.18,6.33,103.52,6.33C595.11,697.92,636.76,695.66,674.18,690Z"/><path class="cls-4" d="M543.51,794.69H505.58a3.18,3.18,0,0,1-3.17-3.17s5.43-9.94,9-9.94h28.64c3.61,0,6.55,10,6.55,10A3.13,3.13,0,0,1,543.51,794.69Z"/><path class="cls-4" d="M614.34,794.69H576.41a3.18,3.18,0,0,1-3.17-3.17s5.43-9.94,9-9.94h28.63c3.61,0,6.56,10,6.56,10A3.14,3.14,0,0,1,614.34,794.69Z"/><path class="cls-7" d="M481.74,498.89s32.12,5.9,80,5.9,80-5.9,80-5.9v18.19h23.66c-18.32-48.79-79.76-66.37-103.63-66.37s-85.3,17.58-103.62,66.37h23.65Z"/><path class="cls-2" d="M665.34,517.08H641.68V498.89s-32.12,5.9-80,5.9-80-5.9-80-5.9v18.19H458.09a80.2,80.2,0,0,0-3.72,13.06c-11.31,58.78,66.37,65.11,107.34,69.05,41-3.94,118.65-10.27,107.34-69.05A80.19,80.19,0,0,0,665.34,517.08Z"/><path class="cls-4" d="M606.65,528.2c0,9.39-5.63,17-12.58,17s-12.57-7.6-12.57-17,5.63-17,12.57-17S606.65,518.82,606.65,528.2Zm-12.58-12.62c-5.16,0-9.34,5.65-9.34,12.62s4.18,12.62,9.34,12.62,9.34-5.65,9.34-12.62S599.23,515.58,594.07,515.58Z"/><path class="cls-4" d="M536.54,528.2c0,9.39-5.64,17-12.58,17s-12.58-7.6-12.58-17,5.63-17,12.58-17S536.54,518.82,536.54,528.2ZM524,515.58c-5.16,0-9.34,5.65-9.34,12.62s4.18,12.62,9.34,12.62,9.34-5.65,9.34-12.62S529.12,515.58,524,515.58Z"/><path class="cls-4" d="M563,552.08c9.15-1.1,17.87,4.13,22,8.65s6.39,8.08,6.39,10.9,0,6.4-7.33,4.89-10.72-3.19-18.43-3-18.81,4.14-22.38,5.65-10.34,3.57-14.1,1.12-.38-10.15,4.32-14.48S545.72,554.15,563,552.08Z"/><path class="cls-9" d="M533.71,578.59a5.47,5.47,0,0,1-3-.67c-.1-.06-.28-.18-.33-.76a3.62,3.62,0,0,1,.07-.93,83.6,83.6,0,0,1,41.6-11,85.11,85.11,0,0,1,14.05,1.17c2,2.77,2.49,4.35,2.49,5.2,0,2.43,0,2.43-1.47,2.43a12.62,12.62,0,0,1-2.48-.3c-2-.41-3.69-.83-5.32-1.24a45.89,45.89,0,0,0-12.51-1.84l-1.23,0c-8.25.2-19.69,4.3-23.41,5.86A24.44,24.44,0,0,1,533.71,578.59Z"/><path class="cls-9" d="M533.31,570.22a17.63,17.63,0,0,1,2.1-2.34l.4-.36c4.64-4.28,11.64-10.74,27.55-12.64a17.12,17.12,0,0,1,2.15-.13c6.63,0,13,3.5,16.76,7.18a88.31,88.31,0,0,0-10.17-.61A89.46,89.46,0,0,0,533.31,570.22Z"/><path class="cls-4" d="M546.56,497.32l-1.11,6.05s-22.82-5.86-56.08,26.77C489.37,530.14,504.1,486.74,546.56,497.32Z"/><path class="cls-4" d="M573.73,503.92l-2.11-7s45.83-5.08,54.47,27.39C626.09,524.35,616.51,506.2,573.73,503.92Z"/><ellipse class="cls-11" cx="557.73" cy="639.17" rx="43.92" ry="24.8"/><path class="cls-4" d="M550.89,631.49c-10.61,3.94-16-5.85-10.61-11.52-8.59,2.2-22.58,8.41-22.58,18.76,0,9.4,9.14,14.71,15.73,17-6.35-7.86,2.38-14,10-5.43,6-10.55,13,4.6,14.23,6.91h0c1.26-2.31,8.28-17.46,14.23-6.91,7.65-8.59,16.38-2.43,10,5.43,6.58-2.29,15.73-7.6,15.73-17,0-10.35-14-16.56-22.59-18.76,5.4,5.67,0,15.46-10.61,11.52-1.22-1.46-2-4.47-2-13.35-1.42.92-2.44,4.18-2.53,4.42a8.7,8.7,0,0,0-4.5,0c-.09-.24-1.1-3.5-2.52-4.42C552.91,627,552.12,630,550.89,631.49Z"/><rect class="cls-15" x="542.89" y="683.05" width="36.53" height="15.49" rx="0.28" ry="0.28"/><text class="cls-16" transform="translate(664.93 318.94)">R<tspan class="cls-17" x="93.53" y="0">ONALD</tspan></text><text class="cls-18" transform="translate(906.9 404.65)">&amp; NØRDEN</text></g></svg>
